<svg width="1440" height="1609" viewBox="0 0 1440 1609" fill="none" xmlns="http://www.w3.org/2000/svg">
<g clip-path="url(#clip0_238_3)">
<rect width="1440" height="1609" fill="black"/>
<rect x="89.9844" y="603.688" width="1252" height="825" transform="rotate(-0.901773 89.9844 603.688)" fill="white"/>
<path d="M1300.15 1590.01L1354.81 1408.88L102.96 1428.59L163.29 1607.9L1300.15 1590.01Z" fill="white" stroke="black" stroke-width="4"/>
<path d="M1282.36 459.905L1341.83 584.484L89.983 604.188L145.501 477.799L1282.36 459.905Z" fill="white" stroke="black" stroke-width="4"/>
<path d="M13.5991 1342.48L102.973 1429.09L89.9891 604.188L3.34562 691.063L13.5991 1342.48Z" fill="white" stroke="black" stroke-width="4"/>
<path d="M1441.41 1319.51L1354.81 1408.88L1341.82 583.985L1431.16 668.089L1441.41 1319.51Z" fill="white" stroke="black" stroke-width="4"/>
<rect x="-64" y="-122" width="1600" height="318" fill="black"/>
<path d="M212.533 869.368L197.652 673.175L74.7052 725.768L139.539 532.659L249.668 475.435L296.714 405.836L1077.09 332.943L1141.27 392.152L1291.84 425.026L1399.44 602.028L1242.91 575.54L1257.79 771.732L212.533 869.368Z" fill="white"/>
<path d="M197.652 673.175L212.533 869.368L1257.79 771.732L1242.91 575.54M197.652 673.175L1242.91 575.54M197.652 673.175L249.668 475.435M197.652 673.175L74.7052 725.768L139.539 532.659L249.668 475.435M1242.91 575.54L1141.27 392.152M1242.91 575.54L1399.44 602.028L1291.84 425.026L1141.27 392.152M249.668 475.435L1141.27 392.152M249.668 475.435L296.714 405.836L1077.09 332.943L1141.27 392.152" stroke="black" stroke-width="3.92575"/>
<path d="M197.951 674.552L1141.2 393.001" stroke="black" stroke-width="2.74802"/>
<path d="M248.862 474.713L78.5331 715.99L201.041 663.103" stroke="black" stroke-width="2.74802"/>
<path d="M172.455 422.186L205.512 228.226L73.4911 249.491L183.145 77.8214L303.851 48.9603L366.347 -7.17912L1141.16 111.015L1189.1 184L1327.22 252.345L1388.78 450.13L1243.32 386.538L1210.26 580.497L172.455 422.186Z" fill="white"/>
<path d="M205.512 228.226L172.455 422.186L1210.26 580.497L1243.32 386.538M205.512 228.226L1243.32 386.538M205.512 228.226L303.851 48.9603M205.512 228.226L73.4911 249.491L183.145 77.8214L303.851 48.9603M1243.32 386.538L1189.1 184M1243.32 386.538L1388.78 450.13L1327.22 252.345L1189.1 184M303.851 48.9603L1189.1 184M303.851 48.9603L366.347 -7.17912L1141.16 111.015L1189.1 184" stroke="black" stroke-width="3.92575"/>
<path d="M1240.26 379.359L1388.51 444.006L1188.12 181.816" stroke="black" stroke-width="2.74802"/>
<path d="M205.839 229.22L1189.19 184.39" stroke="black" stroke-width="2.74802"/>
<path d="M162.608 7.64944L-61.0635 200.515L70.6031 178.858" stroke="black" stroke-width="2.74802"/>
<path d="M735.307 93.0228L734.307 91.3033L733.524 93.1321C725.428 112.041 715.936 126.549 704.096 138.33C692.255 150.113 678.027 159.205 660.408 167.235C634.11 179.22 600.385 188.788 555.924 201.403C540.698 205.723 524.213 210.4 506.337 215.653C454.609 230.855 369.068 241.84 280.039 249.494C191.043 257.145 98.6503 261.461 33.259 263.346C21.3191 263.392 11.4995 263.662 3.93555 264.072L4.00991 266.07C12.9914 265.889 22.7939 265.649 33.2919 265.346C103.966 265.078 249.372 272.657 441.732 305.407C554.105 324.539 625.747 351.181 669.638 376.663C691.583 389.403 706.569 401.842 716.242 412.887C725.929 423.948 730.234 433.548 730.95 440.618L732.943 440.582C733.402 433.504 737.869 424.203 747.741 413.554C757.593 402.928 772.743 391.053 794.361 378.832C837.596 354.392 906.598 328.628 1010.52 308.696C1184.67 275.292 1395.77 273.937 1448.55 274.312C1454.32 274.44 1458.2 274.493 1459.99 274.504C1460.37 274.506 1460.65 274.506 1460.82 274.504C1460.88 274.503 1460.97 274.501 1461.04 274.495C1461.05 274.495 1461.13 274.489 1461.22 274.464C1461.25 274.457 1461.31 274.44 1461.38 274.408C1461.41 274.391 1461.62 274.3 1461.78 274.071C1461.86 273.947 1461.95 273.646 1461.97 273.472C1461.95 273.303 1461.84 273.017 1461.77 272.904C1461.62 272.7 1461.44 272.612 1461.4 272.593L1461.39 272.592C1461.28 272.54 1461.19 272.521 1461.17 272.517L1461.17 272.517C1461.14 272.51 1461.11 272.506 1461.1 272.503C1461.07 272.499 1461.04 272.497 1461.02 272.495C1460.85 272.48 1460.24 272.462 1459.28 272.442C1457.31 272.401 1453.68 272.348 1448.58 272.312C1393.25 271.075 1164.58 262.844 956.282 218.238C864.327 198.547 812.434 172.946 781.875 149.459C755.136 128.909 744.686 109.954 737.974 97.7804C737.022 96.0531 736.145 94.4623 735.307 93.0228Z" stroke="black" stroke-width="2"/>
<path d="M720.602 850.808L720.218 850.153L719.924 850.853C717.615 856.362 714.896 860.591 711.496 864.03C708.095 867.47 703.999 870.135 698.917 872.499C691.327 876.028 681.585 878.867 668.732 882.613C664.328 883.896 659.559 885.286 654.386 886.847C639.44 891.355 614.691 894.696 588.918 897.074C563.157 899.451 536.407 900.863 517.472 901.522C514.014 901.555 511.169 901.65 508.977 901.783L509.01 902.541C511.611 902.473 514.45 902.387 517.489 902.281C537.953 902.084 580.074 904.044 635.837 913.251C668.409 918.629 689.192 926.26 701.934 933.596C708.305 937.264 712.658 940.853 715.471 944.042C718.288 947.238 719.539 950.008 719.756 952.04L720.512 952.022C720.631 949.99 721.895 947.294 724.73 944.185C727.557 941.084 731.917 937.607 738.153 934.017C750.623 926.837 770.554 919.225 800.613 913.249C850.986 903.235 912.119 902.484 927.406 902.504C929.075 902.532 930.2 902.541 930.719 902.541C930.781 902.541 930.834 902.541 930.877 902.541C930.911 902.54 930.938 902.54 930.96 902.54C930.979 902.539 931.009 902.539 931.033 902.536C931.033 902.536 931.064 902.534 931.099 902.524C931.109 902.521 931.132 902.515 931.159 902.502L931.16 902.502C931.176 902.494 931.253 902.459 931.312 902.373C931.34 902.326 931.376 902.212 931.379 902.146C931.372 902.082 931.333 901.975 931.305 901.932C931.248 901.855 931.177 901.822 931.162 901.814L931.161 901.814C931.12 901.794 931.084 901.787 931.077 901.786L931.076 901.786C931.064 901.783 931.054 901.782 931.048 901.781L931.038 901.78C931.031 901.779 931.026 901.778 931.023 901.778C930.969 901.774 930.787 901.769 930.511 901.765C929.94 901.756 928.89 901.747 927.412 901.745C911.385 901.478 845.15 899.468 784.754 886.838C758.096 881.264 743.037 873.904 734.161 867.13C726.397 861.205 723.347 855.721 721.383 852.19C721.104 851.688 720.847 851.226 720.602 850.808Z" fill="white" stroke="black" stroke-width="0.759094"/>
<path d="M215.169 753.007L222.007 752.336C222.918 752.247 223.521 752.024 223.815 751.666C224.102 751.244 224.204 750.609 224.121 749.762L218.377 691.157C218.288 690.245 218.064 689.643 217.707 689.349C217.349 689.055 216.715 688.953 215.803 689.043L208.966 689.713L208.66 686.587L240.111 683.505L240.418 686.63L234.948 687.166C234.101 687.249 233.499 687.473 233.14 687.837C232.846 688.194 232.744 688.829 232.833 689.74L238.577 748.346C238.66 749.192 238.883 749.795 239.247 750.154C239.67 750.441 240.304 750.543 241.151 750.46L255.802 749.024C256.714 748.935 257.317 748.711 257.61 748.354C257.898 747.931 258 747.297 257.917 746.45L252.173 687.845C252.084 686.933 251.86 686.33 251.503 686.037C251.145 685.743 250.511 685.641 249.599 685.73L244.129 686.266L243.823 683.141L273.907 680.192L274.213 683.318L268.744 683.854C267.897 683.937 267.294 684.16 266.936 684.524C266.642 684.882 266.54 685.516 266.629 686.428L272.373 745.033C272.456 745.88 272.679 746.483 273.043 746.841C273.466 747.129 274.1 747.231 274.947 747.148L289.598 745.712C290.51 745.623 291.112 745.399 291.406 745.042C291.693 744.619 291.796 743.984 291.713 743.138L285.969 684.533C285.88 683.621 285.656 683.018 285.299 682.725C284.941 682.431 284.307 682.329 283.395 682.418L277.925 682.954L277.619 679.829L309.07 676.746L309.377 679.872L302.539 680.542C301.693 680.625 301.09 680.848 300.731 681.212C300.438 681.57 300.336 682.204 300.425 683.116L306.169 741.721C306.252 742.568 306.475 743.17 306.839 743.529C307.262 743.816 307.896 743.919 308.743 743.836L315.58 743.166L315.886 746.291L215.476 756.132L215.169 753.007ZM313.024 743.416L319.862 742.746C320.773 742.657 321.376 742.433 321.67 742.076C321.957 741.653 322.059 741.018 321.976 740.172L316.232 681.566C316.143 680.655 315.92 680.052 315.562 679.759C315.205 679.465 314.57 679.363 313.658 679.452L306.821 680.122L306.515 676.997L341.287 673.589C345.845 673.142 349.959 673.528 353.629 674.746C357.357 675.892 360.335 677.77 362.563 680.379C364.85 682.916 366.165 685.942 366.51 689.459C366.861 693.04 366.164 696.33 364.42 699.328C362.741 702.319 360.191 704.804 356.769 706.783C353.406 708.691 349.445 709.868 344.887 710.315L333.752 711.406L336.432 738.755C336.515 739.602 336.738 740.204 337.102 740.563C337.525 740.85 338.16 740.953 339.006 740.87L347.602 740.027L347.908 743.153L313.331 746.542L313.024 743.416ZM343.115 707.333C346.501 707.001 348.744 705.4 349.843 702.531C351.008 699.656 351.354 695.809 350.882 690.99C350.416 686.237 349.372 682.625 347.749 680.154C346.12 677.618 343.58 676.52 340.128 676.858L332.803 677.576C331.956 677.659 331.354 677.882 330.995 678.246C330.701 678.603 330.599 679.238 330.688 680.15L333.445 708.28L343.115 707.333ZM368.909 737.939L375.747 737.269C376.658 737.179 377.261 736.956 377.555 736.598C377.842 736.176 377.944 735.541 377.861 734.695L372.117 676.089C372.028 675.178 371.805 674.575 371.447 674.281C371.09 673.988 370.455 673.886 369.543 673.975L362.706 674.645L362.4 671.519L395.219 668.303L395.525 671.428L388.688 672.099C387.841 672.182 387.239 672.405 386.88 672.769C386.586 673.126 386.484 673.761 386.573 674.673L391.331 723.217L409.912 675.344L409.625 672.413C409.535 671.502 409.312 670.899 408.955 670.605C408.597 670.312 407.962 670.21 407.051 670.299L400.018 670.988L399.712 667.863L432.726 664.627L433.033 667.752L426.195 668.423C425.349 668.506 424.746 668.729 424.387 669.093C424.094 669.45 423.991 670.085 424.081 670.997L429.825 729.602C429.908 730.449 430.131 731.051 430.495 731.41C430.917 731.697 431.552 731.799 432.399 731.716L439.236 731.046L439.542 734.172L406.723 737.388L406.417 734.263L413.254 733.593C414.166 733.503 414.768 733.28 415.062 732.922C415.349 732.5 415.452 731.865 415.369 731.019L410.601 682.376L392.03 730.348L392.317 733.278C392.4 734.125 392.623 734.727 392.987 735.086C393.41 735.373 394.045 735.475 394.891 735.392L401.728 734.722L402.035 737.848L369.216 741.064L368.909 737.939ZM457.425 729.264L463.676 728.651C464.588 728.562 465.19 728.338 465.484 727.981C465.771 727.558 465.874 726.924 465.791 726.077L465.025 718.263L459.75 718.78C455.387 719.208 451.196 718.698 447.175 717.251C443.154 715.804 439.809 713.535 437.14 710.444C434.535 707.347 433.022 703.649 432.601 699.351C432.18 695.054 432.946 691.132 434.9 687.588C436.918 684.037 439.759 681.162 443.423 678.962C447.086 676.762 451.099 675.449 455.462 675.021L460.736 674.504L460.047 667.472C459.958 666.56 459.734 665.957 459.377 665.664C459.019 665.37 458.385 665.268 457.473 665.357L451.222 665.97L450.915 662.844L482.562 659.743L482.869 662.868L476.617 663.481C475.771 663.564 475.168 663.787 474.809 664.151C474.516 664.509 474.414 665.143 474.503 666.055L475.192 673.087L480.467 672.571C484.829 672.143 489.021 672.653 493.042 674.099C497.062 675.546 500.375 677.818 502.98 680.916C505.649 684.007 507.195 687.701 507.616 691.999C508.037 696.297 507.238 700.221 505.22 703.772C503.266 707.316 500.458 710.188 496.794 712.388C493.131 714.588 489.118 715.902 484.755 716.329L479.481 716.846L480.247 724.66C480.33 725.507 480.553 726.109 480.917 726.468C481.339 726.756 481.974 726.858 482.821 726.775L489.072 726.162L489.378 729.288L457.731 732.389L457.425 729.264ZM464.718 715.137L461.042 677.63L458.21 677.908C453.977 678.322 451.099 680.149 449.576 683.389C448.053 686.628 447.604 691.438 448.229 697.82C448.855 704.201 450.229 708.833 452.352 711.715C454.475 714.596 457.653 715.83 461.886 715.415L464.718 715.137ZM482.007 713.443C486.24 713.028 489.118 711.201 490.641 707.962C492.164 704.723 492.613 699.912 491.988 693.531C491.362 687.149 489.988 682.518 487.865 679.636C485.742 676.754 482.564 675.521 478.331 675.935L475.498 676.213L479.174 713.721L482.007 713.443ZM519.699 723.16L527.513 722.395C528.425 722.305 529.028 722.082 529.321 721.724C529.609 721.302 529.711 720.667 529.628 719.821L523.98 662.192C523.878 661.15 523.472 660.368 522.764 659.846C522.055 659.323 521.147 659.117 520.04 659.225C516.98 659.525 514.346 661.493 512.138 665.127C509.924 668.697 508.418 672.789 507.622 677.404C507.141 679.883 506.821 681.986 506.662 683.711C506.561 685.364 506.497 686.389 506.47 686.786L503.345 687.093L501.273 657.909L559.879 652.165L563.513 681.196L560.387 681.502C560.284 681.118 559.99 680.128 559.504 678.532C559.078 676.864 558.389 674.861 557.436 672.522C555.759 668.15 553.487 664.428 550.622 661.356C547.751 658.219 544.785 656.8 541.724 657.1C540.617 657.208 539.767 657.588 539.173 658.237C538.579 658.887 538.334 659.733 538.436 660.775L544.084 718.404C544.167 719.25 544.39 719.853 544.754 720.212C545.177 720.499 545.811 720.601 546.658 720.518L554.472 719.752L554.778 722.878L520.006 726.286L519.699 723.16Z" fill="black"/>
<path d="M232.407 393.532C224.427 392.393 217.253 388.568 210.886 382.055C204.622 375.557 200.001 367.548 197.024 358.029C194.061 348.407 193.282 338.672 194.686 328.827C196.091 318.981 199.553 309.905 205.074 301.599C210.609 293.188 217.292 286.739 225.123 282.252C233.058 277.779 241.015 276.112 248.995 277.251C256.975 278.389 264.097 282.207 270.361 288.705C276.728 295.218 281.393 303.286 284.356 312.909C287.334 322.428 288.121 332.11 286.716 341.956C285.312 351.801 281.842 360.929 276.306 369.339C270.786 377.646 264.058 384.036 256.123 388.508C248.293 392.996 240.387 394.67 232.407 393.532ZM233.117 388.557C239.439 389.459 244.583 387.866 248.55 383.78C252.635 379.604 255.439 372.179 256.962 361.504L263.615 314.867C265.138 304.192 264.514 296.331 261.745 291.283C259.094 286.146 254.607 283.127 248.286 282.225C241.964 281.323 236.76 282.96 232.675 287.136C228.708 291.223 225.963 298.604 224.44 309.279L217.787 355.915C216.264 366.59 216.828 374.496 219.48 379.632C222.249 384.68 226.795 387.655 233.117 388.557ZM276.719 391.922L287.601 393.475C288.948 393.667 289.926 393.489 290.532 392.941C291.258 392.304 291.724 391.26 291.931 389.809L305.17 297.002C305.377 295.551 305.259 294.53 304.814 293.938C304.37 293.346 303.423 292.946 301.972 292.739L291.09 291.187L291.799 286.212L344.033 293.663L343.323 298.638L332.441 297.086C331.094 296.893 330.072 297.012 329.377 297.442C328.784 297.886 328.385 298.833 328.178 300.284L314.938 393.092C314.731 394.543 314.835 395.668 315.25 396.467C315.783 397.178 316.723 397.629 318.071 397.821L333.772 400.061C339.368 400.859 344.549 398.638 349.315 393.396C354.185 388.169 358.063 382.483 360.949 376.338C362.014 374.058 363.213 371.215 364.545 367.81C365.876 364.404 366.727 362.147 367.097 361.036L372.072 361.746L363.998 409.449L276.01 396.897L276.719 391.922ZM360.653 403.896L371.535 405.448C372.986 405.655 374.008 405.537 374.6 405.092C375.207 404.544 375.606 403.597 375.798 402.25L389.105 308.976C389.312 307.525 389.193 306.503 388.749 305.911C388.304 305.319 387.357 304.92 385.906 304.713L375.024 303.16L375.734 298.186L433.563 306.436C442.165 307.663 449.709 311.118 456.195 316.802C462.695 322.382 467.427 329.613 470.389 338.496C473.471 347.289 474.257 356.972 472.749 367.543C471.241 378.114 467.749 387.397 462.273 395.393C456.9 403.403 450.239 409.326 442.29 413.163C434.444 417.013 426.272 418.333 417.773 417.12L359.944 408.871L360.653 403.896ZM415.84 411.769C422.473 412.715 428.291 411.218 433.294 407.279C438.416 403.251 441.605 396.833 442.862 388.024L449.515 341.387C450.772 332.578 449.497 325.575 445.691 320.379C442.004 315.095 436.844 311.979 430.211 311.033L416.375 309.059C415.028 308.867 414.006 308.986 413.311 309.415C412.719 309.86 412.319 310.807 412.112 312.258L398.806 405.532C398.614 406.879 398.732 407.901 399.162 408.596C399.71 409.203 400.657 409.603 402.005 409.795L415.84 411.769ZM529.21 435.873C524.65 435.222 520.653 433.964 517.218 432.1C513.768 430.339 510.991 428.303 508.889 425.994C506.756 423.892 505.216 422.457 504.269 421.687C503.336 420.814 502.403 420.31 501.47 420.177C499.294 419.867 497.695 421.437 496.674 424.886L495.187 429.75L490.368 429.063L496.443 379.805L501.418 380.515C501.745 388.598 503.124 396.356 505.553 403.788C508.086 411.234 511.485 417.429 515.75 422.373C520.118 427.332 525.153 430.218 530.853 431.031C539.04 432.199 544.895 431.184 548.418 427.985C551.941 424.787 554.028 420.907 554.678 416.347C555.063 413.653 554.418 411.129 552.745 408.775C551.19 406.332 548.769 403.661 545.481 400.759L515.274 374.561C510.847 370.757 507.256 366.279 504.501 361.127C501.85 355.991 500.983 350.209 501.899 343.784C503.333 333.731 507.3 326.683 513.798 322.64C520.415 318.508 528.025 317.056 536.627 318.283C543.985 319.333 550.973 322.973 557.592 329.205C559.71 331.41 561.442 332.609 562.79 332.801C564.655 333.068 565.965 332.038 566.72 329.714L568.251 325.65L573.226 326.359L569.015 367L564.04 366.29C563.091 358.858 561.269 351.989 558.573 345.683C555.877 339.376 552.434 334.232 548.243 330.25C544.171 326.18 539.648 323.79 534.673 323.08C529.18 322.297 524.932 322.801 521.927 324.593C519.025 326.4 517.264 329.479 516.643 333.832C515.8 339.739 519.562 346.356 527.928 353.683L558.269 380.06C562.119 383.464 564.94 387.779 566.732 393.005C568.628 398.245 569.199 403.509 568.445 408.794C567.677 414.183 565.649 419.128 562.363 423.63C559.078 428.131 554.622 431.567 548.997 433.937C543.371 436.307 536.776 436.952 529.21 435.873ZM582.104 435.487L594.541 437.261C595.992 437.468 597.013 437.35 597.605 436.905C598.212 436.358 598.612 435.41 598.804 434.063L611.888 342.344C612.125 340.685 611.791 339.316 610.888 338.235C609.985 337.155 608.652 336.489 606.89 336.237C602.019 335.543 597.179 337.601 592.368 342.414C587.572 347.123 583.679 352.912 580.69 359.782C579.003 363.454 577.708 366.601 576.806 369.221C576.022 371.753 575.533 373.323 575.341 373.93L570.366 373.22L578.219 327.071L671.492 340.378L666.127 386.881L661.153 386.171C661.138 385.535 661.056 383.884 660.908 381.219C660.877 378.465 660.566 375.09 659.973 371.093C659.024 363.661 656.905 357.014 653.618 351.152C650.345 345.186 646.273 341.856 641.402 341.161C639.64 340.909 638.174 341.176 637.005 341.961C635.835 342.746 635.132 343.967 634.896 345.626L621.811 437.345C621.619 438.692 621.738 439.714 622.167 440.409C622.715 441.016 623.663 441.416 625.01 441.608L637.447 443.382L636.737 448.357L581.395 440.462L582.104 435.487ZM636.814 443.292L642.099 444.046C645.208 444.489 648.125 443.689 650.849 441.646C653.587 439.498 655.829 436.752 657.576 433.405L704.06 342.168L710.589 343.1L729.508 448.426C730.516 453.963 733.197 457.041 737.549 457.662L743.768 458.549L743.058 463.524L688.493 455.74L689.203 450.765L700.395 452.362C701.639 452.54 702.69 452.214 703.549 451.384C704.526 450.466 705.11 449.334 705.302 447.986C705.465 446.846 705.368 445.299 705.013 443.345L702.167 427.712L669.521 423.054L664.904 432.072C663.35 434.811 662.403 437.372 662.063 439.756C661.797 441.621 662.286 443.383 663.53 445.041C664.892 446.61 666.765 447.565 669.149 447.905L676.455 448.947L675.745 453.922L636.104 448.266L636.814 443.292ZM672.363 417.591L701.122 421.694L693.074 376.925L672.363 417.591ZM771.609 385.591L770.987 385.502L762.538 444.731C761.858 449.498 763.117 453.643 766.315 457.166C769.618 460.704 774.119 462.879 779.819 463.692L779.109 468.667L733.716 462.191L734.426 457.217C740.126 458.03 745.004 457.192 749.06 454.704C753.22 452.231 755.639 448.611 756.319 443.844L765.789 377.464C765.952 376.324 765.966 375.48 765.833 374.932C765.7 374.384 765.344 373.541 764.766 372.401L759.879 362.186C759.064 360.484 758.072 359.285 756.902 358.589C755.747 357.79 753.978 357.22 751.594 356.88L748.796 356.481L749.506 351.507L784.017 356.43L823.628 434.57L830.747 384.668C831.427 379.901 830.116 375.749 826.814 372.211C823.615 368.688 819.166 366.52 813.466 365.707L814.176 360.732L859.569 367.208L858.859 372.182C853.159 371.369 848.229 372.199 844.069 374.672C840.013 377.161 837.645 380.788 836.965 385.556L823.792 477.896L817.885 477.054L771.609 385.591ZM835.11 471.58L845.992 473.132C847.443 473.339 848.465 473.221 849.057 472.776C849.664 472.229 850.063 471.281 850.255 469.934L863.561 376.66C863.768 375.209 863.65 374.188 863.205 373.595C862.761 373.003 861.814 372.604 860.363 372.397L849.481 370.844L850.19 365.87L908.02 374.12C916.622 375.347 924.166 378.802 930.651 384.486C937.152 390.066 941.883 397.297 944.846 406.18C947.927 414.973 948.714 424.656 947.206 435.227C945.698 445.798 942.206 455.081 936.73 463.077C931.357 471.087 924.696 477.011 916.746 480.847C908.901 484.697 900.728 486.017 892.23 484.804L834.401 476.555L835.11 471.58ZM890.297 479.453C896.93 480.399 902.748 478.903 907.751 474.963C912.873 470.935 916.062 464.517 917.319 455.708L923.972 409.071C925.229 400.262 923.954 393.259 920.148 388.063C916.461 382.779 911.3 379.663 904.668 378.717L890.832 376.743C889.485 376.551 888.463 376.67 887.768 377.099C887.175 377.544 886.776 378.491 886.569 379.942L873.263 473.216C873.071 474.563 873.189 475.585 873.619 476.28C874.167 476.887 875.114 477.287 876.462 477.479L890.297 479.453ZM924.292 484.302L929.578 485.056C932.687 485.5 935.603 484.7 938.327 482.656C941.065 480.509 943.308 477.762 945.054 474.416L991.538 383.179L998.068 384.11L1016.99 489.436C1017.99 494.973 1020.67 498.052 1025.03 498.673L1031.25 499.56L1030.54 504.535L975.971 496.751L976.681 491.776L987.874 493.373C989.117 493.55 990.168 493.224 991.027 492.395C992.004 491.477 992.589 490.344 992.781 488.997C992.943 487.857 992.847 486.31 992.491 484.356L989.645 468.722L957 464.065L952.382 473.082C950.828 475.821 949.881 478.383 949.541 480.766C949.275 482.632 949.764 484.394 951.008 486.051C952.37 487.621 954.243 488.575 956.627 488.915L963.934 489.957L963.224 494.932L923.583 489.277L924.292 484.302ZM959.841 458.601L988.601 462.704L980.553 417.936L959.841 458.601ZM1105.7 519.064C1099.06 518.117 1094.06 515.394 1090.68 510.894C1087.41 506.409 1086.32 500.332 1087.41 492.663L1090.16 473.386C1090.87 468.411 1090.23 464.037 1088.23 460.262C1086.33 456.502 1082.85 454.259 1077.77 453.535L1069.06 452.293L1062.23 500.174C1062.04 501.521 1062.16 502.542 1062.59 503.238C1063.14 503.845 1064.08 504.245 1065.43 504.437L1079.11 506.388L1078.4 511.363L1023.37 503.512L1024.08 498.538L1034.96 500.09C1036.41 500.297 1037.43 500.178 1038.03 499.734C1038.63 499.186 1039.03 498.239 1039.23 496.891L1052.53 403.618C1052.74 402.167 1052.62 401.145 1052.18 400.553C1051.73 399.961 1050.78 399.562 1049.33 399.355L1038.45 397.802L1039.16 392.828L1089.53 400.013C1100.72 401.61 1109.38 405.383 1115.51 411.334C1121.66 417.18 1124.13 424.301 1122.93 432.696C1121.91 439.847 1118.47 445.118 1112.59 448.509C1106.82 451.916 1099.55 453.523 1090.8 453.333L1090.65 454.421C1098.53 457.025 1104.33 460.814 1108.06 465.788C1111.81 470.658 1113.03 477.653 1111.73 486.773L1109.27 504.028C1108.65 508.381 1109.79 510.765 1112.69 511.179C1115.38 511.563 1117.67 509.616 1119.55 505.337C1121.43 501.058 1122.83 495.705 1123.75 489.28L1128.72 489.989C1127.29 500.042 1124.82 507.675 1121.33 512.887C1117.85 517.995 1112.64 520.054 1105.7 519.064ZM1080.19 448.804C1085.68 449.588 1089.8 448.114 1092.56 444.383C1095.31 440.651 1097.2 435.158 1098.24 427.904C1099.24 420.856 1098.91 415.416 1097.24 411.581C1095.56 407.747 1091.98 405.438 1086.49 404.655L1079.8 403.701C1078.45 403.509 1077.43 403.628 1076.74 404.057C1076.15 404.501 1075.75 405.449 1075.54 406.9L1069.77 447.319L1080.19 448.804ZM1137.33 514.693L1149.76 516.467C1151.21 516.674 1152.23 516.555 1152.83 516.111C1153.43 515.563 1153.83 514.616 1154.02 513.268L1167.11 421.549C1167.35 419.891 1167.01 418.522 1166.11 417.441C1165.21 416.36 1163.87 415.694 1162.11 415.443C1157.24 414.748 1152.4 416.807 1147.59 421.62C1142.79 426.329 1138.9 432.118 1135.91 438.988C1134.22 442.66 1132.93 445.806 1132.03 448.427C1131.24 450.959 1130.75 452.528 1130.56 453.135L1125.59 452.426L1133.44 406.277L1226.71 419.583L1221.35 466.086L1216.37 465.377C1216.36 464.74 1216.28 463.089 1216.13 460.425C1216.1 457.671 1215.79 454.295 1215.19 450.298C1214.24 442.866 1212.13 436.219 1208.84 430.357C1205.57 424.392 1201.49 421.061 1196.62 420.366C1194.86 420.115 1193.4 420.382 1192.23 421.167C1191.06 421.952 1190.35 423.173 1190.12 424.831L1177.03 516.55C1176.84 517.898 1176.96 518.919 1177.39 519.615C1177.94 520.222 1178.88 520.621 1180.23 520.814L1192.67 522.588L1191.96 527.562L1136.62 519.667L1137.33 514.693Z" fill="black"/>
<path d="M215.856 843.46L219.177 843.135C221.131 842.943 222.783 842.025 224.134 840.381C225.479 838.671 226.433 836.671 226.997 834.38L241.701 772.095L245.803 771.693L272.899 832.84C274.332 836.053 276.415 837.525 279.15 837.257L283.057 836.874L283.364 840L249.079 843.36L248.773 840.234L255.806 839.545C256.587 839.468 257.177 839.115 257.575 838.484C258.033 837.782 258.22 837.007 258.137 836.161C258.066 835.444 257.779 834.519 257.273 833.385L253.228 824.315L232.716 826.325L231.249 832.485C230.712 834.378 230.516 836.074 230.663 837.571C230.778 838.743 231.336 839.741 232.337 840.563C233.397 841.314 234.675 841.616 236.173 841.469L240.764 841.019L241.07 844.145L216.163 846.586L215.856 843.46ZM233.632 822.587L251.702 820.816L240.181 794.826L233.632 822.587ZM285.841 840.94C282.976 841.221 280.435 840.451 278.219 838.63C276.002 836.809 274.741 834.336 274.434 831.21C274.154 828.345 274.82 825.749 276.432 823.421C278.038 821.029 280.209 819.698 282.944 819.43C285.158 819.213 286.986 819.757 288.429 821.062C289.865 822.302 290.667 823.769 290.833 825.462C290.967 826.829 290.469 828.456 289.339 830.341C288.764 831.187 288.525 832.098 288.62 833.074C288.735 834.247 289.379 834.775 290.551 834.66C293.155 834.405 295.232 831.112 296.781 824.78C297.858 820.335 298.311 813.552 298.14 804.431C297.963 795.244 297.443 786.256 296.582 777.465C296.39 775.511 295.761 774.127 294.695 773.311C293.623 772.43 291.947 772.101 289.668 772.324L285.175 772.765L284.868 769.639L336.734 764.556L337.041 767.681L330.789 768.294C329.943 768.377 329.34 768.6 328.981 768.964C328.688 769.322 328.586 769.956 328.675 770.868L334.419 829.473C334.502 830.32 334.725 830.923 335.089 831.281C335.512 831.569 336.146 831.671 336.993 831.588L343.244 830.975L343.55 834.101L311.903 837.202L311.597 834.077L317.848 833.464C318.76 833.375 319.362 833.151 319.656 832.794C319.943 832.371 320.046 831.737 319.963 830.89L314.219 772.285C314.13 771.373 313.906 770.77 313.549 770.477C313.191 770.183 312.557 770.081 311.645 770.17L307.445 770.582C304.254 770.895 302.269 772.437 301.488 775.209C300.773 777.974 300.561 781.841 300.85 786.809C301.312 793.535 301.53 800.45 301.503 807.553C301.469 814.591 301.137 819.915 300.504 823.528C299.78 827.543 298.311 831.336 296.097 834.906C293.948 838.469 290.529 840.481 285.841 840.94ZM340.736 831.221L347.573 830.551C348.485 830.462 349.087 830.238 349.381 829.881C349.668 829.458 349.77 828.823 349.687 827.977L343.944 769.371C343.854 768.46 343.631 767.857 343.273 767.564C342.916 767.27 342.281 767.168 341.37 767.257L334.532 767.927L334.226 764.802L389.12 759.422L391.927 782.025L388.801 782.331C388.756 781.875 388.255 780.445 387.296 778.041C386.402 775.63 385.238 773.476 383.803 771.579C382.05 769.121 380.123 767.239 378.023 765.933C375.923 764.627 373.668 764.092 371.258 764.328L360.514 765.381C359.668 765.464 359.065 765.687 358.706 766.051C358.412 766.408 358.31 767.043 358.4 767.955L361.042 794.913L366.023 794.425C367.781 794.253 369.339 793.377 370.696 791.797C372.054 790.218 373.053 788.345 373.696 786.178C374.397 783.94 374.655 781.877 374.47 779.988L377.595 779.682L380.592 810.255L377.466 810.561C377.275 808.607 376.621 806.633 375.505 804.639C374.448 802.573 373.1 800.897 371.462 799.612C369.824 798.326 368.126 797.769 366.368 797.941L361.386 798.43L364.143 826.56C364.226 827.407 364.45 828.009 364.814 828.368C365.236 828.655 365.871 828.758 366.717 828.675L377.364 827.631C380.945 827.28 383.8 825.554 385.929 822.453C388.057 819.351 389.568 815.982 390.461 812.344C390.835 810.796 391.109 808.895 391.282 806.643C391.456 804.391 391.54 802.903 391.535 802.18L394.661 801.874L396.717 828.89L341.042 834.347L340.736 831.221ZM448.659 826.166C444.492 826.575 441.05 825.663 438.333 823.431C435.681 821.193 434.119 817.664 433.646 812.845L432.526 801.417C432.22 798.292 431.183 795.764 429.416 793.833C427.708 791.831 425.259 790.986 422.068 791.299L416.012 791.892L418.884 821.195C418.967 822.042 419.19 822.644 419.554 823.003C419.977 823.29 420.611 823.393 421.458 823.31L428.295 822.64L428.601 825.765L395.782 828.982L395.476 825.856L402.313 825.186C403.225 825.097 403.828 824.873 404.121 824.516C404.409 824.093 404.511 823.458 404.428 822.612L398.684 764.007C398.595 763.095 398.371 762.492 398.014 762.199C397.656 761.905 397.022 761.803 396.11 761.892L389.273 762.562L388.966 759.437L421.785 756.22L422.092 759.346L415.254 760.016C414.408 760.099 413.805 760.322 413.446 760.686C413.153 761.044 413.051 761.678 413.14 762.59L415.667 788.376L422.407 787.716C425.988 787.365 428.264 785.761 429.233 782.905C430.261 779.977 430.472 775.42 429.865 769.234C429.431 764.806 429.978 761.334 431.507 758.817C433.545 755.462 436.452 753.599 440.229 753.229C442.248 753.031 444.027 753.416 445.568 754.382C447.168 755.277 448.439 756.501 449.38 758.052C450.314 759.538 450.858 761.063 451.011 762.625C451.241 764.97 450.947 767.004 450.13 768.727C449.372 770.379 448.314 771.666 446.958 772.588C445.667 773.504 444.371 774.025 443.069 774.153C441.115 774.344 439.433 773.95 438.022 772.971C436.67 771.92 435.911 770.548 435.745 768.855C435.522 766.576 436.366 764.455 438.277 762.493C439.295 761.473 439.756 760.474 439.66 759.498C439.564 758.521 438.93 758.09 437.758 758.205C436.13 758.364 434.855 759.442 433.933 761.439C433.011 763.436 432.755 766.518 433.163 770.686L433.47 773.812C434.101 780.258 432.953 784.973 430.024 787.955L430.071 788.444C435.272 789.183 439.344 790.822 442.288 793.36C445.226 795.834 446.976 799.935 447.538 805.666L448.6 816.508C448.868 819.243 449.914 820.521 451.737 820.342C453.43 820.176 454.53 818.655 455.037 815.778C455.544 812.902 455.6 809.445 455.204 805.407L458.33 805.101C458.949 811.417 458.584 816.417 457.236 820.099C455.881 823.716 453.022 825.738 448.659 826.166ZM484.286 822.083C478.23 822.676 472.887 821.491 468.257 818.526C463.686 815.489 460.055 811.309 457.364 805.985C454.666 800.595 453.005 794.71 452.379 788.328C451.735 781.751 452.248 775.587 453.92 769.835C455.585 764.018 458.306 759.248 462.083 755.525C465.925 751.795 470.613 749.66 476.148 749.117C478.558 748.881 480.813 749.087 482.915 749.736C485.075 750.313 487.371 751.271 489.804 752.611C491.397 753.441 492.552 753.821 493.268 753.75C493.789 753.699 494.2 753.528 494.5 753.235C494.793 752.878 495.038 752.361 495.235 751.684L496.639 747.898L499.862 747.582L502.801 777.568L499.676 777.875C497.355 769.621 494.093 763.169 489.89 758.519C485.752 753.863 481.273 751.77 476.455 752.243C473.394 752.543 470.969 754.292 469.179 757.492C467.453 760.685 466.91 765.538 467.548 772.049L470.42 801.352C471.052 807.799 472.657 812.441 475.236 815.278C477.874 818.043 480.788 819.27 483.979 818.957C491.728 818.198 497.143 814.084 500.224 806.616C501.774 802.98 502.559 797.906 502.579 791.396L506.095 791.051C506.18 793.936 506.009 796.878 505.579 799.879C505.209 802.808 504.576 805.401 503.679 807.658C502.044 811.763 499.576 815.095 496.277 817.653C493.036 820.14 489.039 821.617 484.286 822.083ZM499.669 815.644L502.99 815.319C504.944 815.127 506.596 814.209 507.947 812.565C509.291 810.855 510.246 808.855 510.81 806.565L525.513 744.279L529.616 743.877L556.712 805.024C558.145 808.237 560.228 809.709 562.963 809.441L566.87 809.058L567.176 812.184L532.892 815.544L532.586 812.418L539.619 811.729C540.4 811.652 540.99 811.299 541.388 810.668C541.845 809.966 542.033 809.191 541.95 808.345C541.879 807.629 541.591 806.704 541.086 805.57L537.041 796.499L516.529 798.51L515.062 804.669C514.525 806.562 514.329 808.258 514.476 809.756C514.591 810.928 515.149 811.925 516.15 812.747C517.209 813.498 518.488 813.8 519.986 813.653L524.577 813.203L524.883 816.329L499.976 818.77L499.669 815.644ZM517.445 794.771L535.515 793L523.994 767.01L517.445 794.771ZM562.368 809.499L569.205 808.829C570.117 808.74 570.72 808.517 571.013 808.159C571.3 807.736 571.403 807.102 571.32 806.255L565.576 747.65C565.487 746.738 565.263 746.136 564.906 745.842C564.548 745.548 563.914 745.446 563.002 745.535L556.165 746.206L555.858 743.08L588.677 739.863L588.984 742.989L582.146 743.659C581.3 743.742 580.697 743.966 580.338 744.329C580.045 744.687 579.943 745.321 580.032 746.233L582.559 772.019L605.611 769.76L603.083 743.974C602.994 743.062 602.771 742.46 602.413 742.166C602.056 741.872 601.421 741.77 600.509 741.859L593.477 742.549L593.17 739.423L626.185 736.187L626.491 739.313L619.654 739.983C618.807 740.066 618.205 740.29 617.846 740.653C617.552 741.011 617.45 741.645 617.539 742.557L623.283 801.163C623.366 802.009 623.59 802.612 623.953 802.971C624.376 803.258 625.011 803.36 625.857 803.277L632.694 802.607L633.001 805.733L600.182 808.949L599.875 805.823L606.713 805.153C607.624 805.064 608.227 804.841 608.521 804.483C608.808 804.06 608.91 803.426 608.827 802.579L605.955 773.277L582.904 775.536L585.776 804.839C585.859 805.685 586.082 806.288 586.446 806.647C586.869 806.934 587.503 807.036 588.35 806.953L595.187 806.283L595.493 809.409L562.674 812.625L562.368 809.499ZM627.909 803.865L632.988 803.367C635.006 803.169 636.567 802.655 637.669 801.824C638.764 800.927 639.587 799.598 640.137 797.834C642.195 791.321 643.522 783.401 644.12 774.072C644.783 764.738 644.572 754.535 643.487 743.466C643.11 739.624 641.229 737.869 637.843 738.2L632.373 738.737L632.067 735.611L684.226 730.499L684.532 733.625L677.695 734.295C676.848 734.378 676.245 734.601 675.887 734.965C675.593 735.322 675.491 735.957 675.58 736.869L681.171 793.911C681.343 795.669 681.855 796.868 682.707 797.508C683.617 798.076 684.984 798.271 686.807 798.092L693.351 797.451L695.496 819.33L692.37 819.637C692.267 819.252 692.011 818.324 691.604 816.852C691.203 815.445 690.581 813.797 689.739 811.907C688.903 810.082 687.854 808.443 686.594 806.988C683.047 802.997 679.093 801.215 674.73 801.643L646.99 804.361C642.627 804.789 639.093 807.305 636.389 811.909C635.435 813.58 634.725 815.392 634.259 817.344C633.799 819.362 633.509 821.099 633.389 822.557C633.276 824.081 633.205 825.041 633.179 825.438L630.053 825.744L627.909 803.865ZM664.753 799.465C665.665 799.376 666.268 799.152 666.561 798.795C666.849 798.372 666.951 797.737 666.868 796.891L661.124 738.285C661.035 737.374 660.811 736.771 660.454 736.477C660.096 736.184 659.462 736.082 658.55 736.171L654.35 736.583C651.811 736.832 649.989 737.7 648.886 739.189C647.783 740.678 647.394 743.083 647.719 746.404C648.511 754.478 648.706 762.841 648.305 771.493C647.903 780.144 647.292 786.647 646.469 791.001C645.844 794.678 645.572 796.94 645.655 797.787C645.776 799.024 646.159 799.907 646.802 800.435C647.504 800.892 648.604 801.048 650.102 800.901L664.753 799.465ZM689.781 797.012L696.619 796.342C697.53 796.253 698.133 796.029 698.427 795.672C698.714 795.249 698.816 794.614 698.733 793.768L692.989 735.162C692.9 734.251 692.677 733.648 692.319 733.354C691.962 733.061 691.327 732.959 690.415 733.048L683.578 733.718L683.272 730.592L718.044 727.185C722.602 726.738 726.716 727.123 730.386 728.342C734.114 729.488 737.092 731.366 739.32 733.975C741.607 736.512 742.922 739.538 743.267 743.055C743.618 746.636 742.921 749.926 741.177 752.924C739.498 755.915 736.948 758.4 733.526 760.379C730.163 762.287 726.202 763.464 721.644 763.911L710.509 765.002L713.189 792.351C713.272 793.198 713.495 793.8 713.859 794.159C714.282 794.446 714.917 794.549 715.763 794.466L724.359 793.623L724.665 796.749L690.088 800.138L689.781 797.012ZM719.872 760.929C723.258 760.597 725.501 758.996 726.601 756.127C727.765 753.252 728.111 749.405 727.639 744.586C727.173 739.833 726.129 736.221 724.506 733.75C722.877 731.214 720.337 730.115 716.885 730.454L709.56 731.172C708.713 731.255 708.111 731.478 707.752 731.842C707.458 732.199 707.356 732.834 707.445 733.746L710.202 761.876L719.872 760.929ZM731.985 792.876L735.306 792.55C737.259 792.359 738.912 791.441 740.263 789.796C741.607 788.087 742.562 786.087 743.126 783.796L757.829 721.51L761.931 721.108L789.028 782.256C790.46 785.468 792.544 786.94 795.279 786.672L799.186 786.29L799.492 789.415L765.208 792.775L764.902 789.65L771.934 788.96C772.716 788.884 773.306 788.53 773.704 787.899C774.161 787.197 774.348 786.423 774.265 785.576C774.195 784.86 773.907 783.935 773.402 782.801L769.357 773.731L748.845 775.741L747.378 781.9C746.84 783.794 746.645 785.489 746.792 786.987C746.906 788.159 747.464 789.156 748.465 789.979C749.525 790.729 750.804 791.031 752.301 790.885L756.892 790.435L757.199 793.56L732.291 796.001L731.985 792.876ZM749.761 772.002L767.831 770.231L756.31 744.242L749.761 772.002ZM862.545 785.602C858.377 786.011 854.935 785.099 852.218 782.867C849.566 780.629 848.004 777.1 847.532 772.282L846.412 760.853C846.106 757.728 845.069 755.2 843.302 753.269C841.594 751.267 839.144 750.422 835.953 750.735L829.897 751.329L832.769 780.631C832.852 781.478 833.076 782.081 833.44 782.439C833.862 782.727 834.497 782.829 835.343 782.746L842.181 782.076L842.487 785.201L809.668 788.418L809.362 785.292L816.199 784.622C817.111 784.533 817.713 784.309 818.007 783.952C818.294 783.529 818.396 782.895 818.313 782.048L812.57 723.443C812.48 722.531 812.257 721.928 811.899 721.635C811.542 721.341 810.907 721.239 809.996 721.328L803.158 721.998L802.852 718.873L835.671 715.656L835.977 718.782L829.14 719.452C828.294 719.535 827.691 719.758 827.332 720.122C827.038 720.48 826.936 721.114 827.026 722.026L829.553 747.812L836.292 747.152C839.874 746.801 842.149 745.197 843.118 742.341C844.146 739.413 844.357 734.856 843.751 728.67C843.317 724.242 843.864 720.77 845.393 718.254C847.43 714.898 850.338 713.035 854.115 712.665C856.133 712.467 857.913 712.852 859.454 713.818C861.054 714.713 862.324 715.937 863.265 717.488C864.2 718.974 864.744 720.499 864.897 722.062C865.127 724.406 864.833 726.44 864.016 728.163C863.257 729.816 862.2 731.103 860.844 732.024C859.553 732.94 858.256 733.461 856.954 733.589C855.001 733.78 853.318 733.386 851.908 732.407C850.556 731.356 849.796 729.984 849.631 728.291C849.407 726.012 850.251 723.891 852.163 721.929C853.18 720.909 853.641 719.91 853.546 718.934C853.45 717.957 852.816 717.526 851.644 717.641C850.016 717.8 848.741 718.879 847.819 720.876C846.897 722.872 846.64 725.955 847.049 730.122L847.355 733.248C847.987 739.694 846.838 744.409 843.909 747.391L843.957 747.88C849.158 748.619 853.23 750.258 856.174 752.797C859.112 755.27 860.862 759.372 861.423 765.102L862.486 775.944C862.754 778.679 863.8 779.957 865.623 779.778C867.316 779.612 868.416 778.091 868.923 775.214C869.43 772.338 869.485 768.881 869.09 764.844L872.215 764.537C872.834 770.854 872.47 775.853 871.121 779.535C869.767 783.152 866.908 785.175 862.545 785.602ZM868.585 779.488L875.422 778.818C876.334 778.728 876.937 778.505 877.23 778.148C877.518 777.725 877.62 777.09 877.537 776.244L871.793 717.638C871.704 716.727 871.48 716.124 871.123 715.83C870.765 715.537 870.131 715.435 869.219 715.524L862.382 716.194L862.076 713.068L896.848 709.66C901.406 709.214 905.52 709.599 909.19 710.818C912.918 711.964 915.896 713.842 918.124 716.45C920.411 718.988 921.726 722.014 922.071 725.531C922.422 729.112 921.725 732.402 919.981 735.4C918.302 738.391 915.751 740.876 912.33 742.855C908.966 744.763 905.006 745.94 900.448 746.386L889.313 747.478L891.993 774.827C892.076 775.674 892.299 776.276 892.663 776.635C893.086 776.922 893.72 777.024 894.567 776.941L903.162 776.099L903.469 779.225L868.891 782.614L868.585 779.488ZM898.676 743.404C902.062 743.073 904.305 741.472 905.404 738.603C906.569 735.728 906.915 731.881 906.443 727.062C905.977 722.309 904.933 718.697 903.31 716.226C901.681 713.69 899.141 712.591 895.689 712.93L888.364 713.648C887.517 713.731 886.914 713.954 886.556 714.318C886.262 714.675 886.16 715.31 886.249 716.222L889.006 744.352L898.676 743.404ZM985.898 772.921C980.754 773.425 975.948 772.351 971.481 769.699C967.007 766.982 963.271 763.075 960.274 757.978C957.334 752.809 955.474 746.91 954.693 740.281L945.121 741.219L947.878 769.35C947.961 770.196 948.184 770.799 948.548 771.158C948.971 771.445 949.605 771.547 950.452 771.464L957.289 770.794L957.596 773.92L924.777 777.136L924.47 774.011L931.307 773.341C932.219 773.251 932.822 773.028 933.115 772.67C933.403 772.248 933.505 771.613 933.422 770.767L927.678 712.161C927.589 711.25 927.365 710.647 927.008 710.353C926.65 710.06 926.016 709.957 925.104 710.047L918.267 710.717L917.961 707.591L950.78 704.375L951.086 707.5L944.249 708.17C943.402 708.253 942.799 708.477 942.441 708.841C942.147 709.198 942.045 709.833 942.134 710.744L944.776 737.703L954.446 736.755C954.075 730.283 954.839 724.324 956.737 718.879C958.701 713.427 961.591 709.035 965.406 705.702C969.215 702.305 973.659 700.357 978.738 699.86C984.012 699.343 988.89 700.475 993.37 703.258C997.915 706.034 1001.67 710.103 1004.63 715.467C1007.58 720.766 1009.39 726.834 1010.06 733.672C1010.73 740.509 1010.13 746.846 1008.27 752.682C1006.41 758.453 1003.51 763.141 999.592 766.747C995.738 770.346 991.173 772.404 985.898 772.921ZM985.592 769.795C989.369 769.425 992.022 767.653 993.552 764.479C995.082 761.305 995.527 756.462 994.889 749.95L992.017 720.648C991.373 714.071 989.995 709.407 987.885 706.655C985.768 703.838 982.821 702.615 979.044 702.985C975.267 703.355 972.614 705.127 971.084 708.302C969.548 711.411 969.103 716.253 969.747 722.83L972.619 752.133C973.264 758.71 974.644 763.407 976.761 766.223C978.872 768.975 981.815 770.166 985.592 769.795ZM1064.54 765.805C1060.37 766.214 1056.93 765.302 1054.21 763.07C1051.56 760.832 1050 757.303 1049.53 752.485L1048.41 741.057C1048.1 737.931 1047.06 735.403 1045.3 733.472C1043.59 731.47 1041.14 730.625 1037.95 730.938L1031.89 731.532L1034.76 760.834C1034.85 761.681 1035.07 762.284 1035.43 762.642C1035.86 762.93 1036.49 763.032 1037.34 762.949L1044.17 762.279L1044.48 765.404L1011.66 768.621L1011.36 765.495L1018.19 764.825C1019.1 764.736 1019.71 764.512 1020 764.155C1020.29 763.732 1020.39 763.098 1020.31 762.251L1014.56 703.646C1014.47 702.734 1014.25 702.132 1013.89 701.838C1013.54 701.544 1012.9 701.442 1011.99 701.531L1005.15 702.201L1004.85 699.076L1037.67 695.859L1037.97 698.985L1031.13 699.655C1030.29 699.738 1029.69 699.961 1029.33 700.325C1029.03 700.683 1028.93 701.317 1029.02 702.229L1031.55 728.015L1038.29 727.355C1041.87 727.004 1044.14 725.4 1045.11 722.544C1046.14 719.616 1046.35 715.06 1045.75 708.873C1045.31 704.445 1045.86 700.973 1047.39 698.457C1049.42 695.101 1052.33 693.238 1056.11 692.868C1058.13 692.67 1059.91 693.055 1061.45 694.021C1063.05 694.917 1064.32 696.14 1065.26 697.691C1066.19 699.177 1066.74 700.702 1066.89 702.265C1067.12 704.609 1066.83 706.643 1066.01 708.366C1065.25 710.019 1064.19 711.306 1062.84 712.227C1061.55 713.143 1060.25 713.664 1058.95 713.792C1056.99 713.984 1055.31 713.59 1053.9 712.61C1052.55 711.559 1051.79 710.187 1051.62 708.494C1051.4 706.215 1052.25 704.095 1054.16 702.132C1055.17 701.112 1055.64 700.114 1055.54 699.137C1055.44 698.16 1054.81 697.729 1053.64 697.844C1052.01 698.004 1050.74 699.082 1049.81 701.079C1048.89 703.076 1048.63 706.158 1049.04 710.325L1049.35 713.451C1049.98 719.897 1048.83 724.612 1045.9 727.595L1045.95 728.083C1051.15 728.822 1055.22 730.461 1058.17 733C1061.11 735.473 1062.86 739.575 1063.42 745.305L1064.48 756.147C1064.75 758.882 1065.79 760.16 1067.62 759.981C1069.31 759.815 1070.41 758.294 1070.92 755.417C1071.42 752.541 1071.48 749.084 1071.08 745.047L1074.21 744.74C1074.83 751.057 1074.46 756.056 1073.12 759.738C1071.76 763.355 1068.9 765.378 1064.54 765.805ZM1100.75 761.665C1095.74 762.156 1090.81 760.896 1085.98 757.885C1081.22 754.868 1077.22 750.69 1074.01 745.352C1070.78 739.948 1068.87 734.154 1068.26 727.967C1067.65 721.781 1068.41 715.757 1070.53 709.896C1072.65 703.969 1075.75 699.063 1079.84 695.178C1083.99 691.286 1088.58 689.095 1093.59 688.603C1098.6 688.112 1103.49 689.375 1108.26 692.392C1113.09 695.403 1117.12 699.61 1120.35 705.013C1123.56 710.352 1125.48 716.114 1126.08 722.3C1126.69 728.486 1125.94 734.543 1123.82 740.47C1121.7 746.331 1118.56 751.208 1114.41 755.1C1110.32 758.985 1105.77 761.173 1100.75 761.665ZM1100.45 758.539C1104.42 758.15 1107.3 756.42 1109.11 753.351C1110.97 750.21 1111.57 745.286 1110.91 738.579L1108.04 709.276C1107.38 702.569 1105.84 697.888 1103.41 695.234C1101.04 692.508 1097.87 691.339 1093.9 691.729C1089.93 692.118 1087.01 693.883 1085.15 697.024C1083.34 700.093 1082.77 704.982 1083.43 711.689L1086.3 740.991C1086.96 747.698 1088.47 752.415 1090.84 755.141C1093.27 757.796 1096.47 758.928 1100.45 758.539ZM1127.42 754.12L1134.26 753.45C1135.17 753.361 1135.77 753.137 1136.06 752.78C1136.35 752.357 1136.45 751.723 1136.37 750.876L1130.63 692.271C1130.54 691.359 1130.31 690.757 1129.96 690.463C1129.6 690.169 1128.96 690.067 1128.05 690.156L1121.21 690.826L1120.91 687.701L1155.29 684.331C1159.13 683.955 1162.78 684.32 1166.25 685.427C1169.77 686.528 1172.67 688.249 1174.94 690.591C1177.2 692.867 1178.48 695.601 1178.8 698.792C1179.22 703.089 1177.96 706.73 1175.04 709.712C1172.11 712.695 1168.39 715.031 1163.89 716.721L1163.95 717.307C1166.99 717.47 1170.01 718.159 1173.02 719.376C1176.09 720.522 1178.69 722.206 1180.82 724.431C1182.94 726.655 1184.16 729.362 1184.47 732.553C1184.86 736.525 1184.16 740.046 1182.35 743.115C1180.55 746.185 1177.96 748.641 1174.59 750.483C1171.28 752.254 1167.54 753.343 1163.38 753.752L1127.72 757.246L1127.42 754.12ZM1156.63 716.15C1160.15 715.806 1162.41 714.336 1163.4 711.74C1164.39 709.079 1164.64 705.242 1164.15 700.228C1163.73 695.995 1162.66 692.78 1160.93 690.583C1159.2 688.32 1157.03 687.316 1154.42 687.572L1147.2 688.28C1146.35 688.363 1145.75 688.586 1145.39 688.95C1145.1 689.308 1144.99 689.942 1145.08 690.854L1147.65 717.031L1156.63 716.15ZM1160.04 750.923C1163.49 750.585 1165.95 749.193 1167.42 746.748C1168.95 744.232 1169.43 740.01 1168.84 734.085C1168.26 728.159 1166.98 724.143 1165 722.036C1163.08 719.858 1160.39 718.938 1156.94 719.276L1147.95 720.157L1150.83 749.459C1150.91 750.306 1151.13 750.909 1151.5 751.267C1151.92 751.555 1152.55 751.657 1153.4 751.574L1160.04 750.923ZM1177.63 749.199L1180.96 748.873C1182.91 748.682 1184.56 747.764 1185.91 746.119C1187.26 744.41 1188.21 742.41 1188.78 740.119L1203.48 677.833L1207.58 677.431L1234.68 738.579C1236.11 741.791 1238.19 743.264 1240.93 742.996L1244.84 742.613L1245.14 745.738L1210.86 749.098L1210.55 745.973L1217.58 745.283C1218.36 745.207 1218.95 744.853 1219.35 744.223C1219.81 743.52 1220 742.746 1219.91 741.899C1219.84 741.183 1219.56 740.258 1219.05 739.124L1215.01 730.054L1194.49 732.064L1193.03 738.223C1192.49 740.117 1192.29 741.812 1192.44 743.31C1192.56 744.482 1193.11 745.479 1194.11 746.302C1195.17 747.052 1196.45 747.354 1197.95 747.208L1202.54 746.758L1202.85 749.883L1177.94 752.324L1177.63 749.199ZM1195.41 728.326L1213.48 726.555L1201.96 700.565L1195.41 728.326Z" fill="black"/>
</g>
<defs>
<clipPath id="clip0_238_3">
<rect width="1440" height="1609" fill="white"/>
</clipPath>
</defs>
</svg>
