<svg width="1447" height="1527" viewBox="0 0 1447 1527" fill="none" xmlns="http://www.w3.org/2000/svg">
<g clip-path="url(#clip0_243_1603)">
<rect width="1272.73" height="1114.95" transform="matrix(0.999983 -0.0058044 0.00300446 0.999996 89.4531 184)" fill="white"/>
<path d="M1307.74 1519.95L1365.51 1291.77L92.7998 1299.15L151.935 1526.66L1307.74 1519.95Z" fill="white" stroke="black" stroke-width="4"/>
<path d="M1303.18 0.339284L1362.16 177.323L89.4546 184.711L147.373 7.04815L1303.18 0.339284Z" fill="white" stroke="black" stroke-width="4"/>
<path d="M2.99771 1182.98L92.8111 1301.59L89.4555 184.71L0.347766 300.979L2.99771 1182.98Z" fill="white" stroke="black" stroke-width="4"/>
<path d="M1454.61 1174.18L1365.51 1293.88L1362.15 176.616L1451.96 291.886L1454.61 1174.18Z" fill="white" stroke="black" stroke-width="4"/>
<path d="M682 552V1043" stroke="black" stroke-width="3"/>
<path d="M857 552V1043" stroke="black" stroke-width="3"/>
<path d="M1035 552V1043" stroke="black" stroke-width="3"/>
<path d="M1219 552V1043" stroke="black" stroke-width="3"/>
<path d="M1391 552V1043" stroke="black" stroke-width="3"/>
<path d="M508 875L1391 878" stroke="black" stroke-width="3"/>
<path d="M508 1040L1391 1043" stroke="black" stroke-width="3"/>
<path d="M508 549L1391 552" stroke="black" stroke-width="3"/>
<path d="M508 549L1391 552" stroke="black" stroke-width="3"/>
<path d="M508 713L1391 716" stroke="black" stroke-width="3"/>
<path d="M349 550V1041" stroke="black" stroke-width="3"/>
<path d="M524 550V1041" stroke="black" stroke-width="3"/>
<path d="M168 713L508 713" stroke="black" stroke-width="3"/>
<path d="M168 549V1040" stroke="black" stroke-width="3"/>
<path d="M168 874L508 875" stroke="black" stroke-width="3"/>
<path d="M168 1040L508 1040" stroke="black" stroke-width="3"/>
<path d="M168 550L508 549" stroke="black" stroke-width="3"/>
<path d="M1120.96 273.505L1122.01 275.545C1122.56 276.622 1123.13 277.813 1123.76 279.104C1128.17 288.196 1135.01 302.307 1152.42 317.548C1172.32 334.966 1206.08 353.898 1265.87 368.241C1401.38 400.747 1549.99 405.922 1585.95 406.609C1589.27 406.614 1591.62 406.637 1592.91 406.66C1593.52 406.67 1593.94 406.681 1594.08 406.694C1594.09 406.695 1594.12 406.698 1594.15 406.703C1594.16 406.705 1594.19 406.71 1594.23 406.719C1594.24 406.723 1594.35 406.747 1594.47 406.812C1594.52 406.838 1594.7 406.936 1594.84 407.151C1594.9 407.259 1594.98 407.518 1595 407.667C1594.99 407.819 1594.92 408.092 1594.86 408.208C1594.72 408.444 1594.52 408.55 1594.47 408.577C1594.39 408.617 1594.33 408.639 1594.3 408.648C1594.19 408.681 1594.1 408.689 1594.1 408.689C1594.04 408.696 1593.96 408.698 1593.92 408.699C1593.8 408.702 1593.62 408.703 1593.37 408.703C1592.2 408.703 1589.68 408.68 1585.93 408.609C1551.62 408.557 1414.47 410.49 1301.46 436.262C1234.02 451.64 1189.32 471.227 1161.36 489.695C1147.38 498.929 1137.61 507.87 1131.27 515.845C1124.91 523.837 1122.07 530.787 1121.8 536.051L1119.8 536.092C1118.82 525.531 1108.45 507.51 1079.83 488.611C1051.26 469.744 1004.66 450.109 931.584 436.269C806.466 412.572 711.962 407.526 666.057 408.033L666.057 408.033L1120.96 273.505ZM1120.96 273.505L1120.18 275.657C1114.99 289.846 1108.89 300.73 1101.26 309.577C1093.64 318.423 1084.46 325.272 1073.08 331.347C1056.06 340.424 1034.22 347.724 1005.39 357.364C995.502 360.669 984.794 364.248 973.177 368.269C939.664 379.866 884.152 388.464 826.315 394.585C768.515 400.703 708.493 404.337 666.006 406.033H666.006L666.006 406.033C658.243 406.12 651.855 406.364 646.931 406.705L647.03 408.702C652.866 408.528 659.236 408.305 666.057 408.033L1120.96 273.505ZM666.021 406.033C666.016 406.033 666.011 406.033 666.006 406.033L666.021 406.033Z" stroke="black" stroke-width="2"/>
<path d="M727.214 18.5451L726.171 16.5008L725.384 18.6571C722.672 26.0939 719.488 31.7758 715.524 36.3844C711.563 40.9911 706.787 44.5661 700.837 47.7463C691.927 52.5087 680.498 56.3373 665.351 61.4113C660.146 63.1548 654.503 65.0454 648.371 67.1714C630.805 73.2625 601.663 77.7892 571.247 81.0148C540.867 84.2364 509.318 86.1506 486.983 87.0444C482.897 87.09 479.53 87.219 476.931 87.3994L477.03 89.3966C480.099 89.3045 483.448 89.1874 487.034 89.044C511.142 88.7777 560.804 91.4337 626.566 103.914C664.952 111.199 689.397 121.528 704.353 131.424C719.357 141.352 724.665 150.74 725.161 156.092L727.156 156.051C727.29 153.413 728.725 149.844 732.034 145.673C735.33 141.519 740.429 136.84 747.75 131.995C762.392 122.304 785.842 112.001 821.266 103.906C880.634 90.3405 952.709 89.3201 970.752 89.3473C972.72 89.3849 974.051 89.397 974.668 89.397C974.8 89.397 974.901 89.3964 974.967 89.3949C974.974 89.3947 974.992 89.3944 975.016 89.3934C975.042 89.3923 975.075 89.3903 975.107 89.3867C975.119 89.3853 975.139 89.3829 975.163 89.3788C975.181 89.3758 975.233 89.3668 975.298 89.3466C975.329 89.337 975.394 89.3153 975.47 89.2748C975.52 89.2481 975.716 89.1423 975.858 88.9059C975.918 88.7894 975.992 88.517 976 88.3651C975.985 88.217 975.901 87.9583 975.841 87.8503C975.703 87.6358 975.522 87.5373 975.475 87.5115C975.358 87.4484 975.253 87.4238 975.233 87.4191L975.232 87.4187C975.195 87.41 975.166 87.4051 975.151 87.4028C975.121 87.3981 975.096 87.3956 975.085 87.3945C974.991 87.3856 974.744 87.3798 974.434 87.3743C973.756 87.3625 972.516 87.35 970.772 87.3473C951.86 86.9852 873.758 84.2583 802.558 67.1439C771.165 59.5981 753.488 49.65 743.099 40.5369C734.019 32.5721 730.458 25.2153 728.142 20.4295C727.811 19.7472 727.507 19.1172 727.214 18.5451Z" stroke="black" stroke-width="2"/>
</g>
<defs>
<clipPath id="clip0_243_1603">
<rect width="1447" height="1527" fill="white"/>
</clipPath>
</defs>
</svg>
