<svg width="1443" height="677" viewBox="0 0 1443 677" fill="none" xmlns="http://www.w3.org/2000/svg">
<g clip-path="url(#clip0_240_1376)">
<rect width="1443" height="677" fill="black"/>
<rect x="100.548" y="208.294" width="333" height="293" transform="rotate(-12.1997 100.548 208.294)" fill="white" stroke="black" stroke-width="2"/>
<rect x="88.72" y="153.558" width="333" height="54" transform="rotate(-12.1997 88.72 153.558)" fill="white" stroke="black" stroke-width="2"/>
<rect x="88.72" y="153.558" width="333" height="57" transform="rotate(-12.1997 88.72 153.558)" fill="white" stroke="black" stroke-width="2"/>
<rect x="488.796" y="125.378" width="292" height="64" transform="rotate(77.8003 488.796 125.378)" fill="white" stroke="black" stroke-width="2"/>
<rect x="100.765" y="209.27" width="292" height="63" transform="rotate(77.8003 100.765 209.27)" fill="white" stroke="black" stroke-width="2"/>
<rect x="509.798" y="170.547" width="333" height="293" transform="rotate(8.30643 509.798 170.547)" fill="white" stroke="black" stroke-width="2"/>
<rect x="517.884" y="115.134" width="333" height="54" transform="rotate(8.30643 517.884 115.134)" fill="white" stroke="black" stroke-width="2"/>
<rect x="161.228" y="494.706" width="333" height="57" transform="rotate(-15.2302 161.228 494.706)" fill="white" stroke="black" stroke-width="2"/>
<path d="M233.371 515.721L235.58 515.12C235.874 515.04 236.059 514.933 236.136 514.799C236.207 514.644 236.205 514.43 236.131 514.157L230.977 495.23C230.897 494.935 230.79 494.75 230.656 494.673C230.523 494.597 230.309 494.599 230.014 494.679L227.806 495.28L227.531 494.271L239.266 491.076C241.011 490.6 242.739 490.638 244.447 491.19C246.15 491.72 247.651 492.712 248.951 494.165C250.265 495.592 251.214 497.378 251.798 499.523C252.382 501.668 252.481 503.73 252.094 505.711C251.728 507.685 250.944 509.367 249.741 510.756C248.559 512.14 247.105 513.066 245.381 513.536L233.646 516.73L233.371 515.721ZM244.57 512.672C245.916 512.306 246.904 511.54 247.536 510.374C248.182 509.181 248.262 507.691 247.776 505.904L245.199 496.44C244.712 494.653 243.891 493.419 242.735 492.74C241.594 492.034 240.35 491.865 239.005 492.231L236.197 492.995C235.924 493.07 235.738 493.177 235.641 493.316C235.564 493.45 235.566 493.664 235.646 493.959L240.799 512.886C240.874 513.159 240.981 513.344 241.12 513.442C241.275 513.513 241.489 513.511 241.762 513.437L244.57 512.672Z" fill="black"/>
<path d="M215.387 520.617L217.595 520.015C217.869 519.941 218.041 519.826 218.111 519.671C218.198 519.49 218.2 519.252 218.12 518.958L212.993 500.125C212.913 499.831 212.806 499.645 212.672 499.569C212.538 499.492 212.324 499.494 212.03 499.574L209.822 500.175L209.547 499.166L220.146 496.28L220.421 497.29L218.213 497.891C217.939 497.965 217.754 498.072 217.656 498.212C217.58 498.346 217.582 498.56 217.662 498.854L222.789 517.686C222.869 517.981 222.982 518.187 223.127 518.306C223.288 518.398 223.505 518.406 223.778 518.332L226.964 517.465C228.1 517.155 228.907 516.303 229.385 514.908C229.885 513.507 230.157 512.1 230.201 510.688C230.217 510.164 230.211 509.521 230.185 508.761C230.159 508 230.135 507.498 230.114 507.255L231.123 506.98L233.516 516.765L215.662 521.626L215.387 520.617Z" fill="black"/>
<path d="M206.105 524.838C204.486 525.278 202.799 525.139 201.044 524.42C199.311 523.694 197.767 522.545 196.412 520.971C195.052 519.376 194.1 517.58 193.556 515.582C193.012 513.584 192.925 511.564 193.295 509.52C193.659 507.456 194.404 505.672 195.531 504.168C196.678 502.658 198.062 501.683 199.681 501.242C201.3 500.801 202.977 500.943 204.71 501.669C206.465 502.388 208.022 503.545 209.383 505.14C210.737 506.714 211.686 508.5 212.23 510.498C212.774 512.495 212.864 514.527 212.5 516.591C212.13 518.634 211.372 520.411 210.224 521.92C209.097 523.424 207.724 524.397 206.105 524.838ZM205.83 523.828C207.113 523.479 207.965 522.75 208.386 521.641C208.822 520.506 208.746 518.855 208.156 516.689L205.58 507.226C204.99 505.06 204.222 503.609 203.276 502.872C202.345 502.109 201.239 501.902 199.956 502.251C198.673 502.601 197.813 503.343 197.377 504.478C196.956 505.587 197.04 507.224 197.63 509.39L200.207 518.854C200.796 521.02 201.557 522.484 202.487 523.247C203.433 523.984 204.548 524.177 205.83 523.828Z" fill="black"/>
<path d="M176.848 531.11L179.056 530.509C179.35 530.428 179.536 530.321 179.613 530.188C179.683 530.033 179.681 529.819 179.607 529.545L174.454 510.618C174.374 510.324 174.267 510.138 174.133 510.062C173.999 509.985 173.785 509.987 173.491 510.067L171.283 510.669L171.008 509.659L182.112 506.636C183.352 506.298 184.572 506.215 185.77 506.385C186.99 506.55 188.037 506.954 188.913 507.597C189.782 508.218 190.357 509.044 190.638 510.075C191.016 511.463 190.807 512.728 190.011 513.871C189.215 515.014 188.125 515.988 186.741 516.794L186.792 516.984C187.8 516.867 188.832 516.925 189.889 517.157C190.961 517.362 191.908 517.771 192.73 518.383C193.552 518.995 194.103 519.816 194.384 520.846C194.733 522.129 194.697 523.325 194.276 524.433C193.855 525.542 193.142 526.493 192.138 527.286C191.15 528.052 189.983 528.618 188.637 528.984L177.123 532.119L176.848 531.11ZM184.326 517.011C185.462 516.702 186.121 516.093 186.303 515.186C186.479 514.257 186.347 512.982 185.906 511.363C185.534 509.996 185.003 509 184.313 508.375C183.617 507.728 182.849 507.52 182.008 507.749L179.674 508.384C179.4 508.459 179.215 508.566 179.117 508.705C179.041 508.839 179.042 509.053 179.123 509.347L181.424 517.801L184.326 517.011ZM187.384 528.241C188.499 527.938 189.229 527.344 189.575 526.459C189.937 525.547 189.857 524.134 189.336 522.221C188.815 520.307 188.171 519.059 187.403 518.478C186.65 517.87 185.716 517.717 184.601 518.021L181.699 518.811L184.276 528.274C184.35 528.548 184.457 528.733 184.597 528.831C184.751 528.901 184.965 528.9 185.239 528.825L187.384 528.241Z" fill="black"/>
<rect x="517.884" y="115.134" width="333" height="57" transform="rotate(8.30643 517.884 115.134)" fill="white" stroke="black" stroke-width="2"/>
<rect x="466.862" y="461.67" width="333" height="57" transform="rotate(8.25168 466.862 461.67)" fill="white" stroke="black" stroke-width="2"/>
<rect x="902.483" y="228.889" width="292" height="64" transform="rotate(98.3064 902.483 228.889)" fill="white" stroke="black" stroke-width="2"/>
<rect x="509.655" y="171.536" width="292" height="63" transform="rotate(98.3064 509.655 171.536)" fill="white" stroke="black" stroke-width="2"/>
<rect x="509.798" y="170.547" width="333" height="293" transform="rotate(8.30643 509.798 170.547)" fill="white" stroke="black" stroke-width="2"/>
<rect x="517.884" y="115.134" width="333" height="57" transform="rotate(8.30643 517.884 115.134)" fill="white" stroke="black" stroke-width="2"/>
<rect x="902.483" y="228.889" width="292" height="64" transform="rotate(98.3064 902.483 228.889)" fill="white" stroke="black" stroke-width="2"/>
<rect x="509.655" y="171.536" width="292" height="63" transform="rotate(98.3064 509.655 171.536)" fill="white" stroke="black" stroke-width="2"/>
<rect x="1.0117" y="0.986936" width="333.109" height="59.9684" transform="matrix(0.999916 -0.0129948 0.0117872 0.999931 987.176 464.368)" fill="white" stroke="black" stroke-width="2"/>
<path d="M162.772 460.56L174.403 458.045C181.245 456.566 186.722 452.637 190.833 446.257C194.895 439.649 197.456 432.173 198.517 423.827L225.064 197.148L239.432 194.041L360.494 399.549C366.886 410.342 374.871 414.703 384.45 412.633L398.134 409.674L400.501 420.621L280.425 446.582L278.058 435.635L302.689 430.309C305.426 429.718 307.371 428.223 308.523 425.825C309.855 423.15 310.2 420.33 309.559 417.365C309.017 414.857 307.617 411.698 305.361 407.888L287.314 377.414L215.474 392.946L212.802 415.367C211.673 422.295 211.676 428.382 212.811 433.627C213.698 437.733 216.083 441.036 219.967 443.539C224.029 445.764 228.682 446.31 233.928 445.176L250.006 441.7L252.373 452.647L165.139 471.507L162.772 460.56ZM217.185 379.327L280.472 365.644L229.002 278.298L217.185 379.327Z" fill="black"/>
<path d="M516.6 436.115L529.414 437.986C543.036 439.975 554.195 432.997 562.89 417.052L668.042 217.702L676.7 218.966L719.695 450.203C721.161 456.313 723.342 460.758 726.237 463.538C729.166 466.088 733.171 467.734 738.25 468.476L757.645 471.307L756.027 482.39L648.665 466.715L650.283 455.632L673.141 458.97C676.604 459.475 679.608 459.089 682.153 457.809C684.731 456.299 686.189 454.39 686.526 452.081C686.964 449.08 686.873 446.472 686.253 444.26L676.701 395.821L595.66 383.99L583.96 405.98C579.379 414.744 576.786 421.203 576.179 425.359C575.437 430.439 576.05 435.126 578.017 439.422C580.017 443.487 584.134 445.975 590.368 446.885L611.494 449.969L609.876 461.052L514.982 447.197L516.6 436.115ZM601.087 373.463L674.509 384.183L653.913 273.294L601.087 373.463Z" fill="black"/>
<path d="M485.466 504.569C484.085 504.369 483.045 503.8 482.344 502.861C481.665 501.926 481.441 500.66 481.672 499.064L482.254 495.052C482.404 494.017 482.272 493.106 481.858 492.319C481.465 491.535 480.74 491.066 479.683 490.913L477.871 490.65L476.426 500.616C476.385 500.896 476.41 501.109 476.499 501.254C476.612 501.38 476.81 501.464 477.09 501.505L479.937 501.918L479.787 502.953L468.333 501.292L468.484 500.257L470.748 500.585C471.05 500.629 471.263 500.605 471.387 500.512C471.513 500.399 471.597 500.202 471.638 499.921L474.453 480.508C474.497 480.206 474.472 479.994 474.38 479.87C474.288 479.747 474.091 479.663 473.789 479.619L471.524 479.291L471.674 478.255L482.157 479.776C484.487 480.114 486.288 480.903 487.562 482.145C488.838 483.365 489.35 484.849 489.096 486.596C488.881 488.085 488.16 489.18 486.935 489.884C485.731 490.59 484.219 490.921 482.397 490.877L482.364 491.104C484.003 491.65 485.21 492.441 485.984 493.479C486.762 494.494 487.013 495.951 486.738 497.85L486.217 501.441C486.086 502.347 486.322 502.844 486.926 502.931C487.487 503.012 487.964 502.608 488.357 501.718C488.75 500.828 489.044 499.715 489.238 498.377L490.273 498.527C489.97 500.62 489.453 502.208 488.724 503.291C487.997 504.353 486.911 504.779 485.466 504.569ZM480.189 489.929C481.332 490.095 482.191 489.79 482.766 489.015C483.341 488.239 483.738 487.097 483.957 485.587C484.17 484.12 484.103 482.987 483.756 482.188C483.41 481.389 482.665 480.906 481.522 480.741L480.13 480.539C479.85 480.498 479.637 480.522 479.492 480.612C479.369 480.704 479.285 480.901 479.241 481.203L478.021 489.615L480.189 489.929ZM488.882 503.215L491.147 503.543C491.449 503.587 491.662 503.563 491.785 503.471C491.912 503.357 491.995 503.16 492.036 502.879L494.851 483.467C494.895 483.165 494.871 482.952 494.779 482.828C494.687 482.705 494.49 482.621 494.188 482.578L491.923 482.249L492.073 481.214L510.256 483.851L509.362 491.385L508.326 491.235C508.348 491.084 508.3 490.581 508.182 489.727C508.085 488.876 507.88 488.087 507.567 487.359C507.196 486.424 506.723 485.662 506.148 485.072C505.573 484.482 504.886 484.129 504.088 484.013L500.529 483.497C500.249 483.457 500.036 483.481 499.891 483.57C499.767 483.662 499.684 483.859 499.64 484.161L498.345 493.091L499.995 493.33C500.577 493.415 501.151 493.256 501.716 492.853C502.281 492.45 502.754 491.924 503.134 491.275C503.539 490.607 503.787 489.96 503.878 489.335L504.913 489.485L503.445 499.612L502.409 499.462C502.503 498.814 502.449 498.124 502.247 497.39C502.07 496.637 501.768 495.988 501.341 495.441C500.913 494.895 500.408 494.579 499.826 494.495L498.176 494.256L496.825 503.574C496.784 503.854 496.808 504.067 496.897 504.212C497.011 504.339 497.208 504.422 497.489 504.463L501.015 504.974C502.202 505.146 503.263 504.816 504.198 503.983C505.134 503.149 505.891 502.18 506.47 501.075C506.714 500.603 506.955 500.011 507.19 499.296C507.426 498.581 507.572 498.107 507.628 497.873L508.663 498.023L507.174 506.925L488.732 504.25L488.882 503.215ZM517.069 508.954C515.235 508.688 513.708 507.905 512.487 506.605C511.288 505.308 510.455 503.69 509.987 501.75C509.523 499.788 509.449 497.718 509.764 495.54C510.077 493.383 510.778 491.436 511.867 489.7C512.955 487.964 514.313 486.652 515.939 485.765C517.565 484.878 519.306 484.569 521.161 484.838C522.089 484.972 522.866 485.228 523.494 485.605C524.147 485.964 524.824 486.459 525.525 487.089C525.975 487.485 526.318 487.7 526.555 487.734C526.836 487.775 527.103 487.604 527.356 487.223L528.08 486.105L529.147 486.26L527.796 495.578L526.793 495.433C526.435 492.584 525.77 490.34 524.796 488.701C523.847 487.044 522.585 486.101 521.011 485.873C519.695 485.682 518.6 486.019 517.726 486.883C516.877 487.729 516.291 489.263 515.969 491.484L514.561 501.191C513.96 505.332 514.846 507.575 517.219 507.919C518.341 508.082 519.326 507.74 520.176 506.894C521.025 506.048 521.542 504.989 521.727 503.717L522.369 499.284C522.413 498.982 522.389 498.769 522.297 498.646C522.205 498.522 522.008 498.439 521.706 498.395L518.858 497.982L519.009 496.947L529.75 498.504L529.6 499.54L528.047 499.315C527.767 499.274 527.554 499.298 527.409 499.387C527.285 499.479 527.202 499.676 527.158 499.978L525.699 510.041L524.663 509.891L524.314 506.834C524.28 506.609 524.21 506.411 524.102 506.241C523.998 506.05 523.849 505.94 523.655 505.912C523.266 505.856 522.899 506.034 522.553 506.446C521.895 507.188 521.086 507.83 520.126 508.374C519.167 508.917 518.147 509.111 517.069 508.954ZM539.352 512.186C537.411 511.904 535.859 511.294 534.696 510.354C533.536 509.393 532.743 508.254 532.317 506.937C531.916 505.602 531.824 504.19 532.04 502.702L534.006 489.145C534.049 488.843 534.025 488.63 533.933 488.507C533.841 488.383 533.644 488.3 533.342 488.256L531.271 487.955L531.421 486.92L541.904 488.44L541.754 489.476L539.683 489.175C539.403 489.135 539.19 489.159 539.045 489.248C538.922 489.34 538.838 489.537 538.794 489.839L536.645 504.658C536.357 506.642 536.525 508.142 537.149 509.158C537.772 510.173 538.871 510.795 540.446 511.023C541.503 511.176 542.49 511.055 543.406 510.66C544.322 510.264 545.08 509.669 545.68 508.875C546.279 508.081 546.654 507.166 546.805 506.131L548.644 493.448C548.785 492.477 548.555 491.706 547.955 491.135C547.38 490.545 546.629 490.183 545.701 490.048L545.851 489.013L553.875 490.176L553.725 491.212C552.798 491.077 551.964 491.21 551.223 491.609C550.507 491.989 550.079 492.665 549.938 493.636L548.146 505.995C547.949 507.354 547.456 508.549 546.668 509.58C545.904 510.592 544.882 511.336 543.602 511.811C542.344 512.289 540.927 512.414 539.352 512.186ZM550.489 512.149L552.754 512.478C553.034 512.518 553.238 512.482 553.364 512.368C553.515 512.236 553.613 512.019 553.657 511.717L556.458 492.401C556.502 492.099 556.478 491.886 556.385 491.763C556.293 491.639 556.096 491.556 555.794 491.512L553.529 491.183L553.679 490.148L564.551 491.725L564.4 492.76L562.136 492.432C561.855 492.391 561.643 492.415 561.497 492.504C561.374 492.596 561.29 492.793 561.247 493.095L558.445 512.411C558.402 512.713 558.423 512.947 558.509 513.114C558.619 513.262 558.815 513.357 559.095 513.397L562.363 513.871C563.528 514.04 564.608 513.58 565.602 512.491C566.619 511.405 567.429 510.223 568.033 508.945C568.256 508.471 568.506 507.88 568.785 507.172C569.064 506.463 569.243 505.994 569.32 505.763L570.355 505.913L568.651 515.84L550.339 513.185L550.489 512.149ZM568.346 514.739L569.446 514.899C570.093 514.992 570.701 514.827 571.269 514.403C571.84 513.957 572.308 513.387 572.673 512.691L582.395 493.718L583.754 493.915L587.642 515.853C587.849 517.006 588.406 517.648 589.312 517.78L590.606 517.967L590.456 519.003L579.099 517.356L579.25 516.32L581.579 516.658C581.838 516.696 582.057 516.628 582.236 516.456C582.44 516.265 582.562 516.03 582.603 515.749C582.637 515.512 582.618 515.19 582.545 514.783L581.96 511.527L575.165 510.541L574.2 512.417C573.875 512.986 573.676 513.519 573.605 514.015C573.548 514.403 573.649 514.77 573.907 515.116C574.19 515.443 574.58 515.643 575.076 515.715L576.597 515.935L576.446 516.971L568.196 515.774L568.346 514.739ZM575.76 509.405L581.745 510.273L580.091 500.949L575.76 509.405ZM607.068 522.204C605.687 522.004 604.647 521.435 603.946 520.496C603.267 519.561 603.043 518.295 603.274 516.699L603.856 512.687C604.006 511.652 603.874 510.741 603.46 509.954C603.067 509.17 602.342 508.701 601.285 508.548L599.473 508.285L598.028 518.251C597.987 518.531 598.011 518.744 598.1 518.889C598.214 519.015 598.411 519.099 598.692 519.14L601.539 519.553L601.389 520.588L589.935 518.927L590.085 517.892L592.35 518.22C592.652 518.264 592.865 518.24 592.988 518.148C593.115 518.034 593.199 517.837 593.239 517.556L596.055 498.143C596.098 497.841 596.074 497.629 595.982 497.505C595.89 497.382 595.693 497.298 595.391 497.254L593.126 496.926L593.276 495.89L603.759 497.411C606.088 497.749 607.89 498.538 609.163 499.78C610.44 501 610.952 502.484 610.698 504.231C610.482 505.72 609.762 506.815 608.537 507.519C607.333 508.225 605.821 508.556 603.999 508.512L603.966 508.739C605.605 509.285 606.811 510.076 607.586 511.114C608.364 512.129 608.615 513.586 608.339 515.485L607.819 519.076C607.687 519.982 607.924 520.479 608.528 520.566C609.088 520.648 609.565 520.243 609.959 519.353C610.352 518.463 610.646 517.35 610.84 516.012L611.875 516.162C611.572 518.255 611.055 519.843 610.325 520.926C609.599 521.988 608.513 522.414 607.068 522.204ZM601.791 507.564C602.934 507.73 603.793 507.425 604.368 506.65C604.943 505.874 605.34 504.732 605.559 503.222C605.772 501.755 605.705 500.622 605.358 499.823C605.012 499.024 604.267 498.542 603.123 498.376L601.732 498.174C601.452 498.133 601.239 498.158 601.094 498.247C600.971 498.339 600.887 498.536 600.843 498.838L599.623 507.25L601.791 507.564Z" fill="black"/>
<path d="M995.026 497.991L997.314 497.985C997.619 497.984 997.826 497.929 997.935 497.82C998.044 497.689 998.098 497.482 998.097 497.199L998.053 477.583C998.053 477.278 997.998 477.071 997.888 476.962C997.779 476.853 997.572 476.799 997.267 476.8L994.978 476.805L994.976 475.759L1005.96 475.733L1005.96 476.779L1003.67 476.785C1003.39 476.786 1003.18 476.841 1003.05 476.95C1002.95 477.059 1002.89 477.266 1002.89 477.571L1002.94 497.187C1002.94 497.471 1002.99 497.677 1003.1 497.808C1003.23 497.917 1003.44 497.971 1003.72 497.97L1006.01 497.965L1006.01 499.011L995.028 499.037L995.026 497.991ZM1010.34 497.954L1012.96 497.948C1013.26 497.947 1013.47 497.893 1013.58 497.783C1013.68 497.652 1013.74 497.445 1013.74 497.162L1013.7 477.873C1013.69 477.524 1013.59 477.252 1013.37 477.056C1013.15 476.861 1012.85 476.763 1012.48 476.764C1011.46 476.767 1010.52 477.335 1009.68 478.471C1008.83 479.584 1008.2 480.894 1007.79 482.398C1007.55 483.205 1007.38 483.892 1007.27 484.459C1007.18 485.004 1007.13 485.342 1007.11 485.473L1006.06 485.476L1006.3 475.733L1025.92 475.686L1026.2 485.428L1025.15 485.431C1025.13 485.3 1025.07 484.962 1024.96 484.418C1024.87 483.851 1024.7 483.165 1024.46 482.359C1024.04 480.856 1023.41 479.55 1022.56 478.44C1021.7 477.309 1020.77 476.745 1019.74 476.747C1019.37 476.748 1019.08 476.847 1018.86 477.043C1018.64 477.24 1018.53 477.513 1018.53 477.861L1018.58 497.15C1018.58 497.434 1018.63 497.641 1018.74 497.771C1018.87 497.88 1019.08 497.934 1019.36 497.933L1021.98 497.927L1021.98 498.973L1010.34 499.001L1010.34 497.954ZM1022.83 497.925L1023.94 497.922C1024.59 497.921 1025.17 497.669 1025.67 497.166C1026.17 496.642 1026.55 496.009 1026.81 495.267L1033.66 475.079L1035.04 475.076L1042.08 496.212C1042.45 497.323 1043.1 497.877 1044.01 497.875L1045.32 497.872L1045.32 498.918L1033.85 498.945L1033.84 497.899L1036.2 497.893C1036.46 497.893 1036.67 497.794 1036.82 497.598C1036.99 497.379 1037.08 497.128 1037.08 496.845C1037.08 496.605 1037.01 496.29 1036.88 495.897L1035.83 492.761L1028.96 492.778L1028.28 494.774C1028.04 495.384 1027.92 495.94 1027.92 496.442C1027.92 496.834 1028.08 497.182 1028.38 497.487C1028.71 497.769 1029.13 497.91 1029.63 497.909L1031.16 497.905L1031.17 498.951L1022.83 498.971L1022.83 497.925ZM1029.38 491.567L1035.43 491.553L1032.44 482.569L1029.38 491.567ZM1044.79 497.873L1047.08 497.868C1047.36 497.867 1047.56 497.801 1047.67 497.67C1047.8 497.517 1047.86 497.288 1047.86 496.983L1047.82 477.465C1047.82 477.16 1047.77 476.953 1047.66 476.845C1047.55 476.736 1047.34 476.682 1047.03 476.683L1044.75 476.688L1044.74 475.642L1055.73 475.616L1055.73 476.662L1053.44 476.667C1053.16 476.668 1052.95 476.723 1052.82 476.832C1052.71 476.942 1052.66 477.149 1052.66 477.454L1052.7 496.972C1052.7 497.277 1052.76 497.506 1052.87 497.658C1053 497.788 1053.21 497.853 1053.49 497.853L1056.79 497.845C1057.97 497.842 1058.97 497.229 1059.8 496.007C1060.64 494.784 1061.27 493.497 1061.68 492.145C1061.83 491.643 1062 491.021 1062.17 490.28C1062.34 489.539 1062.45 489.048 1062.49 488.808L1063.54 488.806L1063.3 498.876L1044.8 498.919L1044.79 497.873ZM1063.43 497.829L1065.71 497.824C1066 497.823 1066.19 497.757 1066.3 497.626C1066.43 497.473 1066.5 497.244 1066.5 496.939L1066.45 477.421C1066.45 477.116 1066.4 476.909 1066.29 476.801C1066.18 476.692 1065.97 476.638 1065.67 476.639L1063.38 476.644L1063.38 475.598L1074.36 475.572L1074.36 476.618L1072.07 476.624C1071.79 476.624 1071.58 476.679 1071.45 476.788C1071.35 476.898 1071.29 477.105 1071.29 477.41L1071.34 496.928C1071.34 497.233 1071.39 497.462 1071.5 497.614C1071.63 497.744 1071.84 497.809 1072.12 497.809L1075.42 497.801C1076.6 497.798 1077.6 497.185 1078.43 495.963C1079.27 494.74 1079.9 493.453 1080.32 492.101C1080.47 491.599 1080.63 490.978 1080.8 490.236C1080.97 489.495 1081.08 489.004 1081.13 488.764L1082.17 488.762L1081.93 498.832L1063.43 498.875L1063.43 497.829ZM1082.06 497.785L1084.35 497.78C1084.65 497.779 1084.86 497.724 1084.97 497.615C1085.08 497.484 1085.13 497.277 1085.13 496.993L1085.09 477.377C1085.09 477.072 1085.03 476.865 1084.92 476.757C1084.81 476.648 1084.6 476.594 1084.3 476.595L1082.01 476.6L1082.01 475.554L1092.99 475.528L1093 476.574L1090.71 476.58C1090.42 476.58 1090.22 476.635 1090.09 476.745C1089.98 476.854 1089.92 477.061 1089.92 477.366L1089.97 496.982C1089.97 497.265 1090.02 497.472 1090.13 497.603C1090.26 497.711 1090.47 497.765 1090.75 497.765L1093.04 497.759L1093.05 498.805L1082.06 498.831L1082.06 497.785ZM1102.93 499.371C1100.91 499.375 1099.17 498.813 1097.73 497.683C1096.31 496.531 1095.24 495.03 1094.52 493.179C1093.79 491.306 1093.43 489.302 1093.43 487.166C1093.42 484.964 1093.79 482.937 1094.52 481.082C1095.26 479.206 1096.31 477.711 1097.69 476.596C1099.08 475.481 1100.7 474.921 1102.55 474.917C1103.36 474.915 1104.1 475.055 1104.78 475.337C1105.47 475.597 1106.21 475.987 1106.97 476.509C1107.47 476.834 1107.84 476.997 1108.08 476.996C1108.26 476.996 1108.4 476.952 1108.51 476.865C1108.62 476.755 1108.71 476.592 1108.8 476.373L1109.39 475.162L1110.46 475.16L1110.49 485.197L1109.44 485.199C1108.93 482.389 1108.06 480.146 1106.81 478.471C1105.59 476.795 1104.17 475.959 1102.55 475.963C1101.53 475.966 1100.67 476.469 1099.98 477.473C1099.3 478.477 1098.97 480.069 1098.97 482.249L1098.99 492.057C1099 494.214 1099.38 495.805 1100.15 496.827C1100.94 497.828 1101.86 498.327 1102.93 498.324C1105.53 498.318 1107.45 497.126 1108.71 494.747C1109.34 493.591 1109.76 491.933 1109.97 489.775L1111.15 489.772C1111.09 490.731 1110.94 491.702 1110.7 492.683C1110.48 493.642 1110.19 494.482 1109.82 495.202C1109.15 496.512 1108.23 497.538 1107.05 498.282C1105.9 499.004 1104.52 499.367 1102.93 499.371Z" fill="black"/>
<rect x="986.002" y="174.255" width="333" height="293" transform="rotate(-0.559369 986.002 174.255)" fill="white" stroke="black" stroke-width="2"/>
<rect x="985.447" y="118.261" width="333" height="54" transform="rotate(-0.559369 985.447 118.261)" fill="white" stroke="black" stroke-width="2"/>
<rect x="985.447" y="118.261" width="333" height="57" transform="rotate(-0.559369 985.447 118.261)" fill="white" stroke="black" stroke-width="2"/>
<rect x="1382.99" y="171.382" width="292" height="64" transform="rotate(89.4406 1382.99 171.382)" fill="white" stroke="black" stroke-width="2"/>
<rect x="986.01" y="175.256" width="292" height="63" transform="rotate(89.4406 986.01 175.256)" fill="white" stroke="black" stroke-width="2"/>
<path d="M1000.01 441.931L1012.96 441.805C1022.52 441.711 1031.02 439.178 1038.44 434.206C1046.09 429.231 1051.98 423.223 1056.11 416.182L1197.88 201.988L1206.28 201.906L1208.45 424.846C1208.98 430.674 1210.65 434.625 1213.47 436.697C1216.29 438.77 1220.27 439.781 1225.4 439.731L1245 439.539L1242.31 450.766L1138.71 451.778L1141.4 440.551L1163.1 440.339C1168 440.291 1171.61 439.206 1173.92 437.083C1176.47 434.958 1177.71 430.629 1177.64 424.096L1177.08 365.999L1103.93 366.713L1080.47 401.944C1072.65 413.454 1068.77 422.592 1068.84 429.359C1068.92 437.292 1073.62 441.213 1082.96 441.121L1102.2 440.934L1099.51 452.16L997.319 453.158L1000.01 441.931ZM1111.52 355.439L1176.97 354.8L1176.02 258.204L1111.52 355.439Z" fill="black"/>
</g>
<defs>
<clipPath id="clip0_240_1376">
<rect width="1443" height="677" fill="white"/>
</clipPath>
</defs>
</svg>
