<svg width="1443" height="2483" viewBox="0 0 1443 2483" fill="none" xmlns="http://www.w3.org/2000/svg">
<g clip-path="url(#clip0_267_38)">
<rect width="1443" height="2483" fill="black"/>
<path d="M639.566 1362.41C609.2 1374.9 589.921 1355.79 584.077 1344.67L314.774 1475.09C319.873 1486.56 322.912 1513.54 294.278 1529.61M696.264 1479.49C667.63 1495.56 670.669 1522.54 675.768 1534.02L406.465 1664.43C400.621 1653.31 381.342 1634.2 350.976 1646.7M351.969 1646.22L294.97 1528.51M695.387 1480.53L638.389 1362.82" stroke="black" stroke-width="2.20723"/>
<rect width="1394.36" height="1506.07" transform="matrix(0.999971 0.00764269 0.00499149 0.999988 224 170.188)" fill="white"/>
<path d="M1562.94 1915.51L1625.84 1686.9L231.513 1676.24L296.693 1905.83L1562.94 1915.51Z" fill="white" stroke="black" stroke-width="4"/>
<path d="M1553.14 -47.5877L1618.27 182.016L223.952 171.102L286.896 -57.4988L1553.14 -47.5877Z" fill="white" stroke="black" stroke-width="4"/>
<path d="M132.716 1515.76L231.521 1677.15L224.003 171.101L126.779 326.433L132.716 1515.76Z" fill="white" stroke="black" stroke-width="4"/>
<path d="M205 2386.12L1458.8 2386" stroke="white" stroke-width="3.03494" stroke-dasharray="9.66 9.66"/>
<path d="M301.187 244.807L300.803 244.157L300.51 244.853C297.479 252.047 293.908 257.574 289.44 262.072C284.972 266.57 279.592 270.052 272.922 273.138C262.968 277.745 250.189 281.451 233.342 286.336C227.572 288.009 221.326 289.821 214.552 291.854C194.953 297.737 162.511 302.095 128.738 305.195C94.9769 308.295 59.9198 310.136 35.1053 310.995C30.5736 311.039 26.8472 311.163 23.9772 311.335L24.0099 312.093C27.4182 312.005 31.1381 311.892 35.1218 311.754C61.9447 311.497 117.149 314.054 190.23 326.061C232.922 333.075 260.172 343.03 276.886 352.604C285.243 357.392 290.958 362.08 294.654 366.251C298.354 370.427 300.01 374.062 300.297 376.743L301.053 376.725C301.212 374.038 302.887 370.498 306.61 366.435C310.326 362.38 316.05 357.839 324.228 353.154C340.584 343.783 366.716 333.853 406.113 326.059C472.138 312.998 552.259 312.019 572.291 312.046C574.478 312.082 575.953 312.094 576.632 312.094C576.777 312.094 576.882 312.093 576.945 312.092L576.972 312.091C576.992 312.09 577.014 312.09 577.032 312.088C577.032 312.088 577.037 312.087 577.045 312.086C577.058 312.085 577.077 312.081 577.098 312.076C577.109 312.073 577.132 312.066 577.159 312.054L577.159 312.054C577.175 312.046 577.253 312.011 577.312 311.925C577.34 311.878 577.376 311.763 577.379 311.697C577.372 311.633 577.332 311.525 577.305 311.482C577.246 311.404 577.174 311.371 577.16 311.365C577.117 311.345 577.08 311.338 577.076 311.337C577.063 311.334 577.053 311.333 577.047 311.332C577.036 311.33 577.026 311.329 577.02 311.329C576.954 311.324 576.722 311.318 576.357 311.313C575.61 311.301 574.234 311.289 572.297 311.287C551.294 310.939 464.488 308.318 385.331 291.846C350.387 284.574 330.635 274.972 318.985 266.125C308.791 258.384 304.783 251.213 302.209 246.607C301.844 245.954 301.508 245.352 301.187 244.807Z" fill="white" stroke="black" stroke-width="0.759094"/>
<g style="mix-blend-mode:exclusion">
<path d="M1214.89 2065.84L1214.49 2064.95L1214.19 2065.88C1204.91 2094.46 1192.32 2109.89 1171.96 2122.12C1156.75 2131.26 1137.24 2138.6 1111.52 2148.29C1102.72 2151.6 1093.19 2155.19 1082.85 2159.22C1052.93 2170.88 1003.41 2179.52 951.861 2185.66C900.332 2191.81 846.824 2195.45 808.951 2197.16C802.035 2197.24 796.349 2197.49 791.97 2197.83L792.013 2198.59C797.215 2198.41 802.892 2198.19 808.973 2197.92C849.915 2197.41 934.175 2202.47 1045.72 2226.27C1110.88 2240.17 1152.49 2259.9 1178.02 2278.9C1203.57 2297.9 1212.99 2316.13 1213.89 2327.03L1214.65 2327.02C1214.89 2321.54 1217.51 2314.44 1223.21 2306.36C1228.9 2298.29 1237.66 2289.28 1250.15 2279.98C1275.14 2261.4 1315.04 2241.71 1375.17 2226.27C1475.95 2200.38 1598.24 2198.44 1628.81 2198.49C1632.15 2198.57 1634.4 2198.59 1635.44 2198.59C1635.66 2198.59 1635.82 2198.59 1635.91 2198.59L1635.95 2198.58C1635.98 2198.58 1636.01 2198.58 1636.04 2198.58L1636.04 2198.58C1636.05 2198.58 1636.08 2198.57 1636.12 2198.56C1636.14 2198.55 1636.16 2198.54 1636.19 2198.53C1636.22 2198.51 1636.29 2198.47 1636.33 2198.38C1636.4 2198.26 1636.39 2198.12 1636.33 2198.01C1636.28 2197.93 1636.22 2197.89 1636.2 2197.87C1636.15 2197.85 1636.11 2197.83 1636.1 2197.83L1636.1 2197.83C1636.08 2197.83 1636.07 2197.83 1636.06 2197.82C1636.05 2197.82 1636.03 2197.82 1636.02 2197.82C1635.93 2197.81 1635.58 2197.8 1635.02 2197.79C1633.88 2197.76 1631.78 2197.74 1628.82 2197.74C1596.77 2197.05 1464.27 2191.85 1343.45 2159.21C1290.11 2144.79 1259.94 2125.76 1242.13 2108.19C1226.53 2092.81 1220.38 2078.54 1216.45 2069.4C1215.9 2068.11 1215.38 2066.92 1214.89 2065.84Z" stroke="white" stroke-width="0.759094"/>
</g>
<g style="mix-blend-mode:exclusion">
<path d="M379.187 2129.81L378.803 2129.16L378.51 2129.85C375.479 2137.05 371.908 2142.57 367.44 2147.07C362.972 2151.57 357.592 2155.05 350.922 2158.14C340.968 2162.74 328.189 2166.45 311.342 2171.34C305.572 2173.01 299.326 2174.82 292.552 2176.85C272.953 2182.74 240.511 2187.09 206.738 2190.2C172.977 2193.29 137.92 2195.14 113.105 2196C108.574 2196.04 104.847 2196.16 101.977 2196.34L102.01 2197.09C105.418 2197 109.138 2196.89 113.122 2196.75C139.945 2196.5 195.149 2199.05 268.23 2211.06C310.922 2218.08 338.172 2228.03 354.886 2237.6C363.243 2242.39 368.958 2247.08 372.654 2251.25C376.354 2255.43 378.01 2259.06 378.297 2261.74L379.053 2261.73C379.212 2259.04 380.887 2255.5 384.61 2251.43C388.326 2247.38 394.05 2242.84 402.228 2238.15C418.584 2228.78 444.716 2218.85 484.113 2211.06C550.138 2198 630.259 2197.02 650.291 2197.05C652.478 2197.08 653.953 2197.09 654.632 2197.09C654.777 2197.09 654.882 2197.09 654.945 2197.09L654.972 2197.09C654.992 2197.09 655.014 2197.09 655.032 2197.09C655.032 2197.09 655.037 2197.09 655.045 2197.09C655.058 2197.08 655.077 2197.08 655.098 2197.08C655.109 2197.07 655.132 2197.07 655.159 2197.05L655.159 2197.05C655.175 2197.05 655.253 2197.01 655.312 2196.93C655.34 2196.88 655.376 2196.76 655.379 2196.7C655.372 2196.63 655.332 2196.53 655.305 2196.48C655.246 2196.4 655.174 2196.37 655.16 2196.36C655.117 2196.34 655.08 2196.34 655.076 2196.34C655.063 2196.33 655.053 2196.33 655.047 2196.33C655.036 2196.33 655.026 2196.33 655.02 2196.33C654.954 2196.32 654.722 2196.32 654.357 2196.31C653.61 2196.3 652.234 2196.29 650.297 2196.29C629.294 2195.94 542.488 2193.32 463.331 2176.85C428.387 2169.57 408.635 2159.97 396.985 2151.12C386.791 2143.38 382.783 2136.21 380.209 2131.61C379.844 2130.95 379.508 2130.35 379.187 2129.81Z" stroke="white" stroke-width="0.759094"/>
</g>
</g>
<defs>
<clipPath id="clip0_267_38">
<rect width="1443" height="2483" fill="white"/>
</clipPath>
</defs>
</svg>
