<svg width="1443" height="1157" viewBox="0 0 1443 1157" fill="none" xmlns="http://www.w3.org/2000/svg">
<g clip-path="url(#clip0_243_1402)">
<rect width="1443" height="1157" fill="black"/>
<rect width="1272.74" height="1353.7" transform="matrix(0.999973 -0.00733239 0.00237834 0.999997 167.453 330.44)" fill="white"/>
<path d="M1381.18 98.4284L1440.16 322.005L167.455 331.338L225.373 106.903L1381.18 98.4284Z" fill="white" stroke="black" stroke-width="4"/>
<path d="M79.6924 1043.6L169.35 1127.91L167.455 331.337L78.1963 414.547L79.6924 1043.6Z" fill="white" stroke="black" stroke-width="4"/>
<path d="M1532.74 1635.93L1443.66 1793.66L1440.15 321.112L1529.97 473.066L1532.74 1635.93Z" fill="white" stroke="black" stroke-width="4"/>
<path d="M-47.0361 36.1826L-58.3411 170.154C-31.3422 170.797 -21.8394 198.491 -20.4629 212.258L281.53 236.708C288.827 204.141 313.936 198.033 325.578 199.051L335.899 68.0074C302.651 57.7162 296.449 33.5371 297.504 22.734L-3.73067 -0.0509445C-9.96878 31.0407 -35.2001 37.0596 -47.0361 36.1826Z" fill="white" stroke="black" stroke-width="3"/>
<path d="M275.031 60.3799L262.441 202.742" stroke="black" stroke-width="3.03494" stroke-dasharray="9.66 9.66"/>
<path d="M64.6884 205.858C52.0285 202.195 42.2693 197.517 35.4108 191.824C28.6852 186.143 25.751 178.454 26.6085 168.759L30.1674 128.516C30.7546 121.875 29.5426 117.418 26.5312 115.144C23.5316 112.737 18.7114 111.24 12.0707 110.652L12.5287 105.473C19.1695 106.06 24.1717 105.498 27.5355 103.788C30.911 101.945 32.8923 97.703 33.4796 91.0622L37.0385 50.8193C37.8959 41.1238 42.1338 34.0697 49.7522 29.657C57.5033 25.256 67.932 22.3635 81.0382 20.9793L82.1387 26.6985C74.5719 27.5017 69.1436 29.0964 65.8539 31.4825C62.5643 33.8687 60.6434 38.1829 60.0914 44.4252L56.6734 83.0744C55.91 91.7073 53.2094 98.0273 48.5717 102.034C44.0669 106.053 38.2908 108.554 31.2434 109.537L31.2082 109.936C37.9736 112.14 43.2212 115.616 46.9508 120.363C50.8133 125.122 52.3628 131.817 51.5994 140.45L48.1814 179.1C47.6294 185.342 48.7633 189.926 51.5831 192.853C54.4029 195.779 59.4671 198.302 66.7755 200.42L64.6884 205.858ZM130.91 206.092C138.476 205.289 143.905 203.694 147.194 201.308C150.484 198.922 152.405 194.608 152.957 188.365L156.375 149.716C157.138 141.083 159.772 134.757 164.277 130.739C168.915 126.732 174.757 124.237 181.805 123.254L181.84 122.855C175.075 120.651 169.761 117.169 165.898 112.41C162.169 107.663 160.685 100.973 161.449 92.3402L164.867 53.6911C165.419 47.4488 164.285 42.8644 161.465 39.938C158.645 37.0115 153.581 34.4889 146.273 32.3702L148.36 26.9329C161.02 30.5957 170.713 35.2677 177.438 40.949C184.297 46.6419 187.297 54.3362 186.44 64.0317L182.881 104.275C182.294 110.915 183.5 115.439 186.499 117.846C189.511 120.12 194.337 121.551 200.978 122.138L200.52 127.318C193.879 126.731 188.871 127.359 185.495 129.202C182.131 130.912 180.156 135.088 179.569 141.728L176.01 181.971C175.152 191.667 170.848 198.715 163.097 203.116C155.479 207.529 145.116 210.427 132.01 211.811L130.91 206.092Z" fill="black"/>
</g>
<defs>
<clipPath id="clip0_243_1402">
<rect width="1443" height="1157" fill="white"/>
</clipPath>
</defs>
</svg>
