<svg width="1444" height="1965" viewBox="0 0 1444 1965" fill="none" xmlns="http://www.w3.org/2000/svg">
<g clip-path="url(#clip0_243_1436)">
<rect width="1444" height="1965" fill="black"/>
<path d="M3.52 260.52H4.64C4.76 260.52 4.84 260.5 4.88 260.46C4.93333 260.407 4.96 260.32 4.96 260.2V247.56C4.96 247.44 4.93333 247.36 4.88 247.32C4.84 247.267 4.76 247.24 4.64 247.24H3.52V246.76H7.28V260.2C7.28 260.32 7.3 260.407 7.34 260.46C7.39333 260.5 7.48 260.52 7.6 260.52H8.72V261H3.52V260.52ZM17.5123 261.24C16.779 261.24 16.1523 261.06 15.6323 260.7C15.1257 260.34 14.8723 259.733 14.8723 258.88C14.8723 258.013 15.1857 257.333 15.8123 256.84C16.4523 256.333 17.259 255.913 18.2323 255.58L19.7123 255.06V253.7C19.7123 253.02 19.5723 252.527 19.2923 252.22C19.0123 251.913 18.6523 251.76 18.2123 251.76C17.839 251.76 17.5123 251.847 17.2323 252.02C16.9657 252.18 16.8323 252.407 16.8323 252.7C16.8323 252.78 16.8523 252.88 16.8923 253C16.9457 253.107 17.0323 253.2 17.1523 253.28C17.3523 253.4 17.4923 253.527 17.5723 253.66C17.6657 253.793 17.7123 253.967 17.7123 254.18C17.7123 254.5 17.5923 254.753 17.3523 254.94C17.1257 255.113 16.8723 255.2 16.5923 255.2C16.2457 255.2 15.9457 255.087 15.6923 254.86C15.4523 254.62 15.3323 254.28 15.3323 253.84C15.3323 253.333 15.4857 252.887 15.7923 252.5C16.099 252.1 16.4923 251.8 16.9723 251.6C17.4523 251.387 17.939 251.28 18.4323 251.28C19.3923 251.28 20.2323 251.54 20.9523 252.06C21.6723 252.567 22.0323 253.38 22.0323 254.5V259.56C22.0323 260.04 22.1657 260.28 22.4323 260.28C22.6723 260.28 22.8523 260.08 22.9723 259.68C23.0923 259.28 23.1523 258.82 23.1523 258.3H23.7123C23.7123 259.273 23.5657 259.987 23.2723 260.44C23.1257 260.68 22.919 260.873 22.6523 261.02C22.3857 261.167 22.079 261.24 21.7323 261.24C21.1857 261.24 20.7723 261.16 20.4923 261C20.2123 260.827 19.979 260.547 19.7923 260.16H19.7523C19.219 260.88 18.4723 261.24 17.5123 261.24ZM18.4923 260.44C19.0123 260.44 19.419 260.147 19.7123 259.56V255.6L18.5923 256C18.1523 256.16 17.8257 256.467 17.6123 256.92C17.4123 257.36 17.3123 257.953 17.3123 258.7C17.3123 259.353 17.4323 259.807 17.6723 260.06C17.9123 260.313 18.1857 260.44 18.4923 260.44ZM33.1486 261.24C32.3086 261.24 31.6553 261.027 31.1886 260.6C30.7353 260.16 30.5086 259.547 30.5086 258.76V252.08H29.3086V251.52C30.0953 251.413 30.7153 251.087 31.1686 250.54C31.6353 249.993 31.8686 249.28 31.8686 248.4V247.68H32.8286V251.52H34.8686V252.08H32.8286V258.9C32.8286 259.34 32.8886 259.693 33.0086 259.96C33.1286 260.227 33.3753 260.36 33.7486 260.36C34.3086 260.36 34.6819 259.98 34.8686 259.22C35.0553 258.447 35.1486 257.587 35.1486 256.64H35.7086C35.7086 257.4 35.6553 258.1 35.5486 258.74C35.4553 259.38 35.3019 259.873 35.0886 260.22C34.6619 260.9 34.0153 261.24 33.1486 261.24ZM43.9538 249.48C43.5404 249.48 43.1871 249.34 42.8938 249.06C42.6138 248.767 42.4738 248.413 42.4738 248C42.4738 247.573 42.6138 247.22 42.8938 246.94C43.1871 246.66 43.5404 246.52 43.9538 246.52C44.3804 246.52 44.7338 246.66 45.0138 246.94C45.2938 247.22 45.4338 247.573 45.4338 248C45.4338 248.413 45.2938 248.767 45.0138 249.06C44.7338 249.34 44.3804 249.48 43.9538 249.48ZM41.7938 260.52H42.5538C42.6738 260.52 42.7538 260.5 42.7938 260.46C42.8471 260.407 42.8738 260.32 42.8738 260.2V252.32C42.8738 252.2 42.8471 252.12 42.7938 252.08C42.7538 252.027 42.6738 252 42.5538 252H41.7938V251.52H45.1938V260.2C45.1938 260.32 45.2138 260.407 45.2538 260.46C45.3071 260.5 45.3938 260.52 45.5138 260.52H46.2738V261H41.7938V260.52ZM52.5117 260.52H53.2717C53.3917 260.52 53.4717 260.5 53.5117 260.46C53.5651 260.407 53.5917 260.32 53.5917 260.2V252.32C53.5917 252.2 53.5651 252.12 53.5117 252.08C53.4717 252.027 53.3917 252 53.2717 252H52.5117V251.52H55.9117V253.3L56.0117 253.32C56.2784 252.693 56.6184 252.2 57.0317 251.84C57.4584 251.467 57.9451 251.28 58.4917 251.28C58.8251 251.28 59.1117 251.32 59.3517 251.4C59.5917 251.467 59.8184 251.573 60.0317 251.72C60.3651 251.96 60.6251 252.293 60.8117 252.72C61.0117 253.147 61.1117 253.587 61.1117 254.04V260.2C61.1117 260.32 61.1317 260.407 61.1717 260.46C61.2251 260.5 61.3117 260.52 61.4317 260.52H62.1917V261H57.8317V260.52H58.4717C58.5917 260.52 58.6717 260.5 58.7117 260.46C58.7651 260.407 58.7917 260.32 58.7917 260.2V253.46C58.7917 252.433 58.4851 251.92 57.8717 251.92C57.5917 251.92 57.2984 252.107 56.9917 252.48C56.6851 252.853 56.4251 253.347 56.2117 253.96C56.0117 254.573 55.9117 255.227 55.9117 255.92V260.2C55.9117 260.32 55.9317 260.407 55.9717 260.46C56.0251 260.5 56.1117 260.52 56.2317 260.52H56.8717V261H52.5117V260.52Z" fill="black"/>
<path d="M744.566 70.2511L744.907 70.8288C745.012 71.0067 745.121 71.2027 745.24 71.415C746.072 72.9027 747.35 75.1894 750.613 77.6673C754.35 80.5055 760.711 83.604 772.002 85.9537C797.602 91.2808 825.682 92.1294 832.48 92.242C832.481 92.242 832.482 92.242 832.482 92.242M744.566 70.2511L832.482 92.242M744.566 70.2511L744.306 70.8691M744.566 70.2511L744.306 70.8691M832.482 92.242C833.19 92.2538 833.665 92.2575 833.881 92.2575C833.928 92.2575 833.958 92.2573 833.973 92.257C833.986 92.2567 833.978 92.2565 833.966 92.2578C833.963 92.2581 833.957 92.2586 833.951 92.2596C833.946 92.2603 833.931 92.2625 833.912 92.2677C833.906 92.2694 833.895 92.2725 833.881 92.2777C833.874 92.2802 833.867 92.2833 833.859 92.2869C833.847 92.2926 833.776 92.3238 833.722 92.4016C833.7 92.4393 833.672 92.5261 833.665 92.5858C833.755 92.5869 833.827 92.588 833.881 92.589C834.037 92.592 834.042 92.5946 833.881 92.5946C833.825 92.5946 833.753 92.5943 833.664 92.5938C833.664 92.5974 833.663 92.6009 833.663 92.6043C833.67 92.661 833.705 92.7567 833.73 92.7946C833.782 92.8639 833.845 92.8928 833.857 92.8984C833.866 92.9021 833.873 92.9054 833.881 92.9082C833.906 92.9179 833.926 92.9219 833.931 92.9227L833.931 92.9228C833.942 92.925 833.95 92.9262 833.954 92.9267C833.96 92.9275 833.965 92.928 833.967 92.9282L833.969 92.9284C833.97 92.9285 833.97 92.9285 833.966 92.9283C833.96 92.9281 833.947 92.9277 833.924 92.9271C833.912 92.9268 833.897 92.9265 833.881 92.9262C833.854 92.9256 833.822 92.9251 833.785 92.9245C833.546 92.9209 833.102 92.917 832.476 92.9162C832.475 92.9162 832.475 92.9162 832.474 92.9162C833.181 92.9279 833.66 92.9317 833.881 92.9317C833.928 92.9317 833.964 92.9315 833.987 92.931L833.988 92.931C833.995 92.9309 834.014 92.9305 834.031 92.9288C834.035 92.9285 834.04 92.9278 834.048 92.9268C834.053 92.926 834.069 92.9237 834.088 92.9185C834.097 92.916 834.117 92.9102 834.141 92.8991L834.142 92.8988C834.156 92.8922 834.225 92.8607 834.277 92.7844C834.302 92.7426 834.334 92.6404 834.337 92.5817C834.33 92.5249 834.295 92.4292 834.27 92.3913C834.218 92.3219 834.154 92.293 834.142 92.2874C834.104 92.2697 834.072 92.2634 834.068 92.2627C834.057 92.2604 834.048 92.2592 834.044 92.2586C834.04 92.258 834.036 92.2576 834.033 92.2572C834.029 92.2568 834.026 92.2566 834.024 92.2564C833.994 92.2539 833.908 92.2521 833.795 92.2504C833.553 92.2467 833.108 92.2429 832.482 92.242ZM744.306 70.8691C743.333 73.1778 742.191 74.9423 740.768 76.375C739.344 77.8081 737.626 78.9221 735.483 79.9136C732.277 81.3973 728.163 82.5904 722.717 84.1697C720.847 84.7121 718.82 85.3 716.618 85.9609C710.297 87.8584 699.816 89.2675 688.883 90.2712C677.963 91.2737 666.623 91.8694 658.594 92.1476L744.306 70.8691ZM655.009 92.9316L654.98 92.2581C655.913 92.202 657.122 92.1619 658.59 92.1477L655.009 92.9316ZM655.009 92.9316C656.111 92.903 657.313 92.8665 658.601 92.822M655.009 92.9316L658.601 92.822M658.601 92.822C658.602 92.8219 658.603 92.8219 658.605 92.8218L658.601 92.822Z" stroke="black" stroke-width="0.6742"/>
<path d="M1404.36 810.619L1443.03 948.205" stroke="black" stroke-width="3.03494" stroke-dasharray="9.66 9.66"/>
<path d="M1126.53 888.717L1165.21 1026.3" stroke="black" stroke-width="3.03494" stroke-dasharray="9.66 9.66"/>
<rect width="1272.74" height="1353.7" transform="matrix(0.999973 -0.00733239 0.00237834 0.999997 167.453 -785.016)" fill="white"/>
<path d="M1385.74 902.64L1443.37 558.673L170.667 568.006L229.935 911.115L1385.74 902.64Z" fill="white" stroke="black" stroke-width="4"/>
<path d="M81.0797 511.159L170.679 570.984L169.33 3.97394L80.0148 63.3927L81.0797 511.159Z" fill="white" stroke="black" stroke-width="4"/>
<path d="M1532.74 520.476L1443.66 678.203L1440.15 -794.344L1529.97 -642.391L1532.74 520.476Z" fill="white" stroke="black" stroke-width="4"/>
<rect width="1272.71" height="601.517" transform="matrix(0.999995 -0.00327672 0.00532213 0.999986 176.453 1123.11)" fill="white"/>
<path d="M1394.6 1850.27L1452.37 1721.95L179.662 1726.13L238.795 1854.06L1394.6 1850.27Z" fill="white" stroke="black" stroke-width="4"/>
<path d="M1390.18 998.776L1449.16 1119.42L176.455 1124.46L234.373 1003.35L1390.18 998.776Z" fill="white" stroke="black" stroke-width="4"/>
<path d="M89.8719 1663.4L179.67 1727.54L176.455 1123.51L87.3332 1186.4L89.8719 1663.4Z" fill="white" stroke="black" stroke-width="4"/>
<path d="M3.52 264.064H4.64C4.76 264.064 4.84 264.044 4.88 264.004C4.93333 263.951 4.96 263.864 4.96 263.744V251.104C4.96 250.984 4.93333 250.904 4.88 250.864C4.84 250.811 4.76 250.784 4.64 250.784H3.52V250.304H7.28V263.744C7.28 263.864 7.3 263.951 7.34 264.004C7.39333 264.044 7.48 264.064 7.6 264.064H8.72V264.544H3.52V264.064ZM17.5123 264.784C16.779 264.784 16.1523 264.604 15.6323 264.244C15.1257 263.884 14.8723 263.277 14.8723 262.424C14.8723 261.557 15.1857 260.877 15.8123 260.384C16.4523 259.877 17.259 259.457 18.2323 259.124L19.7123 258.604V257.244C19.7123 256.564 19.5723 256.071 19.2923 255.764C19.0123 255.457 18.6523 255.304 18.2123 255.304C17.839 255.304 17.5123 255.391 17.2323 255.564C16.9657 255.724 16.8323 255.951 16.8323 256.244C16.8323 256.324 16.8523 256.424 16.8923 256.544C16.9457 256.651 17.0323 256.744 17.1523 256.824C17.3523 256.944 17.4923 257.071 17.5723 257.204C17.6657 257.337 17.7123 257.511 17.7123 257.724C17.7123 258.044 17.5923 258.297 17.3523 258.484C17.1257 258.657 16.8723 258.744 16.5923 258.744C16.2457 258.744 15.9457 258.631 15.6923 258.404C15.4523 258.164 15.3323 257.824 15.3323 257.384C15.3323 256.877 15.4857 256.431 15.7923 256.044C16.099 255.644 16.4923 255.344 16.9723 255.144C17.4523 254.931 17.939 254.824 18.4323 254.824C19.3923 254.824 20.2323 255.084 20.9523 255.604C21.6723 256.111 22.0323 256.924 22.0323 258.044V263.104C22.0323 263.584 22.1657 263.824 22.4323 263.824C22.6723 263.824 22.8523 263.624 22.9723 263.224C23.0923 262.824 23.1523 262.364 23.1523 261.844H23.7123C23.7123 262.817 23.5657 263.531 23.2723 263.984C23.1257 264.224 22.919 264.417 22.6523 264.564C22.3857 264.711 22.079 264.784 21.7323 264.784C21.1857 264.784 20.7723 264.704 20.4923 264.544C20.2123 264.371 19.979 264.091 19.7923 263.704H19.7523C19.219 264.424 18.4723 264.784 17.5123 264.784ZM18.4923 263.984C19.0123 263.984 19.419 263.691 19.7123 263.104V259.144L18.5923 259.544C18.1523 259.704 17.8257 260.011 17.6123 260.464C17.4123 260.904 17.3123 261.497 17.3123 262.244C17.3123 262.897 17.4323 263.351 17.6723 263.604C17.9123 263.857 18.1857 263.984 18.4923 263.984ZM33.1486 264.784C32.3086 264.784 31.6553 264.571 31.1886 264.144C30.7353 263.704 30.5086 263.091 30.5086 262.304V255.624H29.3086V255.064C30.0953 254.957 30.7153 254.631 31.1686 254.084C31.6353 253.537 31.8686 252.824 31.8686 251.944V251.224H32.8286V255.064H34.8686V255.624H32.8286V262.444C32.8286 262.884 32.8886 263.237 33.0086 263.504C33.1286 263.771 33.3753 263.904 33.7486 263.904C34.3086 263.904 34.6819 263.524 34.8686 262.764C35.0553 261.991 35.1486 261.131 35.1486 260.184H35.7086C35.7086 260.944 35.6553 261.644 35.5486 262.284C35.4553 262.924 35.3019 263.417 35.0886 263.764C34.6619 264.444 34.0153 264.784 33.1486 264.784ZM43.9538 253.024C43.5404 253.024 43.1871 252.884 42.8938 252.604C42.6138 252.311 42.4738 251.957 42.4738 251.544C42.4738 251.117 42.6138 250.764 42.8938 250.484C43.1871 250.204 43.5404 250.064 43.9538 250.064C44.3804 250.064 44.7338 250.204 45.0138 250.484C45.2938 250.764 45.4338 251.117 45.4338 251.544C45.4338 251.957 45.2938 252.311 45.0138 252.604C44.7338 252.884 44.3804 253.024 43.9538 253.024ZM41.7938 264.064H42.5538C42.6738 264.064 42.7538 264.044 42.7938 264.004C42.8471 263.951 42.8738 263.864 42.8738 263.744V255.864C42.8738 255.744 42.8471 255.664 42.7938 255.624C42.7538 255.571 42.6738 255.544 42.5538 255.544H41.7938V255.064H45.1938V263.744C45.1938 263.864 45.2138 263.951 45.2538 264.004C45.3071 264.044 45.3938 264.064 45.5138 264.064H46.2738V264.544H41.7938V264.064ZM52.5117 264.064H53.2717C53.3917 264.064 53.4717 264.044 53.5117 264.004C53.5651 263.951 53.5917 263.864 53.5917 263.744V255.864C53.5917 255.744 53.5651 255.664 53.5117 255.624C53.4717 255.571 53.3917 255.544 53.2717 255.544H52.5117V255.064H55.9117V256.844L56.0117 256.864C56.2784 256.237 56.6184 255.744 57.0317 255.384C57.4584 255.011 57.9451 254.824 58.4917 254.824C58.8251 254.824 59.1117 254.864 59.3517 254.944C59.5917 255.011 59.8184 255.117 60.0317 255.264C60.3651 255.504 60.6251 255.837 60.8117 256.264C61.0117 256.691 61.1117 257.131 61.1117 257.584V263.744C61.1117 263.864 61.1317 263.951 61.1717 264.004C61.2251 264.044 61.3117 264.064 61.4317 264.064H62.1917V264.544H57.8317V264.064H58.4717C58.5917 264.064 58.6717 264.044 58.7117 264.004C58.7651 263.951 58.7917 263.864 58.7917 263.744V257.004C58.7917 255.977 58.4851 255.464 57.8717 255.464C57.5917 255.464 57.2984 255.651 56.9917 256.024C56.6851 256.397 56.4251 256.891 56.2117 257.504C56.0117 258.117 55.9117 258.771 55.9117 259.464V263.744C55.9117 263.864 55.9317 263.951 55.9717 264.004C56.0251 264.044 56.1117 264.064 56.2317 264.064H56.8717V264.544H52.5117V264.064Z" fill="black"/>
<path d="M1264.31 243.036L1263.3 241.322L1262.53 243.156C1254.54 262.111 1245.13 276.674 1233.36 288.523C1221.59 300.374 1207.41 309.549 1189.84 317.681C1163.61 329.817 1129.94 339.581 1085.56 352.453C1070.36 356.861 1053.9 361.634 1036.05 366.991C984.414 382.492 898.938 393.972 809.955 402.141C721.004 410.308 628.638 415.159 563.259 417.423C551.319 417.538 541.501 417.864 533.94 418.318L534.026 420.316C543.006 420.083 552.807 419.786 563.303 419.423C633.975 418.745 779.422 425.482 971.969 457.117C1084.45 475.598 1156.25 501.824 1200.28 527.052C1222.3 539.665 1237.36 552.016 1247.1 563.005C1256.85 574.01 1261.21 583.585 1261.96 590.65L1263.96 590.603C1264.38 583.523 1268.79 574.196 1278.6 563.49C1288.39 552.807 1303.47 540.844 1325.02 528.499C1368.11 503.809 1436.96 477.646 1540.76 457.111C1714.72 422.699 1925.81 420.121 1978.59 420.191C1984.36 420.286 1988.24 420.317 1990.03 420.317C1990.41 420.317 1990.69 420.315 1990.86 420.312C1990.92 420.31 1991.02 420.308 1991.08 420.301C1991.09 420.301 1991.17 420.295 1991.26 420.27C1991.29 420.262 1991.35 420.245 1991.42 420.212C1991.45 420.195 1991.66 420.103 1991.82 419.873C1991.9 419.749 1991.99 419.447 1992 419.273C1991.98 419.104 1991.88 418.82 1991.8 418.707C1991.65 418.504 1991.47 418.417 1991.43 418.398L1991.42 418.397C1991.31 418.346 1991.22 418.326 1991.2 418.323L1991.2 418.323C1991.17 418.316 1991.14 418.312 1991.12 418.31C1991.09 418.306 1991.07 418.303 1991.05 418.302C1990.88 418.288 1990.27 418.273 1989.31 418.259C1987.34 418.229 1983.71 418.197 1978.61 418.191C1923.27 417.274 1694.56 410.368 1486.01 366.969C1393.94 347.811 1341.9 322.512 1311.2 299.202C1284.34 278.807 1273.79 259.913 1267 247.778C1266.04 246.056 1265.15 244.471 1264.31 243.036Z" stroke="black" stroke-width="2"/>
<path d="M1264.31 243.036L1263.3 241.322L1262.53 243.156C1254.54 262.111 1245.13 276.674 1233.36 288.523C1221.59 300.374 1207.41 309.549 1189.84 317.681C1163.61 329.817 1129.94 339.581 1085.56 352.453C1070.36 356.861 1053.9 361.634 1036.05 366.991C984.414 382.492 898.938 393.972 809.955 402.141C721.004 410.308 628.638 415.159 563.259 417.423C551.319 417.538 541.501 417.864 533.94 418.318L534.026 420.316C543.006 420.083 552.807 419.786 563.303 419.423C633.975 418.745 779.422 425.482 971.969 457.117C1084.45 475.598 1156.25 501.824 1200.28 527.052C1222.3 539.665 1237.36 552.016 1247.1 563.005C1256.85 574.01 1261.21 583.585 1261.96 590.65L1263.96 590.603C1264.38 583.523 1268.79 574.196 1278.6 563.49C1288.39 552.807 1303.47 540.844 1325.02 528.499C1368.11 503.809 1436.96 477.646 1540.76 457.111C1714.72 422.699 1925.81 420.121 1978.59 420.191C1984.36 420.286 1988.24 420.317 1990.03 420.317C1990.41 420.317 1990.69 420.315 1990.86 420.312C1990.92 420.31 1991.02 420.308 1991.08 420.301C1991.09 420.301 1991.17 420.295 1991.26 420.27C1991.29 420.262 1991.35 420.245 1991.42 420.212C1991.45 420.195 1991.66 420.103 1991.82 419.873C1991.9 419.749 1991.99 419.447 1992 419.273C1991.98 419.104 1991.88 418.82 1991.8 418.707C1991.65 418.504 1991.47 418.417 1991.43 418.398L1991.42 418.397C1991.31 418.346 1991.22 418.326 1991.2 418.323L1991.2 418.323C1991.17 418.316 1991.14 418.312 1991.12 418.31C1991.09 418.306 1991.07 418.303 1991.05 418.302C1990.88 418.288 1990.27 418.273 1989.31 418.259C1987.34 418.229 1983.71 418.197 1978.61 418.191C1923.27 417.274 1694.56 410.368 1486.01 366.969C1393.94 347.811 1341.9 322.512 1311.2 299.202C1284.34 278.807 1273.79 259.913 1267 247.778C1266.04 246.056 1265.15 244.471 1264.31 243.036Z" stroke="black" stroke-width="2"/>
<path d="M777.603 1869.33L778.613 1871.04C778.841 1871.42 779.079 1871.85 779.336 1872.3C781.132 1875.51 783.871 1880.4 790.879 1885.71C798.918 1891.81 812.627 1898.48 837.015 1903.55C892.334 1915.04 953.019 1916.87 967.716 1917.11C969.07 1917.11 970.035 1917.12 970.561 1917.13C970.8 1917.13 970.997 1917.14 971.074 1917.15C971.079 1917.15 971.087 1917.15 971.098 1917.15C971.107 1917.15 971.119 1917.15 971.132 1917.15C971.144 1917.15 971.17 1917.16 971.202 1917.16L971.203 1917.16C971.22 1917.17 971.314 1917.19 971.422 1917.24C971.458 1917.25 971.648 1917.34 971.802 1917.55C971.875 1917.66 971.98 1917.94 972 1918.11C971.99 1918.29 971.895 1918.59 971.822 1918.71C971.662 1918.94 971.454 1919.04 971.418 1919.05C971.347 1919.08 971.287 1919.1 971.26 1919.11C971.203 1919.12 971.157 1919.13 971.142 1919.13C971.131 1919.13 971.121 1919.14 971.112 1919.14C971.104 1919.14 971.098 1919.14 971.093 1919.14C971.068 1919.14 971.043 1919.14 971.022 1919.14C970.999 1919.14 970.982 1919.14 970.976 1919.15C970.924 1919.15 970.845 1919.15 970.742 1919.15C970.262 1919.15 969.228 1919.14 967.698 1919.11C953.676 1919.09 897.676 1919.78 851.553 1928.89C824.031 1934.32 805.825 1941.24 794.47 1947.73C788.791 1950.98 784.852 1954.11 782.317 1956.87C779.762 1959.65 778.717 1961.97 778.62 1963.6L776.628 1963.65C776.449 1961.99 775.394 1959.59 772.86 1956.73C770.339 1953.89 766.407 1950.66 760.61 1947.35C749.014 1940.72 730.036 1933.78 700.212 1928.89C649.115 1920.51 610.529 1918.73 591.8 1918.91L777.603 1869.33ZM777.603 1869.33L776.83 1871.16M777.603 1869.33L776.83 1871.16M776.83 1871.16C774.738 1876.11 772.287 1879.89 769.24 1882.95C766.19 1886.01 762.505 1888.4 757.893 1890.53C750.981 1893.73 742.115 1896.29 730.349 1899.7C726.303 1900.87 721.913 1902.14 717.142 1903.57C703.504 1907.66 680.868 1910.69 657.231 1912.86C633.626 1915.02 609.111 1916.31 591.756 1916.91L776.83 1871.16ZM584.026 1919.15L583.94 1917.15C585.962 1917.03 588.58 1916.94 591.755 1916.91L591.755 1916.91L584.026 1919.15ZM584.026 1919.15C586.411 1919.08 589.013 1919.01 591.799 1918.91L584.026 1919.15Z" stroke="white" stroke-width="2"/>
<path d="M744.566 73.795L744.907 74.3727C745.012 74.5507 745.121 74.7467 745.24 74.9589C746.072 76.4467 747.35 78.7333 750.613 81.2112C754.35 84.0495 760.711 87.1479 772.002 89.4977C797.602 94.8248 825.682 95.6733 832.48 95.786C832.481 95.786 832.482 95.786 832.482 95.786M744.566 73.795L832.482 95.786M744.566 73.795L744.306 74.4131M744.566 73.795L744.306 74.4131M832.482 95.786C833.19 95.7977 833.665 95.8014 833.881 95.8014C833.928 95.8014 833.958 95.8012 833.973 95.8009C833.986 95.8006 833.978 95.8005 833.966 95.8017C833.963 95.802 833.957 95.8026 833.951 95.8035C833.946 95.8042 833.931 95.8065 833.912 95.8117C833.906 95.8133 833.895 95.8164 833.881 95.8216C833.874 95.8242 833.867 95.8273 833.859 95.8309C833.847 95.8365 833.776 95.8677 833.722 95.9456C833.7 95.9832 833.672 96.07 833.665 96.1297C833.755 96.1308 833.827 96.1319 833.881 96.133C834.037 96.136 834.042 96.1385 833.881 96.1385C833.825 96.1385 833.753 96.1383 833.664 96.1377C833.664 96.1414 833.663 96.1448 833.663 96.1482C833.67 96.2049 833.705 96.3006 833.73 96.3385C833.782 96.4079 833.845 96.4367 833.857 96.4423C833.866 96.4461 833.873 96.4494 833.881 96.4522C833.906 96.4618 833.926 96.4659 833.931 96.4667L833.931 96.4668C833.942 96.469 833.95 96.4701 833.954 96.4706C833.96 96.4715 833.965 96.472 833.967 96.4722L833.969 96.4723C833.97 96.4724 833.97 96.4724 833.966 96.4723C833.96 96.4721 833.947 96.4716 833.924 96.4711C833.912 96.4708 833.897 96.4705 833.881 96.4701C833.854 96.4696 833.822 96.469 833.785 96.4685C833.546 96.4648 833.102 96.461 832.476 96.4602C832.475 96.4602 832.475 96.4602 832.474 96.4602C833.181 96.4718 833.66 96.4756 833.881 96.4756C833.928 96.4756 833.964 96.4754 833.987 96.475L833.988 96.4749C833.995 96.4748 834.014 96.4744 834.031 96.4728C834.035 96.4724 834.04 96.4718 834.048 96.4707C834.053 96.47 834.069 96.4677 834.088 96.4624C834.097 96.4599 834.117 96.4542 834.141 96.4431L834.142 96.4427C834.156 96.4362 834.225 96.4046 834.277 96.3283C834.302 96.2865 834.334 96.1843 834.337 96.1256C834.33 96.0688 834.295 95.9732 834.27 95.9352C834.218 95.8658 834.154 95.837 834.142 95.8313C834.104 95.8136 834.072 95.8074 834.068 95.8066C834.057 95.8044 834.048 95.8031 834.044 95.8025C834.04 95.802 834.036 95.8015 834.033 95.8012C834.029 95.8008 834.026 95.8005 834.024 95.8004C833.994 95.7979 833.908 95.7961 833.795 95.7944C833.553 95.7907 833.108 95.7868 832.482 95.786ZM744.306 74.4131C743.333 76.7217 742.191 78.4863 740.768 79.9189C739.344 81.3521 737.626 82.4661 735.483 83.4576C732.277 84.9413 728.163 86.1343 722.717 87.7137C720.847 88.256 718.82 88.8439 716.618 89.5048C710.297 91.4023 699.816 92.8114 688.883 93.8151C677.963 94.8176 666.623 95.4133 658.594 95.6915L744.306 74.4131ZM655.009 96.4755L654.98 95.802C655.913 95.746 657.122 95.7058 658.59 95.6917L655.009 96.4755ZM655.009 96.4755C656.111 96.4469 657.313 96.4105 658.601 96.3659M655.009 96.4755L658.601 96.3659M658.601 96.3659C658.602 96.3659 658.603 96.3658 658.605 96.3658L658.601 96.3659Z" stroke="black" stroke-width="0.6742"/>
<path d="M84.5648 1791.79L151.773 1905.92C173.843 1891.06 197.254 1907.91 206.2 1918.2L462.882 1765.87C450.201 1735.53 466.907 1716.32 476.845 1710.51L410.512 1599.29C377.925 1609.95 359.17 1594.05 353.865 1584.76L98.741 1738C111.433 1766.55 94.5786 1785.75 84.5648 1791.79Z" fill="white" stroke="black" stroke-width="3"/>
<path d="M367.875 1622.23L437.277 1747.16" stroke="black" stroke-width="3.03494" stroke-dasharray="9.66 9.66"/>
<path d="M121.898 1762.19L191.301 1887.12" stroke="black" stroke-width="3.03494" stroke-dasharray="9.66 9.66"/>
<rect width="1272.71" height="601.517" transform="matrix(0.999995 -0.00327672 0.00532213 0.999986 176.453 1123.11)" fill="white"/>
<path d="M1394.6 1850.27L1452.37 1721.95L179.662 1726.13L238.795 1854.06L1394.6 1850.27Z" fill="white" stroke="black" stroke-width="4"/>
<path d="M1390.18 998.776L1449.16 1119.42L176.455 1124.46L234.373 1003.35L1390.18 998.776Z" fill="white" stroke="black" stroke-width="4"/>
<path d="M89.8719 1663.4L179.67 1727.54L176.455 1123.51L87.3332 1186.4L89.8719 1663.4Z" fill="white" stroke="black" stroke-width="4"/>
<path d="M1078.77 911.157L1114.69 1040.71C1140.24 1031.94 1158.77 1054.61 1164.84 1067.04L1456.52 985.086C1452.06 952.012 1473.48 937.565 1484.75 934.475L1448.92 808.005C1414.17 809.901 1399.95 789.381 1397.19 778.884L1106.79 862.139C1111.74 893.461 1090.17 907.869 1078.77 911.157Z" fill="white" stroke="black" stroke-width="3"/>
<path d="M777.603 1869.33L778.613 1871.04C778.841 1871.42 779.079 1871.85 779.336 1872.3C781.132 1875.51 783.871 1880.4 790.879 1885.71C798.918 1891.81 812.627 1898.48 837.015 1903.55C892.334 1915.04 953.019 1916.87 967.716 1917.11C969.07 1917.11 970.035 1917.12 970.561 1917.13C970.8 1917.13 970.997 1917.14 971.074 1917.15C971.079 1917.15 971.087 1917.15 971.098 1917.15C971.107 1917.15 971.119 1917.15 971.132 1917.15C971.144 1917.15 971.17 1917.16 971.202 1917.16L971.203 1917.16C971.22 1917.17 971.314 1917.19 971.422 1917.24C971.458 1917.25 971.648 1917.34 971.802 1917.55C971.875 1917.66 971.98 1917.94 972 1918.11C971.99 1918.29 971.895 1918.59 971.822 1918.71C971.662 1918.94 971.454 1919.04 971.418 1919.05C971.347 1919.08 971.287 1919.1 971.26 1919.11C971.203 1919.12 971.157 1919.13 971.142 1919.13C971.131 1919.13 971.121 1919.14 971.112 1919.14C971.104 1919.14 971.098 1919.14 971.093 1919.14C971.068 1919.14 971.043 1919.14 971.022 1919.14C970.999 1919.14 970.982 1919.14 970.976 1919.15C970.924 1919.15 970.845 1919.15 970.742 1919.15C970.262 1919.15 969.228 1919.14 967.698 1919.11C953.676 1919.09 897.676 1919.78 851.553 1928.89C824.031 1934.32 805.825 1941.24 794.47 1947.73C788.791 1950.98 784.852 1954.11 782.317 1956.87C779.762 1959.65 778.717 1961.97 778.62 1963.6L776.628 1963.65C776.449 1961.99 775.394 1959.59 772.86 1956.73C770.339 1953.89 766.407 1950.66 760.61 1947.35C749.014 1940.72 730.036 1933.78 700.212 1928.89C649.115 1920.51 610.529 1918.73 591.8 1918.91L777.603 1869.33ZM777.603 1869.33L776.83 1871.16M777.603 1869.33L776.83 1871.16M776.83 1871.16C774.738 1876.11 772.287 1879.89 769.24 1882.95C766.19 1886.01 762.505 1888.4 757.893 1890.53C750.981 1893.73 742.115 1896.29 730.349 1899.7C726.303 1900.87 721.913 1902.14 717.142 1903.57C703.504 1907.66 680.868 1910.69 657.231 1912.86C633.626 1915.02 609.111 1916.31 591.756 1916.91L776.83 1871.16ZM584.026 1919.15L583.94 1917.15C585.962 1917.03 588.58 1916.94 591.755 1916.91L591.755 1916.91L584.026 1919.15ZM584.026 1919.15C586.411 1919.08 589.013 1919.01 591.799 1918.91L584.026 1919.15Z" stroke="white" stroke-width="2"/>
<path d="M84.5648 1791.79L151.773 1905.92C173.843 1891.06 197.254 1907.91 206.2 1918.2L462.882 1765.87C450.201 1735.53 466.907 1716.32 476.845 1710.51L410.512 1599.29C377.925 1609.95 359.17 1594.05 353.865 1584.76L98.741 1738C111.433 1766.55 94.5786 1785.75 84.5648 1791.79Z" fill="white" stroke="black" stroke-width="3"/>
<path d="M367.875 1622.23L437.277 1747.16" stroke="black" stroke-width="3.03494" stroke-dasharray="9.66 9.66"/>
<path d="M121.898 1762.19L191.301 1887.12" stroke="black" stroke-width="3.03494" stroke-dasharray="9.66 9.66"/>
<path d="M1404.36 814.163L1443.03 951.749" stroke="black" stroke-width="3.03494" stroke-dasharray="9.66 9.66"/>
<path d="M1126.53 892.261L1165.21 1029.85" stroke="black" stroke-width="3.03494" stroke-dasharray="9.66 9.66"/>
<path d="M1189.5 856.501L1233.78 844.053L1235.29 849.444L1217.2 854.532C1214.12 855.398 1213.01 857.371 1213.87 860.451L1256.52 1012.17C1257.39 1015.25 1259.36 1016.36 1262.44 1015.49L1280.54 1010.41L1282.05 1015.8L1237.77 1028.25L1189.5 856.501ZM1344.05 992.553L1362.15 987.466C1365.23 986.6 1366.34 984.627 1365.47 981.546L1322.83 829.826C1321.96 826.745 1319.99 825.638 1316.91 826.504L1298.81 831.591L1297.29 826.2L1341.58 813.752L1389.85 985.496L1345.57 997.944L1344.05 992.553Z" fill="black"/>
<path d="M236.488 1799.65C230.876 1800.11 225.916 1799.36 221.607 1797.4C217.362 1795.21 214.074 1792.02 211.743 1787.83C208.125 1781.31 207.193 1774.35 208.946 1766.94C210.699 1759.53 215.482 1753.65 223.297 1749.31C229.375 1745.93 236.458 1743.51 244.545 1742.05C252.633 1740.59 262.988 1739.29 275.61 1738.15C286.318 1737.31 295.13 1736.3 302.044 1735.11C308.958 1733.92 314.513 1732.16 318.71 1729.83C321.025 1728.54 322.609 1726.62 323.461 1724.06C324.313 1721.51 323.936 1718.78 322.328 1715.89C320.64 1712.85 318.437 1710.76 315.72 1709.61C313.002 1708.47 309.754 1707.91 305.976 1707.93L306.483 1701.68C312.094 1701.21 317.022 1702.07 321.267 1704.26C325.576 1706.22 328.896 1709.3 331.228 1713.5C334.845 1720.01 335.777 1726.97 334.025 1734.38C332.272 1741.8 327.488 1747.67 319.673 1752.01C313.595 1755.39 306.513 1757.81 298.425 1759.27C290.337 1760.74 279.982 1762.04 267.36 1763.18C256.652 1764.02 247.841 1765.03 240.927 1766.22C234.013 1767.41 228.457 1769.17 224.261 1771.5C221.945 1772.79 220.361 1774.71 219.509 1777.26C218.657 1779.82 219.035 1782.54 220.642 1785.44C222.331 1788.48 224.533 1790.57 227.251 1791.71C229.968 1792.85 233.216 1793.41 236.994 1793.4L236.488 1799.65Z" fill="black"/>
<mask id="path-34-outside-1_243_1436" maskUnits="userSpaceOnUse" x="175.232" y="571.793" width="1656.06" height="232.007" fill="black">
<rect fill="white" x="175.232" y="571.793" width="1656.06" height="232.007"/>
<path d="M181.431 786.175L192.531 786.121C200.731 786.081 208.021 783.946 214.4 779.715C220.98 775.483 226.055 770.359 229.626 764.341L352.042 581.347L359.242 581.312L360.167 772.41C360.591 777.408 362.007 780.801 364.416 782.589C366.825 784.378 370.229 785.261 374.629 785.24L391.429 785.159L389.075 794.77L300.276 795.2L302.63 785.588L321.23 785.498C325.43 785.478 328.525 784.563 330.516 782.753C332.708 780.943 333.79 777.237 333.763 771.637L333.522 721.838L270.822 722.142L250.568 752.24C243.815 762.073 240.453 769.889 240.481 775.689C240.514 782.489 244.531 785.869 252.53 785.831L269.03 785.751L266.677 795.362L179.078 795.786L181.431 786.175ZM277.376 712.51L333.475 712.238L333.075 629.439L277.376 712.51ZM394.891 785.142L417.69 785.031C423.09 785.005 426.477 782.289 427.851 776.882L475.288 598.451C475.68 596.849 475.874 595.648 475.871 594.848C475.856 591.848 473.749 590.358 469.549 590.378L446.749 590.489L449.403 580.876L537.902 580.447L535.548 590.059L512.748 590.169C507.348 590.195 503.961 592.912 502.588 598.318L455.151 776.75C454.758 778.352 454.564 779.453 454.567 780.053C454.582 783.253 456.69 784.843 460.89 784.822L516.689 784.552C521.889 784.527 527.983 783.298 534.971 780.864C541.959 778.23 548.239 774.2 553.813 768.773C559.386 763.145 564.453 756.321 569.014 748.299C573.775 740.076 577.539 732.657 580.307 726.044C583.075 719.43 584.754 715.222 585.346 713.419L592.546 713.384L567.735 793.905L392.537 794.753L394.891 785.142ZM583.795 784.228L606.594 784.117C611.994 784.091 615.381 781.375 616.755 775.968L664.192 597.536C664.584 595.934 664.778 594.733 664.775 593.933C664.76 590.934 662.653 589.444 658.453 589.464L635.653 589.574L638.307 579.961L726.806 579.533L724.452 589.145L701.652 589.255C696.252 589.281 692.866 591.998 691.492 597.404L644.055 775.836C643.662 777.438 643.468 778.539 643.471 779.139C643.486 782.339 645.594 783.929 649.794 783.908L705.593 783.638C710.793 783.613 716.887 782.383 723.875 779.95C730.863 777.316 737.143 773.285 742.717 767.858C748.29 762.231 753.357 755.407 757.918 747.385C762.679 739.161 766.443 731.743 769.211 725.13C771.979 718.516 773.658 714.308 774.25 712.505L781.45 712.47L756.639 792.991L581.441 793.839L583.795 784.228ZM841.78 782.979L864.58 782.869C869.979 782.843 873.366 780.126 874.74 774.719L922.177 596.288C922.569 594.686 922.764 593.485 922.76 592.685C922.745 589.685 920.638 588.195 916.438 588.216L893.638 588.326L895.992 578.714L984.791 578.285L982.437 587.896L959.638 588.006C954.238 588.033 950.851 590.749 949.477 596.156L902.04 774.587C901.648 776.189 901.453 777.29 901.456 777.89C901.471 781.09 903.579 782.68 907.779 782.66L930.579 782.549L928.225 792.161L839.426 792.591L841.78 782.979ZM1040.27 610.716L1038.77 610.724L1000.16 754.012C998.98 758.418 998.401 762.721 998.421 766.921C998.47 777.121 1003.5 782.196 1013.49 782.148L1027.89 782.078L1025.54 791.69L944.542 792.082L946.896 782.47L961.296 782.401C967.695 782.37 973.282 779.643 978.056 774.219C983.03 768.795 986.498 762.078 988.459 754.069L1030.59 595.763C1030.99 594.161 1031.18 593.06 1031.18 592.46C1031.16 589.26 1029.05 587.67 1024.85 587.691L998.754 587.817L1001.11 578.206L1055.71 577.941L1119.25 752.536L1156.09 615.256C1157.47 610.449 1158.14 606.146 1158.13 602.346C1158.08 592.146 1152.95 587.071 1142.75 587.12L1128.35 587.19L1130.71 577.578L1211.71 577.186L1209.35 586.798L1194.95 586.868C1189.15 586.896 1183.76 589.422 1178.79 594.446C1173.81 599.47 1170.15 606.388 1167.79 615.199L1119.47 796.635L1107.47 796.693L1040.27 610.716ZM1227.79 781.111L1238.89 781.057C1247.09 781.018 1254.38 778.882 1260.76 774.651C1267.33 770.419 1272.41 765.295 1275.98 759.278L1398.4 576.283L1405.6 576.248L1406.52 767.346C1406.95 772.344 1408.36 775.737 1410.77 777.525C1413.18 779.314 1416.58 780.197 1420.98 780.176L1437.78 780.095L1435.43 789.706L1346.63 790.136L1348.98 780.524L1367.58 780.434C1371.78 780.414 1374.88 779.499 1376.87 777.689C1379.06 775.879 1380.14 772.174 1380.12 766.574L1379.88 716.774L1317.18 717.078L1296.92 747.176C1290.17 757.009 1286.81 764.825 1286.84 770.625C1286.87 777.425 1290.89 780.806 1298.89 780.767L1315.39 780.687L1313.03 790.299L1225.43 790.722L1227.79 781.111ZM1323.73 707.446L1379.83 707.174L1379.43 624.375L1323.73 707.446ZM1441.25 780.078L1464.05 779.968C1469.45 779.941 1472.83 777.225 1474.21 771.818L1521.64 593.387C1522.04 591.785 1522.23 590.584 1522.23 589.784C1522.21 586.784 1520.1 585.294 1515.9 585.314L1493.1 585.425L1495.76 575.812L1584.26 575.383L1581.9 584.995L1559.1 585.105C1553.7 585.131 1550.32 587.848 1548.94 593.255L1501.51 771.686C1501.11 773.288 1500.92 774.389 1500.92 774.989C1500.94 778.189 1503.04 779.779 1507.24 779.759L1563.04 779.489C1568.24 779.463 1574.34 778.234 1581.33 775.8C1588.31 773.166 1594.59 769.136 1600.17 763.709C1605.74 758.082 1610.81 751.257 1615.37 743.235C1620.13 735.012 1623.89 727.593 1626.66 720.98C1629.43 714.366 1631.11 710.158 1631.7 708.355L1638.9 708.321L1614.09 788.842L1438.89 789.689L1441.25 780.078ZM1630.15 779.164L1652.95 779.053C1658.35 779.027 1661.74 776.311 1663.11 770.904L1710.55 592.472C1710.94 590.871 1711.13 589.67 1711.13 588.87C1711.11 585.87 1709.01 584.38 1704.81 584.4L1682.01 584.51L1684.66 574.898L1773.16 574.469L1770.81 584.081L1748.01 584.191C1742.61 584.217 1739.22 586.934 1737.85 592.34L1690.41 770.772C1690.02 772.374 1689.82 773.475 1689.83 774.075C1689.84 777.275 1691.95 778.865 1696.15 778.844L1751.95 778.574C1757.15 778.549 1763.24 777.32 1770.23 774.886C1777.22 772.252 1783.5 768.221 1789.07 762.794C1794.64 757.167 1799.71 750.343 1804.27 742.321C1809.03 734.098 1812.8 726.679 1815.57 720.066C1818.33 713.452 1820.01 709.244 1820.6 707.441L1827.8 707.406L1802.99 787.927L1627.8 788.775L1630.15 779.164Z"/>
</mask>
<path d="M181.431 786.175L181.422 784.175L179.86 784.182L179.489 785.699L181.431 786.175ZM214.4 779.715L213.319 778.033L213.307 778.041L213.295 778.048L214.4 779.715ZM229.626 764.341L227.964 763.229L227.934 763.274L227.906 763.321L229.626 764.341ZM352.042 581.347L352.032 579.347L350.97 579.352L350.38 580.235L352.042 581.347ZM359.242 581.312L361.242 581.302L361.232 579.302L359.232 579.312L359.242 581.312ZM360.167 772.41L358.167 772.419L358.167 772.499L358.174 772.579L360.167 772.41ZM364.416 782.589L363.224 784.195L363.224 784.195L364.416 782.589ZM391.429 785.159L393.371 785.634L393.981 783.146L391.419 783.159L391.429 785.159ZM389.075 794.77L389.085 796.77L390.647 796.762L391.018 795.246L389.075 794.77ZM300.276 795.2L298.334 794.724L297.725 797.212L300.286 797.2L300.276 795.2ZM302.63 785.588L302.62 783.588L301.059 783.596L300.687 785.113L302.63 785.588ZM330.516 782.753L329.243 781.212L329.206 781.242L329.171 781.273L330.516 782.753ZM333.522 721.838L335.522 721.828L335.512 719.828L333.512 719.838L333.522 721.838ZM270.822 722.142L270.813 720.142L269.754 720.147L269.163 721.025L270.822 722.142ZM250.568 752.24L252.217 753.372L252.222 753.364L252.227 753.356L250.568 752.24ZM269.03 785.751L270.973 786.227L271.582 783.739L269.021 783.751L269.03 785.751ZM266.677 795.362L266.686 797.362L268.248 797.355L268.619 795.838L266.677 795.362ZM179.078 795.786L177.135 795.311L176.526 797.799L179.087 797.786L179.078 795.786ZM277.376 712.51L275.715 711.396L273.615 714.528L277.386 714.51L277.376 712.51ZM333.475 712.238L333.485 714.238L335.485 714.228L335.475 712.229L333.475 712.238ZM333.075 629.439L335.075 629.429L335.043 622.912L331.413 628.325L333.075 629.439ZM181.441 788.175L192.541 788.121L192.521 784.121L181.422 784.175L181.441 788.175ZM192.541 788.121C201.102 788.08 208.778 785.844 215.506 781.382L213.295 778.048C207.264 782.048 200.361 784.083 192.521 784.121L192.541 788.121ZM215.482 781.397C222.292 777.018 227.599 771.677 231.346 765.362L227.906 763.321C224.512 769.041 219.668 773.949 213.319 778.033L215.482 781.397ZM231.289 765.453L353.704 582.459L350.38 580.235L227.964 763.229L231.289 765.453ZM352.052 583.347L359.252 583.312L359.232 579.312L352.032 579.347L352.052 583.347ZM357.242 581.322L358.167 772.419L362.167 772.4L361.242 581.302L357.242 581.322ZM358.174 772.579C358.615 777.779 360.123 781.893 363.224 784.195L365.608 780.983C363.892 779.709 362.567 777.037 362.16 772.241L358.174 772.579ZM363.224 784.195C366.109 786.337 370 787.262 374.639 787.24L374.619 783.24C370.459 783.26 367.541 782.418 365.608 780.983L363.224 784.195ZM374.639 787.24L391.439 787.159L391.419 783.159L374.619 783.24L374.639 787.24ZM389.486 784.683L387.133 794.294L391.018 795.246L393.371 785.634L389.486 784.683ZM389.066 792.77L300.267 793.2L300.286 797.2L389.085 796.77L389.066 792.77ZM302.219 795.675L304.572 786.064L300.687 785.113L298.334 794.724L302.219 795.675ZM302.64 787.588L321.239 787.498L321.22 783.498L302.62 783.588L302.64 787.588ZM321.239 787.498C325.668 787.477 329.347 786.519 331.862 784.233L329.171 781.273C327.703 782.607 325.191 783.479 321.22 783.498L321.239 787.498ZM331.79 784.295C334.736 781.862 335.79 777.303 335.763 771.628L331.763 771.647C331.789 777.172 330.68 780.024 329.243 781.212L331.79 784.295ZM335.763 771.628L335.522 721.828L331.522 721.848L331.763 771.647L335.763 771.628ZM333.512 719.838L270.813 720.142L270.832 724.141L333.531 723.838L333.512 719.838ZM269.163 721.025L248.909 751.123L252.227 753.356L272.482 723.258L269.163 721.025ZM248.919 751.108C242.135 760.986 238.45 769.242 238.481 775.699L242.481 775.679C242.456 770.536 245.495 763.159 252.217 753.372L248.919 751.108ZM238.481 775.699C238.5 779.5 239.648 782.681 242.23 784.854C244.75 786.975 248.304 787.851 252.54 787.831L252.521 783.831C248.757 783.849 246.303 783.054 244.806 781.794C243.372 780.587 242.496 778.678 242.481 775.679L238.481 775.699ZM252.54 787.831L269.04 787.751L269.021 783.751L252.521 783.831L252.54 787.831ZM267.088 785.275L264.734 794.887L268.619 795.838L270.973 786.227L267.088 785.275ZM266.667 793.362L179.068 793.786L179.087 797.786L266.686 797.362L266.667 793.362ZM181.02 796.262L183.374 786.651L179.489 785.699L177.135 795.311L181.02 796.262ZM277.386 714.51L333.485 714.238L333.466 710.238L277.366 710.51L277.386 714.51ZM335.475 712.229L335.075 629.429L331.075 629.449L331.475 712.248L335.475 712.229ZM331.413 628.325L275.715 711.396L279.037 713.623L334.736 630.553L331.413 628.325ZM394.891 785.142L394.881 783.142L393.319 783.149L392.948 784.666L394.891 785.142ZM427.851 776.882L425.918 776.368L425.915 776.379L425.913 776.39L427.851 776.882ZM475.288 598.451L477.221 598.964L477.226 598.945L477.231 598.926L475.288 598.451ZM446.749 590.489L444.821 589.956L444.119 592.501L446.759 592.489L446.749 590.489ZM449.403 580.876L449.393 578.876L447.878 578.883L447.475 580.343L449.403 580.876ZM537.902 580.447L539.844 580.923L540.453 578.435L537.892 578.447L537.902 580.447ZM535.548 590.059L535.558 592.059L537.119 592.051L537.491 590.535L535.548 590.059ZM502.588 598.318L504.52 598.832L504.523 598.822L504.526 598.811L502.588 598.318ZM455.151 776.75L453.218 776.236L453.213 776.255L453.208 776.274L455.151 776.75ZM534.971 780.864L535.629 782.753L535.653 782.744L535.677 782.735L534.971 780.864ZM553.813 768.773L555.208 770.205L555.221 770.193L555.234 770.18L553.813 768.773ZM569.014 748.299L567.283 747.297L567.279 747.303L567.276 747.31L569.014 748.299ZM580.307 726.044L578.462 725.272L578.462 725.272L580.307 726.044ZM585.346 713.419L585.336 711.419L583.894 711.426L583.445 712.796L585.346 713.419ZM592.546 713.384L594.457 713.973L595.259 711.371L592.536 711.384L592.546 713.384ZM567.735 793.905L567.745 795.905L569.214 795.898L569.646 794.494L567.735 793.905ZM392.537 794.753L390.594 794.278L389.985 796.766L392.547 796.753L392.537 794.753ZM394.9 787.142L417.7 787.031L417.681 783.032L394.881 783.142L394.9 787.142ZM417.7 787.031C420.739 787.017 423.407 786.239 425.532 784.535C427.65 782.836 429.026 780.378 429.789 777.375L425.913 776.39C425.302 778.793 424.298 780.397 423.029 781.414C421.767 782.427 420.042 783.02 417.681 783.032L417.7 787.031ZM429.784 777.396L477.221 598.964L473.355 597.937L425.918 776.368L429.784 777.396ZM477.231 598.926C477.63 597.296 477.876 595.896 477.871 594.838L473.871 594.857C473.873 595.399 473.731 596.401 473.345 597.975L477.231 598.926ZM477.871 594.838C477.861 592.812 477.106 591.029 475.434 589.847C473.886 588.753 471.817 588.367 469.539 588.378L469.558 592.378C471.481 592.369 472.565 592.718 473.125 593.113C473.56 593.421 473.866 593.883 473.871 594.857L477.871 594.838ZM469.539 588.378L446.739 588.489L446.759 592.489L469.558 592.378L469.539 588.378ZM448.677 591.021L451.331 581.408L447.475 580.343L444.821 589.956L448.677 591.021ZM449.412 582.876L537.911 582.447L537.892 578.447L449.393 578.876L449.412 582.876ZM535.959 579.972L533.605 589.583L537.491 590.535L539.844 580.923L535.959 579.972ZM535.538 588.059L512.739 588.169L512.758 592.169L535.558 592.059L535.538 588.059ZM512.739 588.169C509.7 588.184 507.032 588.962 504.907 590.666C502.789 592.365 501.412 594.822 500.649 597.826L504.526 598.811C505.137 596.408 506.141 594.804 507.41 593.786C508.672 592.774 510.397 592.181 512.758 592.169L512.739 588.169ZM500.655 597.805L453.218 776.236L457.083 777.264L504.52 598.832L500.655 597.805ZM453.208 776.274C452.822 777.851 452.562 779.181 452.567 780.063L456.567 780.043C456.565 779.725 456.695 778.853 457.093 777.226L453.208 776.274ZM452.567 780.063C452.577 782.139 453.295 783.99 454.955 785.242C456.511 786.416 458.602 786.834 460.899 786.822L460.88 782.822C458.977 782.832 457.915 782.465 457.363 782.049C456.915 781.71 456.572 781.167 456.567 780.043L452.567 780.063ZM460.899 786.822L516.699 786.552L516.679 782.552L460.88 782.822L460.899 786.822ZM516.699 786.552C522.191 786.526 528.513 785.231 535.629 782.753L534.314 778.975C527.453 781.365 521.587 782.529 516.679 782.552L516.699 786.552ZM535.677 782.735C542.933 780 549.446 775.816 555.208 770.205L552.418 767.34C547.033 772.583 540.985 776.46 534.266 778.992L535.677 782.735ZM555.234 770.18C560.949 764.409 566.119 757.438 570.753 749.287L567.276 747.31C562.787 755.204 557.823 761.882 552.392 767.365L555.234 770.18ZM570.745 749.301C575.535 741.026 579.342 733.529 582.152 726.816L578.462 725.272C575.735 731.786 572.014 739.125 567.283 747.297L570.745 749.301ZM582.152 726.816C584.909 720.227 586.625 715.937 587.246 714.043L583.445 712.796C582.884 714.507 581.24 718.634 578.462 725.272L582.152 726.816ZM585.355 715.419L592.555 715.384L592.536 711.384L585.336 711.419L585.355 715.419ZM590.634 712.796L565.824 793.317L569.646 794.494L594.457 713.973L590.634 712.796ZM567.725 791.905L392.527 792.753L392.547 796.753L567.745 795.905L567.725 791.905ZM394.48 795.229L396.833 785.617L392.948 784.666L390.594 794.278L394.48 795.229ZM583.795 784.228L583.785 782.228L582.223 782.235L581.852 783.752L583.795 784.228ZM616.755 775.968L614.822 775.454L614.819 775.465L614.817 775.475L616.755 775.968ZM664.192 597.536L666.125 598.05L666.13 598.031L666.135 598.012L664.192 597.536ZM635.653 589.574L633.725 589.042L633.023 591.587L635.663 591.574L635.653 589.574ZM638.307 579.961L638.297 577.961L636.782 577.969L636.379 579.429L638.307 579.961ZM726.806 579.533L728.748 580.009L729.357 577.521L726.796 577.533L726.806 579.533ZM724.452 589.145L724.462 591.145L726.023 591.137L726.395 589.62L724.452 589.145ZM691.492 597.404L693.425 597.918L693.427 597.907L693.43 597.897L691.492 597.404ZM644.055 775.836L642.122 775.322L642.117 775.341L642.112 775.36L644.055 775.836ZM723.875 779.95L724.533 781.838L724.557 781.83L724.581 781.821L723.875 779.95ZM742.717 767.858L744.112 769.291L744.125 769.279L744.138 769.266L742.717 767.858ZM757.918 747.385L756.187 746.383L756.183 746.389L756.18 746.396L757.918 747.385ZM769.211 725.13L767.366 724.357L767.366 724.357L769.211 725.13ZM774.25 712.505L774.24 710.505L772.798 710.512L772.349 711.882L774.25 712.505ZM781.45 712.47L783.361 713.059L784.163 710.457L781.44 710.47L781.45 712.47ZM756.639 792.991L756.649 794.991L758.118 794.984L758.55 793.58L756.639 792.991ZM581.441 793.839L579.498 793.363L578.889 795.851L581.451 795.839L581.441 793.839ZM583.804 786.228L606.604 786.117L606.585 782.117L583.785 782.228L583.804 786.228ZM606.604 786.117C609.643 786.103 612.311 785.325 614.436 783.621C616.554 781.922 617.93 779.464 618.693 776.461L614.817 775.475C614.206 777.878 613.202 779.483 611.933 780.5C610.671 781.513 608.946 782.106 606.585 782.117L606.604 786.117ZM618.688 776.482L666.125 598.05L662.259 597.022L614.822 775.454L618.688 776.482ZM666.135 598.012C666.534 596.382 666.78 594.982 666.775 593.924L662.775 593.943C662.777 594.485 662.635 595.487 662.249 597.061L666.135 598.012ZM666.775 593.924C666.765 591.898 666.01 590.115 664.338 588.933C662.79 587.839 660.721 587.453 658.443 587.464L658.463 591.464C660.385 591.455 661.469 591.804 662.029 592.199C662.464 592.507 662.77 592.969 662.775 593.943L666.775 593.924ZM658.443 587.464L635.643 587.574L635.663 591.574L658.463 591.464L658.443 587.464ZM637.581 590.107L640.235 580.494L636.379 579.429L633.725 589.042L637.581 590.107ZM638.316 581.961L726.815 581.533L726.796 577.533L638.297 577.961L638.316 581.961ZM724.863 579.057L722.509 588.669L726.395 589.62L728.748 580.009L724.863 579.057ZM724.442 587.145L701.643 587.255L701.662 591.255L724.462 591.145L724.442 587.145ZM701.643 587.255C698.604 587.27 695.936 588.048 693.811 589.752C691.693 591.451 690.317 593.908 689.553 596.912L693.43 597.897C694.041 595.494 695.045 593.89 696.314 592.872C697.576 591.86 699.301 591.266 701.662 591.255L701.643 587.255ZM689.559 596.89L642.122 775.322L645.987 776.35L693.425 597.918L689.559 596.89ZM642.112 775.36C641.726 776.936 641.466 778.267 641.471 779.148L645.471 779.129C645.469 778.811 645.599 777.939 645.997 776.312L642.112 775.36ZM641.471 779.148C641.481 781.225 642.199 783.076 643.859 784.328C645.415 785.502 647.506 785.919 649.803 785.908L649.784 781.908C647.881 781.917 646.819 781.55 646.267 781.134C645.819 780.796 645.476 780.253 645.471 779.129L641.471 779.148ZM649.803 785.908L705.603 785.638L705.583 781.638L649.784 781.908L649.803 785.908ZM705.603 785.638C711.095 785.612 717.417 784.317 724.533 781.838L723.218 778.061C716.357 780.45 710.491 781.614 705.583 781.638L705.603 785.638ZM724.581 781.821C731.837 779.086 738.35 774.902 744.112 769.291L741.322 766.425C735.937 771.669 729.889 775.546 723.17 778.078L724.581 781.821ZM744.138 769.266C749.853 763.495 755.023 756.524 759.657 748.373L756.18 746.396C751.691 754.29 746.727 760.968 741.296 766.451L744.138 769.266ZM759.649 748.387C764.439 740.112 768.246 732.615 771.056 725.902L767.366 724.357C764.639 730.871 760.918 738.211 756.187 746.383L759.649 748.387ZM771.056 725.902C773.813 719.313 775.529 715.023 776.15 713.128L772.349 711.882C771.788 713.593 770.144 717.719 767.366 724.357L771.056 725.902ZM774.259 714.505L781.459 714.47L781.44 710.47L774.24 710.505L774.259 714.505ZM779.538 711.881L754.728 792.402L758.55 793.58L783.361 713.059L779.538 711.881ZM756.629 790.991L581.431 791.839L581.451 795.839L756.649 794.991L756.629 790.991ZM583.384 794.315L585.737 784.703L581.852 783.752L579.498 793.363L583.384 794.315ZM841.78 782.979L841.77 780.979L840.209 780.987L839.837 782.503L841.78 782.979ZM874.74 774.719L872.807 774.206L872.805 774.216L872.802 774.227L874.74 774.719ZM922.177 596.288L924.11 596.802L924.115 596.783L924.12 596.763L922.177 596.288ZM893.638 588.326L891.696 587.85L891.087 590.338L893.648 590.326L893.638 588.326ZM895.992 578.714L895.982 576.714L894.421 576.722L894.049 578.239L895.992 578.714ZM984.791 578.285L986.733 578.76L987.343 576.272L984.781 576.285L984.791 578.285ZM982.437 587.896L982.447 589.896L984.009 589.889L984.38 588.372L982.437 587.896ZM949.477 596.156L951.41 596.67L951.413 596.659L951.415 596.648L949.477 596.156ZM902.04 774.587L900.107 774.073L900.102 774.093L900.097 774.112L902.04 774.587ZM930.579 782.549L932.521 783.025L933.131 780.537L930.569 780.549L930.579 782.549ZM928.225 792.161L928.235 794.161L929.796 794.153L930.168 792.637L928.225 792.161ZM839.426 792.591L837.484 792.115L836.874 794.603L839.436 794.591L839.426 792.591ZM841.789 784.979L864.589 784.869L864.57 780.869L841.77 780.979L841.789 784.979ZM864.589 784.869C867.628 784.854 870.296 784.076 872.421 782.372C874.539 780.673 875.915 778.216 876.679 775.212L872.802 774.227C872.191 776.63 871.187 778.234 869.918 779.252C868.656 780.264 866.931 780.857 864.57 780.869L864.589 784.869ZM876.673 775.233L924.11 596.802L920.244 595.774L872.807 774.206L876.673 775.233ZM924.12 596.763C924.519 595.133 924.765 593.734 924.76 592.675L920.76 592.695C920.762 593.236 920.62 594.238 920.235 595.812L924.12 596.763ZM924.76 592.675C924.75 590.65 923.995 588.867 922.323 587.685C920.775 586.59 918.706 586.205 916.428 586.216L916.448 590.215C918.37 590.206 919.454 590.555 920.014 590.951C920.449 591.258 920.755 591.72 920.76 592.695L924.76 592.675ZM916.428 586.216L893.629 586.326L893.648 590.326L916.448 590.215L916.428 586.216ZM895.581 588.802L897.934 579.19L894.049 578.239L891.696 587.85L895.581 588.802ZM896.002 580.714L984.801 580.285L984.781 576.285L895.982 576.714L896.002 580.714ZM982.848 577.809L980.495 587.42L984.38 588.372L986.733 578.76L982.848 577.809ZM982.428 585.896L959.628 586.006L959.647 590.006L982.447 589.896L982.428 585.896ZM959.628 586.006C956.589 586.021 953.921 586.799 951.796 588.503C949.678 590.202 948.302 592.659 947.539 595.663L951.415 596.648C952.026 594.245 953.03 592.641 954.299 591.624C955.561 590.611 957.286 590.018 959.647 590.006L959.628 586.006ZM947.544 595.642L900.107 774.073L903.973 775.101L951.41 596.67L947.544 595.642ZM900.097 774.112C899.711 775.688 899.452 777.018 899.456 777.9L903.456 777.881C903.454 777.562 903.584 776.691 903.982 775.063L900.097 774.112ZM899.456 777.9C899.466 779.976 900.184 781.828 901.844 783.079C903.4 784.253 905.491 784.671 907.789 784.66L907.769 780.66C905.867 780.669 904.804 780.302 904.253 779.886C903.804 779.548 903.461 779.004 903.456 777.881L899.456 777.9ZM907.789 784.66L930.588 784.549L930.569 780.549L907.769 780.66L907.789 784.66ZM928.636 782.074L926.283 791.685L930.168 792.637L932.521 783.025L928.636 782.074ZM928.216 790.161L839.417 790.591L839.436 794.591L928.235 794.161L928.216 790.161ZM841.369 793.066L843.722 783.455L839.837 782.503L837.484 792.115L841.369 793.066ZM1040.27 610.716L1042.15 610.037L1041.67 608.71L1040.26 608.717L1040.27 610.716ZM1038.77 610.724L1038.76 608.724L1037.23 608.731L1036.83 610.203L1038.77 610.724ZM1000.16 754.012L998.228 753.492L998.227 753.495L1000.16 754.012ZM1027.89 782.078L1029.84 782.554L1030.45 780.066L1027.89 780.078L1027.89 782.078ZM1025.54 791.69L1025.55 793.69L1027.11 793.682L1027.48 792.166L1025.54 791.69ZM944.542 792.082L942.6 791.606L941.99 794.094L944.552 794.082L944.542 792.082ZM946.896 782.47L946.886 780.47L945.325 780.478L944.953 781.995L946.896 782.47ZM978.056 774.219L976.582 772.868L976.568 772.883L976.555 772.898L978.056 774.219ZM988.459 754.069L986.526 753.554L986.521 753.574L986.516 753.593L988.459 754.069ZM1030.59 595.763L1032.53 596.278L1032.53 596.258L1032.54 596.239L1030.59 595.763ZM998.754 587.817L996.812 587.341L996.202 589.83L998.764 589.817L998.754 587.817ZM1001.11 578.206L1001.1 576.206L999.537 576.213L999.165 577.73L1001.11 578.206ZM1055.71 577.941L1057.59 577.257L1057.11 575.935L1055.7 575.941L1055.71 577.941ZM1119.25 752.536L1117.37 753.22L1119.54 759.177L1121.18 753.054L1119.25 752.536ZM1156.09 615.256L1154.17 614.705L1154.16 614.721L1154.16 614.738L1156.09 615.256ZM1128.35 587.19L1126.41 586.714L1125.8 589.202L1128.36 589.19L1128.35 587.19ZM1130.71 577.578L1130.7 575.578L1129.14 575.586L1128.76 577.103L1130.71 577.578ZM1211.71 577.186L1213.65 577.662L1214.26 575.174L1211.7 575.186L1211.71 577.186ZM1209.35 586.798L1209.36 588.798L1210.92 588.79L1211.29 587.274L1209.35 586.798ZM1178.79 594.446L1180.21 595.853L1180.21 595.853L1178.79 594.446ZM1167.79 615.199L1165.86 614.683L1165.86 614.685L1167.79 615.199ZM1119.47 796.635L1119.48 798.635L1121.01 798.628L1121.4 797.15L1119.47 796.635ZM1107.47 796.693L1105.59 797.373L1106.07 798.7L1107.48 798.693L1107.47 796.693ZM1040.26 608.717L1038.76 608.724L1038.78 612.724L1040.28 612.716L1040.26 608.717ZM1036.83 610.203L998.228 753.492L1002.09 754.533L1040.7 611.244L1036.83 610.203ZM998.227 753.495C997.006 758.058 996.4 762.538 996.421 766.931L1000.42 766.911C1000.4 762.903 1000.95 758.778 1002.09 754.529L998.227 753.495ZM996.421 766.931C996.447 772.329 997.792 776.741 1000.81 779.785C1003.83 782.836 1008.19 784.174 1013.5 784.148L1013.49 780.148C1008.8 780.171 1005.65 778.995 1003.65 776.971C1001.64 774.939 1000.44 771.713 1000.42 766.911L996.421 766.931ZM1013.5 784.148L1027.9 784.078L1027.89 780.078L1013.49 780.148L1013.5 784.148ZM1025.95 781.603L1023.6 791.214L1027.48 792.166L1029.84 782.554L1025.95 781.603ZM1025.53 789.69L944.533 790.082L944.552 794.082L1025.55 793.69L1025.53 789.69ZM946.485 792.558L948.838 782.946L944.953 781.995L942.6 791.606L946.485 792.558ZM946.905 784.47L961.305 784.401L961.286 780.401L946.886 780.47L946.905 784.47ZM961.305 784.401C968.353 784.367 974.46 781.331 979.557 775.541L976.555 772.898C972.105 777.954 967.038 780.373 961.286 780.401L961.305 784.401ZM979.53 775.571C984.758 769.87 988.37 762.841 990.401 754.545L986.516 753.593C984.625 761.316 981.302 767.72 976.582 772.868L979.53 775.571ZM990.391 754.583L1032.53 596.278L1028.66 595.249L986.526 753.554L990.391 754.583ZM1032.54 596.239C1032.92 594.663 1033.18 593.332 1033.18 592.451L1029.18 592.47C1029.18 592.788 1029.05 593.66 1028.65 595.287L1032.54 596.239ZM1033.18 592.451C1033.17 590.374 1032.45 588.523 1030.79 587.271C1029.23 586.097 1027.14 585.68 1024.84 585.691L1024.86 589.691C1026.77 589.682 1027.83 590.049 1028.38 590.465C1028.83 590.803 1029.17 591.346 1029.18 592.47L1033.18 592.451ZM1024.84 585.691L998.745 585.817L998.764 589.817L1024.86 589.691L1024.84 585.691ZM1000.7 588.293L1003.05 578.681L999.165 577.73L996.812 587.341L1000.7 588.293ZM1001.12 580.206L1055.72 579.941L1055.7 575.941L1001.1 576.206L1001.12 580.206ZM1053.83 578.625L1117.37 753.22L1121.13 751.852L1057.59 577.257L1053.83 578.625ZM1121.18 753.054L1158.02 615.774L1154.16 614.738L1117.32 752.018L1121.18 753.054ZM1158.01 615.807C1159.43 610.872 1160.15 606.375 1160.13 602.336L1156.13 602.356C1156.14 605.917 1155.51 610.027 1154.17 614.705L1158.01 615.807ZM1160.13 602.336C1160.1 596.928 1158.73 592.511 1155.65 589.469C1152.58 586.426 1148.15 585.094 1142.74 585.12L1142.76 589.12C1147.55 589.097 1150.79 590.278 1152.84 592.311C1154.89 594.343 1156.1 597.564 1156.13 602.356L1160.13 602.336ZM1142.74 585.12L1128.34 585.19L1128.36 589.19L1142.76 589.12L1142.74 585.12ZM1130.3 587.666L1132.65 578.054L1128.76 577.103L1126.41 586.714L1130.3 587.666ZM1130.72 579.578L1211.72 579.186L1211.7 575.186L1130.7 575.578L1130.72 579.578ZM1209.76 576.711L1207.41 586.322L1211.29 587.274L1213.65 577.662L1209.76 576.711ZM1209.34 584.798L1194.94 584.868L1194.96 588.868L1209.36 588.798L1209.34 584.798ZM1194.94 584.868C1188.5 584.899 1182.63 587.726 1177.37 593.039L1180.21 595.853C1184.9 591.118 1189.8 588.893 1194.96 588.868L1194.94 584.868ZM1177.37 593.039C1172.09 598.372 1168.28 605.63 1165.86 614.683L1169.72 615.716C1172.01 607.146 1175.54 600.568 1180.21 595.853L1177.37 593.039ZM1165.86 614.685L1117.53 796.121L1121.4 797.15L1169.72 615.714L1165.86 614.685ZM1119.46 794.635L1107.46 794.693L1107.48 798.693L1119.48 798.635L1119.46 794.635ZM1109.35 796.014L1042.15 610.037L1038.38 611.396L1105.59 797.373L1109.35 796.014ZM1227.79 781.111L1227.78 779.111L1226.21 779.119L1225.84 780.635L1227.79 781.111ZM1260.76 774.651L1259.67 772.969L1259.66 772.977L1259.65 772.985L1260.76 774.651ZM1275.98 759.278L1274.32 758.165L1274.29 758.21L1274.26 758.257L1275.98 759.278ZM1398.4 576.283L1398.39 574.283L1397.33 574.288L1396.73 575.171L1398.4 576.283ZM1405.6 576.248L1407.6 576.238L1407.59 574.238L1405.59 574.248L1405.6 576.248ZM1406.52 767.346L1404.52 767.356L1404.52 767.435L1404.53 767.515L1406.52 767.346ZM1410.77 777.525L1409.58 779.131L1409.58 779.131L1410.77 777.525ZM1437.78 780.095L1439.73 780.57L1440.34 778.082L1437.77 778.095L1437.78 780.095ZM1435.43 789.706L1435.44 791.706L1437 791.699L1437.37 790.182L1435.43 789.706ZM1346.63 790.136L1344.69 789.66L1344.08 792.148L1346.64 792.136L1346.63 790.136ZM1348.98 780.524L1348.98 778.524L1347.41 778.532L1347.04 780.049L1348.98 780.524ZM1376.87 777.689L1375.6 776.148L1375.56 776.178L1375.53 776.209L1376.87 777.689ZM1379.88 716.774L1381.88 716.765L1381.87 714.765L1379.87 714.774L1379.88 716.774ZM1317.18 717.078L1317.17 715.078L1316.11 715.083L1315.52 715.961L1317.18 717.078ZM1296.92 747.176L1298.57 748.308L1298.58 748.3L1298.58 748.293L1296.92 747.176ZM1315.39 780.687L1317.33 781.163L1317.94 778.675L1315.38 778.687L1315.39 780.687ZM1313.03 790.299L1313.04 792.299L1314.6 792.291L1314.97 790.774L1313.03 790.299ZM1225.43 790.722L1223.49 790.247L1222.88 792.735L1225.44 792.722L1225.43 790.722ZM1323.73 707.446L1322.07 706.332L1319.97 709.464L1323.74 709.446L1323.73 707.446ZM1379.83 707.174L1379.84 709.174L1381.84 709.165L1381.83 707.165L1379.83 707.174ZM1379.43 624.375L1381.43 624.366L1381.4 617.848L1377.77 623.261L1379.43 624.375ZM1227.8 783.111L1238.9 783.057L1238.88 779.057L1227.78 779.111L1227.8 783.111ZM1238.9 783.057C1247.46 783.016 1255.13 780.78 1261.86 776.318L1259.65 772.985C1253.62 776.984 1246.72 779.019 1238.88 779.057L1238.9 783.057ZM1261.84 776.333C1268.65 771.954 1273.95 766.613 1277.7 760.298L1274.26 758.257C1270.87 763.977 1266.02 768.885 1259.67 772.969L1261.84 776.333ZM1277.64 760.39L1400.06 577.395L1396.73 575.171L1274.32 758.165L1277.64 760.39ZM1398.41 578.283L1405.61 578.248L1405.59 574.248L1398.39 574.283L1398.41 578.283ZM1403.6 576.258L1404.52 767.356L1408.52 767.336L1407.6 576.238L1403.6 576.258ZM1404.53 767.515C1404.97 772.715 1406.48 776.829 1409.58 779.131L1411.96 775.92C1410.25 774.645 1408.92 771.973 1408.51 767.177L1404.53 767.515ZM1409.58 779.131C1412.46 781.273 1416.35 782.198 1420.99 782.176L1420.97 778.176C1416.81 778.196 1413.9 777.355 1411.96 775.92L1409.58 779.131ZM1420.99 782.176L1437.79 782.095L1437.77 778.095L1420.97 778.176L1420.99 782.176ZM1435.84 779.619L1433.49 789.231L1437.37 790.182L1439.73 780.57L1435.84 779.619ZM1435.42 787.706L1346.62 788.136L1346.64 792.136L1435.44 791.706L1435.42 787.706ZM1348.57 790.612L1350.93 781L1347.04 780.049L1344.69 789.66L1348.57 790.612ZM1348.99 782.524L1367.59 782.434L1367.57 778.434L1348.98 778.524L1348.99 782.524ZM1367.59 782.434C1372.02 782.413 1375.7 781.455 1378.22 779.17L1375.53 776.209C1374.06 777.543 1371.55 778.415 1367.57 778.434L1367.59 782.434ZM1378.15 779.231C1381.09 776.798 1382.15 772.239 1382.12 766.564L1378.12 766.583C1378.14 772.108 1377.03 774.96 1375.6 776.148L1378.15 779.231ZM1382.12 766.564L1381.88 716.765L1377.88 716.784L1378.12 766.583L1382.12 766.564ZM1379.87 714.774L1317.17 715.078L1317.19 719.078L1379.89 718.774L1379.87 714.774ZM1315.52 715.961L1295.26 746.059L1298.58 748.293L1318.84 718.194L1315.52 715.961ZM1295.27 746.044C1288.49 755.922 1284.8 764.179 1284.84 770.635L1288.84 770.615C1288.81 765.472 1291.85 758.095 1298.57 748.308L1295.27 746.044ZM1284.84 770.635C1284.85 774.436 1286 777.617 1288.59 779.791C1291.1 781.911 1294.66 782.787 1298.9 782.767L1298.88 778.767C1295.11 778.785 1292.66 777.99 1291.16 776.73C1289.73 775.523 1288.85 773.614 1288.84 770.615L1284.84 770.635ZM1298.9 782.767L1315.39 782.687L1315.38 778.687L1298.88 778.767L1298.9 782.767ZM1313.44 780.211L1311.09 789.823L1314.97 790.774L1317.33 781.163L1313.44 780.211ZM1313.02 788.299L1225.42 788.723L1225.44 792.722L1313.04 792.299L1313.02 788.299ZM1227.38 791.198L1229.73 781.587L1225.84 780.635L1223.49 790.247L1227.38 791.198ZM1323.74 709.446L1379.84 709.174L1379.82 705.174L1323.72 705.446L1323.74 709.446ZM1381.83 707.165L1381.43 624.366L1377.43 624.385L1377.83 707.184L1381.83 707.165ZM1377.77 623.261L1322.07 706.332L1325.39 708.56L1381.09 625.489L1377.77 623.261ZM1441.25 780.078L1441.24 778.078L1439.67 778.086L1439.3 779.602L1441.25 780.078ZM1474.21 771.818L1472.27 771.304L1472.27 771.315L1472.27 771.326L1474.21 771.818ZM1521.64 593.387L1523.58 593.901L1523.58 593.881L1523.59 593.862L1521.64 593.387ZM1493.1 585.425L1491.18 584.893L1490.47 587.437L1493.11 587.425L1493.1 585.425ZM1495.76 575.812L1495.75 573.812L1494.23 573.819L1493.83 575.28L1495.76 575.812ZM1584.26 575.383L1586.2 575.859L1586.81 573.371L1584.25 573.383L1584.26 575.383ZM1581.9 584.995L1581.91 586.995L1583.47 586.987L1583.85 585.471L1581.9 584.995ZM1548.94 593.255L1550.88 593.768L1550.88 593.758L1550.88 593.747L1548.94 593.255ZM1501.51 771.686L1499.57 771.172L1499.57 771.191L1499.56 771.211L1501.51 771.686ZM1581.33 775.8L1581.98 777.689L1582.01 777.68L1582.03 777.671L1581.33 775.8ZM1600.17 763.709L1601.56 765.142L1601.58 765.129L1601.59 765.116L1600.17 763.709ZM1615.37 743.235L1613.64 742.233L1613.63 742.24L1613.63 742.246L1615.37 743.235ZM1626.66 720.98L1624.82 720.208L1624.82 720.208L1626.66 720.98ZM1631.7 708.355L1631.69 706.355L1630.25 706.362L1629.8 707.732L1631.7 708.355ZM1638.9 708.321L1640.81 708.909L1641.61 706.307L1638.89 706.321L1638.9 708.321ZM1614.09 788.842L1614.1 790.842L1615.57 790.834L1616 789.431L1614.09 788.842ZM1438.89 789.689L1436.95 789.214L1436.34 791.702L1438.9 791.689L1438.89 789.689ZM1441.26 782.078L1464.05 781.968L1464.04 777.968L1441.24 778.078L1441.26 782.078ZM1464.05 781.968C1467.09 781.953 1469.76 781.175 1471.89 779.471C1474 777.772 1475.38 775.315 1476.14 772.311L1472.27 771.326C1471.66 773.729 1470.65 775.333 1469.38 776.351C1468.12 777.363 1466.4 777.956 1464.04 777.968L1464.05 781.968ZM1476.14 772.332L1523.58 593.901L1519.71 592.873L1472.27 771.304L1476.14 772.332ZM1523.59 593.862C1523.98 592.232 1524.23 590.832 1524.23 589.774L1520.23 589.793C1520.23 590.335 1520.09 591.337 1519.7 592.911L1523.59 593.862ZM1524.23 589.774C1524.22 587.748 1523.46 585.966 1521.79 584.783C1520.24 583.689 1518.17 583.303 1515.89 583.314L1515.91 587.314C1517.84 587.305 1518.92 587.654 1519.48 588.05C1519.91 588.357 1520.22 588.819 1520.23 589.793L1524.23 589.774ZM1515.89 583.314L1493.09 583.425L1493.11 587.425L1515.91 587.314L1515.89 583.314ZM1495.03 585.957L1497.69 576.344L1493.83 575.28L1491.18 584.893L1495.03 585.957ZM1495.77 577.812L1584.27 577.383L1584.25 573.383L1495.75 573.812L1495.77 577.812ZM1582.31 574.908L1579.96 584.519L1583.85 585.471L1586.2 575.859L1582.31 574.908ZM1581.89 582.995L1559.09 583.105L1559.11 587.105L1581.91 586.995L1581.89 582.995ZM1559.09 583.105C1556.05 583.12 1553.39 583.898 1551.26 585.602C1549.14 587.301 1547.77 589.758 1547 592.762L1550.88 593.747C1551.49 591.344 1552.5 589.74 1553.76 588.722C1555.03 587.71 1556.75 587.117 1559.11 587.105L1559.09 583.105ZM1547.01 592.741L1499.57 771.172L1503.44 772.2L1550.88 593.768L1547.01 592.741ZM1499.56 771.211C1499.18 772.787 1498.92 774.117 1498.92 774.999L1502.92 774.979C1502.92 774.661 1503.05 773.789 1503.45 772.162L1499.56 771.211ZM1498.92 774.999C1498.93 777.075 1499.65 778.926 1501.31 780.178C1502.87 781.352 1504.96 781.77 1507.25 781.759L1507.23 777.759C1505.33 777.768 1504.27 777.401 1503.72 776.985C1503.27 776.647 1502.93 776.103 1502.92 774.979L1498.92 774.999ZM1507.25 781.759L1563.05 781.488L1563.03 777.489L1507.23 777.759L1507.25 781.759ZM1563.05 781.488C1568.55 781.462 1574.87 780.167 1581.98 777.689L1580.67 773.911C1573.81 776.301 1567.94 777.465 1563.03 777.489L1563.05 781.488ZM1582.03 777.671C1589.29 774.936 1595.8 770.753 1601.56 765.142L1598.77 762.276C1593.39 767.519 1587.34 771.396 1580.62 773.929L1582.03 777.671ZM1601.59 765.116C1607.3 759.345 1612.47 752.374 1617.11 744.223L1613.63 742.246C1609.14 750.14 1604.18 756.818 1598.75 762.301L1601.59 765.116ZM1617.1 744.237C1621.89 735.962 1625.7 728.465 1628.51 721.752L1624.82 720.208C1622.09 726.722 1618.37 734.062 1613.64 742.233L1617.1 744.237ZM1628.51 721.752C1631.26 715.163 1632.98 710.873 1633.6 708.979L1629.8 707.732C1629.24 709.443 1627.59 713.57 1624.82 720.208L1628.51 721.752ZM1631.71 710.355L1638.91 710.321L1638.89 706.321L1631.69 706.355L1631.71 710.355ZM1636.99 707.732L1612.18 788.253L1616 789.431L1640.81 708.909L1636.99 707.732ZM1614.08 786.842L1438.88 787.689L1438.9 791.689L1614.1 790.842L1614.08 786.842ZM1440.83 790.165L1443.19 780.554L1439.3 779.602L1436.95 789.214L1440.83 790.165ZM1630.15 779.164L1630.14 777.164L1628.58 777.171L1628.21 778.688L1630.15 779.164ZM1663.11 770.904L1661.18 770.39L1661.17 770.401L1661.17 770.412L1663.11 770.904ZM1710.55 592.472L1712.48 592.986L1712.48 592.967L1712.49 592.948L1710.55 592.472ZM1682.01 584.51L1680.08 583.978L1679.38 586.523L1682.02 586.51L1682.01 584.51ZM1684.66 574.898L1684.65 572.898L1683.14 572.905L1682.73 574.365L1684.66 574.898ZM1773.16 574.469L1775.1 574.945L1775.71 572.457L1773.15 572.469L1773.16 574.469ZM1770.81 584.081L1770.82 586.081L1772.38 586.073L1772.75 584.556L1770.81 584.081ZM1737.85 592.34L1739.78 592.854L1739.78 592.844L1739.78 592.833L1737.85 592.34ZM1690.41 770.772L1688.48 770.258L1688.47 770.277L1688.47 770.296L1690.41 770.772ZM1770.23 774.886L1770.89 776.775L1770.91 776.766L1770.94 776.757L1770.23 774.886ZM1789.07 762.794L1790.47 764.227L1790.48 764.215L1790.49 764.202L1789.07 762.794ZM1804.27 742.321L1802.54 741.319L1802.54 741.325L1802.53 741.332L1804.27 742.321ZM1815.57 720.066L1813.72 719.294L1813.72 719.294L1815.57 720.066ZM1820.6 707.441L1820.59 705.441L1819.15 705.448L1818.7 706.818L1820.6 707.441ZM1827.8 707.406L1829.72 707.995L1830.52 705.393L1827.79 705.406L1827.8 707.406ZM1802.99 787.927L1803 789.927L1804.47 789.92L1804.91 788.516L1802.99 787.927ZM1627.8 788.775L1625.85 788.3L1625.24 790.788L1627.81 790.775L1627.8 788.775ZM1630.16 781.164L1652.96 781.053L1652.94 777.053L1630.14 777.164L1630.16 781.164ZM1652.96 781.053C1656 781.039 1658.67 780.261 1660.79 778.557C1662.91 776.858 1664.29 774.4 1665.05 771.397L1661.17 770.412C1660.56 772.815 1659.56 774.419 1658.29 775.436C1657.03 776.449 1655.3 777.042 1652.94 777.053L1652.96 781.053ZM1665.04 771.418L1712.48 592.986L1708.61 591.959L1661.18 770.39L1665.04 771.418ZM1712.49 592.948C1712.89 591.318 1713.13 589.918 1713.13 588.86L1709.13 588.879C1709.13 589.421 1708.99 590.423 1708.6 591.997L1712.49 592.948ZM1713.13 588.86C1713.12 586.834 1712.36 585.051 1710.69 583.869C1709.15 582.775 1707.08 582.389 1704.8 582.4L1704.82 586.4C1706.74 586.391 1707.82 586.74 1708.38 587.135C1708.82 587.443 1709.12 587.905 1709.13 588.879L1713.13 588.86ZM1704.8 582.4L1682 582.511L1682.02 586.51L1704.82 586.4L1704.8 582.4ZM1683.94 585.043L1686.59 575.43L1682.73 574.365L1680.08 583.978L1683.94 585.043ZM1684.67 576.898L1773.17 576.469L1773.15 572.469L1684.65 572.898L1684.67 576.898ZM1771.22 573.994L1768.86 583.605L1772.75 584.556L1775.1 574.945L1771.22 573.994ZM1770.8 582.081L1748 582.191L1748.02 586.191L1770.82 586.081L1770.8 582.081ZM1748 582.191C1744.96 582.206 1742.29 582.984 1740.17 584.688C1738.05 586.387 1736.67 588.844 1735.91 591.848L1739.78 592.833C1740.4 590.43 1741.4 588.826 1742.67 587.808C1743.93 586.796 1745.66 586.202 1748.02 586.191L1748 582.191ZM1735.91 591.826L1688.48 770.258L1692.34 771.286L1739.78 592.854L1735.91 591.826ZM1688.47 770.296C1688.08 771.873 1687.82 773.203 1687.83 774.085L1691.83 774.065C1691.82 773.747 1691.95 772.875 1692.35 771.248L1688.47 770.296ZM1687.83 774.085C1687.84 776.161 1688.55 778.012 1690.21 779.264C1691.77 780.438 1693.86 780.855 1696.16 780.844L1696.14 776.844C1694.24 776.854 1693.17 776.486 1692.62 776.071C1692.17 775.732 1691.83 775.189 1691.83 774.065L1687.83 774.085ZM1696.16 780.844L1751.96 780.574L1751.94 776.574L1696.14 776.844L1696.16 780.844ZM1751.96 780.574C1757.45 780.548 1763.77 779.253 1770.89 776.775L1769.57 772.997C1762.71 775.386 1756.85 776.551 1751.94 776.574L1751.96 780.574ZM1770.94 776.757C1778.19 774.022 1784.7 769.838 1790.47 764.227L1787.68 761.361C1782.29 766.605 1776.24 770.482 1769.52 773.014L1770.94 776.757ZM1790.49 764.202C1796.21 758.431 1801.38 751.46 1806.01 743.309L1802.53 741.332C1798.05 749.226 1793.08 755.904 1787.65 761.387L1790.49 764.202ZM1806 743.323C1810.79 735.048 1814.6 727.551 1817.41 720.838L1813.72 719.294C1810.99 725.807 1807.27 733.147 1802.54 741.319L1806 743.323ZM1817.41 720.838C1820.17 714.249 1821.88 709.959 1822.5 708.064L1818.7 706.818C1818.14 708.529 1816.5 712.656 1813.72 719.294L1817.41 720.838ZM1820.61 709.441L1827.81 709.406L1827.79 705.406L1820.59 705.441L1820.61 709.441ZM1825.89 706.817L1801.08 787.338L1804.91 788.516L1829.72 707.995L1825.89 706.817ZM1802.98 785.927L1627.79 786.775L1627.81 790.775L1803 789.927L1802.98 785.927ZM1629.74 789.251L1632.09 779.639L1628.21 778.688L1625.85 788.3L1629.74 789.251Z" fill="black" mask="url(#path-34-outside-1_243_1436)"/>
</g>
<defs>
<clipPath id="clip0_243_1436">
<rect width="1444" height="1965" fill="white"/>
</clipPath>
</defs>
</svg>
