<svg width="1444" height="1555" viewBox="0 0 1444 1555" fill="none" xmlns="http://www.w3.org/2000/svg">
<g clip-path="url(#clip0_243_1477)">
<rect width="1444" height="1555" fill="black"/>
<rect width="1272.73" height="1070.23" transform="matrix(0.999983 -0.00582998 0.00299128 0.999996 170.453 221.627)" fill="white"/>
<path d="M1388.6 1515.42L1446.37 1287.12L173.662 1294.54L232.795 1522.16L1388.6 1515.42Z" fill="white" stroke="black" stroke-width="4"/>
<path d="M1384.18 0.411437L1443.16 215.067L170.455 224.027L228.373 8.54832L1384.18 0.411437Z" fill="white" stroke="black" stroke-width="4"/>
<path d="M83.8719 1182.94L173.67 1297.05L170.455 222.34L81.3332 334.24L83.8719 1182.94Z" fill="white" stroke="black" stroke-width="4"/>
<path d="M1535.74 1476.57L1446.66 1628L1443.15 214.211L1532.97 360.101L1535.74 1476.57Z" fill="white" stroke="black" stroke-width="4"/>
<path d="M220.77 1185.71L284.568 1301.78C307.068 1287.58 329.97 1305.12 338.608 1315.66L599.689 1171C587.912 1140.3 605.179 1121.6 615.285 1116.08L552.276 1002.95C519.387 1012.64 501.111 996.187 496.084 986.749L236.533 1132.36C248.374 1161.27 230.958 1179.97 220.77 1185.71Z" fill="white" stroke="black" stroke-width="3"/>
<path d="M1013.85 1297.36L1018.01 1429.75C1044.5 1427.31 1056.95 1453.33 1059.86 1466.64L1358.16 1456.25C1361.6 1423.55 1385.48 1414.72 1396.98 1414.39L1392.19 1284.99C1358.49 1278.69 1349.67 1255.74 1349.47 1245.05L1052.11 1256.98C1049.53 1288.12 1025.53 1296.88 1013.85 1297.36Z" fill="white" stroke="black" stroke-width="3"/>
<path d="M1033.03 700.749L1047.01 832.459C1073.25 828.061 1087.59 853.085 1091.48 866.148L1388.19 833.638C1389.19 800.775 1412.34 790.197 1423.8 789.016L1409.41 660.321C1375.33 656.548 1364.83 634.31 1363.85 623.663L1068.19 657.642C1067.93 688.881 1044.64 699.397 1033.03 700.749Z" fill="white" stroke="black" stroke-width="3"/>
<path d="M918.003 424.834L917.681 557.283C944.242 555.743 955.8 582.17 958.259 595.575L1256.74 595.286C1261.28 562.723 1285.45 554.706 1296.96 554.768L1296.55 425.273C1263.08 417.843 1255.04 394.602 1255.21 383.91L957.607 385.774C953.984 416.803 929.694 424.743 918.003 424.834Z" fill="white" stroke="black" stroke-width="3"/>
<path d="M-5.79963 835.642L22.217 965.094C47.8335 957.909 64.7771 981.251 70.0468 993.821L361.557 929.694C359.031 896.912 380.918 883.913 392.178 881.511L364.079 755.1C329.792 755.002 316.972 734.018 314.848 723.537L24.5333 789.014C27.6308 820.101 5.60196 833.052 -5.79963 835.642Z" fill="white" stroke="black" stroke-width="3"/>
<path d="M-188.876 531.451L-207.681 662.559C-181.166 664.741 -173.409 692.523 -172.845 706.141L122.754 747.515C131.799 715.904 156.843 711.339 168.234 713.007L185.903 584.722C153.795 572.693 149.083 548.558 150.741 537.994L-144.208 498.302C-152.127 528.521 -177.286 532.993 -188.876 531.451Z" fill="white" stroke="black" stroke-width="3"/>
<path d="M433.554 766.849L420.141 898.618C446.724 899.711 455.613 927.151 456.735 940.734L753.781 969.952C761.523 937.998 786.358 932.409 797.809 933.609L810.202 804.708C777.628 794.006 771.931 770.084 773.154 759.461L476.826 731.896C470.153 762.415 445.198 767.914 433.554 766.849Z" fill="white" stroke="black" stroke-width="3"/>
<path d="M72.3942 232.737L47.7352 362.87C74.1265 366.238 80.6311 394.339 80.5844 407.969L374.033 462.542C384.485 431.368 409.708 427.929 421.014 430.106L444.411 302.741C412.874 289.286 409.248 264.964 411.377 254.485L118.503 201.621C109.238 231.456 83.9034 234.796 72.3942 232.737Z" fill="white" stroke="black" stroke-width="3"/>
<path d="M678.309 474.062L611.177 588.238C634.883 600.315 631.522 628.963 626.878 641.777L884.69 792.187C905.049 766.37 929.954 771.646 939.861 777.511L1004.87 665.516C979.726 642.206 984.521 618.088 990.062 608.942L732.214 460.334C713.424 485.291 688.448 479.885 678.309 474.062Z" fill="white" stroke="black" stroke-width="3"/>
<path d="M967.18 641.658L895.894 765.529" stroke="black" stroke-width="3.03494" stroke-dasharray="9.66 9.66"/>
<path d="M717.039 497.711L645.754 621.582" stroke="black" stroke-width="3.03494" stroke-dasharray="9.66 9.66"/>
<path d="M1362.88 653.407L1378.48 795.471" stroke="black" stroke-width="3.03494" stroke-dasharray="9.66 9.66"/>
<path d="M1076.01 684.914L1091.61 826.978" stroke="black" stroke-width="3.03494" stroke-dasharray="9.66 9.66"/>
<path d="M1251.36 421.012L1248.2 563.895" stroke="black" stroke-width="3.03494" stroke-dasharray="9.66 9.66"/>
<path d="M962.828 414.638L959.671 557.521" stroke="black" stroke-width="3.03494" stroke-dasharray="9.66 9.66"/>
<path d="M317.258 762.736L347.672 902.381" stroke="black" stroke-width="3.03494" stroke-dasharray="9.66 9.66"/>
<path d="M35.2656 824.156L65.6802 963.801" stroke="black" stroke-width="3.03494" stroke-dasharray="9.66 9.66"/>
<path d="M507.812 1016.09L577.271 1140.99" stroke="black" stroke-width="3.03494" stroke-dasharray="9.66 9.66"/>
<path d="M255.594 1156.35L325.052 1281.25" stroke="black" stroke-width="3.03494" stroke-dasharray="9.66 9.66"/>
<path d="M769.898 794.945L752.391 936.787" stroke="black" stroke-width="3.03494" stroke-dasharray="9.66 9.66"/>
<path d="M483.477 759.598L465.969 901.439" stroke="black" stroke-width="3.03494" stroke-dasharray="9.66 9.66"/>
<path d="M135.766 569.979L112.843 711.046" stroke="black" stroke-width="3.03494" stroke-dasharray="9.66 9.66"/>
<path d="M399.445 291.588L370.714 431.588" stroke="black" stroke-width="3.03494" stroke-dasharray="9.66 9.66"/>
<path d="M116.742 233.573L88.011 373.574" stroke="black" stroke-width="3.03494" stroke-dasharray="9.66 9.66"/>
<path d="M1346.4 1275.44L1358.03 1417.88" stroke="black" stroke-width="3.03494" stroke-dasharray="9.66 9.66"/>
<path d="M1058.76 1298.91L1070.39 1441.36" stroke="black" stroke-width="3.03494" stroke-dasharray="9.66 9.66"/>
<path d="M1346.4 1275.44L1358.03 1417.88" stroke="black" stroke-width="3.03494" stroke-dasharray="9.66 9.66"/>
<path d="M1058.76 1298.91L1070.39 1441.36" stroke="black" stroke-width="3.03494" stroke-dasharray="9.66 9.66"/>
<path d="M738.233 658.357C726.516 651.613 719.392 642.42 716.86 630.777C714.706 619.032 717.138 607.062 724.157 594.866C735.441 575.258 750.763 561.633 770.121 553.992C789.719 546.489 810.651 544.687 832.918 548.588L832.16 561.522C813.929 558.352 797.123 559.344 781.742 564.499C766.737 569.552 755.932 577.818 749.327 589.297C748.363 590.971 747.947 592.8 748.078 594.785C748.585 596.669 749.796 598.162 751.709 599.262C753.622 600.363 757.042 601.058 761.969 601.347C767.512 601.672 772.196 602.935 776.023 605.137C782.718 608.99 787.27 614.634 789.677 622.067C792.323 629.638 791.307 637.489 786.628 645.62C781.123 655.185 773.679 660.929 764.297 662.851C755.052 664.534 746.364 663.036 738.233 658.357ZM817.147 703.77C805.43 697.027 798.306 687.834 795.774 676.191C793.62 664.446 796.052 652.476 803.07 640.28C814.355 620.671 829.677 607.046 849.035 599.405C868.633 591.902 889.565 590.101 911.832 594.001L911.073 606.935C892.843 603.765 876.037 604.758 860.656 609.912C845.651 614.966 834.846 623.232 828.24 634.71C827.277 636.384 826.861 638.214 826.992 640.199C827.499 642.083 828.71 643.575 830.623 644.676C832.536 645.777 835.956 646.472 840.883 646.76C846.426 647.085 851.11 648.349 854.936 650.551C861.632 654.404 866.184 660.047 868.591 667.481C871.237 675.052 870.221 682.903 865.542 691.033C860.037 700.598 852.593 706.342 843.211 708.264C833.966 709.947 825.278 708.449 817.147 703.77Z" fill="black"/>
<path d="M1176.94 815.265C1170.58 815.964 1165.06 814.624 1160.4 811.246C1155.86 807.721 1153.28 803.176 1152.67 797.609C1152.07 792.175 1153.3 787.48 1156.35 783.523C1159.39 779.433 1163.16 777.141 1167.67 776.646C1171.91 776.18 1175.43 777.068 1178.22 779.31C1181 781.419 1182.59 784.329 1183 788.04C1183.22 790.028 1182.85 792.148 1181.89 794.4C1181.15 796.225 1180.84 797.667 1180.96 798.727C1181.19 800.848 1182.5 801.777 1184.88 801.515C1186.87 801.297 1188.35 800.128 1189.33 798.009C1190.44 795.876 1190.76 792.688 1190.29 788.447L1180.29 697.395C1179.96 694.346 1179 691.768 1177.43 689.661L1169.58 678.652C1168.01 676.544 1165.5 675.68 1162.05 676.058L1144.36 678.001L1143.7 672.037L1196.59 666.229L1255.43 747.692L1248.55 685.069C1247.67 676.984 1248.8 670.22 1251.96 664.776C1255.1 659.199 1260.72 655.967 1268.8 655.079C1275.16 654.381 1280.62 655.794 1285.16 659.319C1289.82 662.697 1292.46 667.169 1293.07 672.735C1293.67 678.169 1292.45 682.931 1289.41 687.02C1286.36 690.977 1282.58 693.203 1278.07 693.698C1273.83 694.164 1270.32 693.342 1267.54 691.233C1264.74 688.991 1263.14 686.015 1262.74 682.304C1262.52 680.316 1262.89 678.196 1263.85 675.945C1264.59 674.12 1264.9 672.677 1264.78 671.617C1264.55 669.496 1263.24 668.567 1260.85 668.829C1258.87 669.047 1257.32 670.223 1256.21 672.357C1255.24 674.476 1254.98 677.656 1255.45 681.897L1268.98 805.156L1261.43 805.986L1189.75 706.617L1188.56 706.748L1197.19 785.275C1198.07 793.36 1196.95 800.191 1193.8 805.767C1190.64 811.211 1185.02 814.377 1176.94 815.265ZM1303.26 772.821C1294.38 773.797 1286.84 771.07 1280.63 764.643C1274.54 758.068 1270.93 749.545 1269.78 739.075C1268.63 728.605 1270.32 719.566 1274.85 711.959C1279.49 704.206 1286.26 699.841 1295.14 698.866C1304.02 697.891 1311.5 700.69 1317.59 707.265C1323.79 713.693 1327.47 722.142 1328.62 732.612C1329.77 743.083 1328.02 752.195 1323.37 759.948C1318.84 767.555 1312.14 771.846 1303.26 772.821ZM1302.74 768.05C1305.92 767.701 1308.06 765.855 1309.17 762.515C1310.28 759.174 1310.63 755.648 1310.22 751.937L1306.47 717.742C1306.06 714.031 1304.95 710.665 1303.14 707.644C1301.34 704.624 1298.84 703.288 1295.66 703.637C1292.48 703.987 1290.34 705.832 1289.23 709.173C1288.12 712.514 1287.77 716.04 1288.18 719.751L1291.93 753.945C1292.34 757.656 1293.45 761.022 1295.25 764.043C1297.06 767.064 1299.55 768.399 1302.74 768.05ZM1278.93 800.442L1277.36 786.128L1331.43 780.19L1333 794.504L1278.93 800.442Z" fill="black"/>
<path d="M1077.39 538.31C1070.73 538.163 1065.1 536.288 1060.51 532.686C1056.09 529.087 1053.95 524.039 1054.1 517.54C1054.23 511.709 1055.43 506.067 1057.72 500.616C1060.18 495.169 1063.56 489.243 1067.87 482.836C1073.9 473.967 1078.33 465.98 1081.15 458.874C1084.14 451.605 1085.76 442.722 1085.99 432.224C1086.13 425.726 1084.67 420.275 1081.6 415.873C1078.53 411.471 1074.16 409.207 1068.5 409.082C1061.83 408.935 1056.27 411.563 1051.82 416.966C1047.37 422.202 1045.06 428.402 1044.91 435.567C1044.77 441.733 1045.33 446.663 1046.58 450.358C1048 454.057 1050.41 458.194 1053.81 462.771L1047.96 466.893C1043.91 461.635 1040.94 456.652 1039.04 451.942C1037.15 447.232 1036.27 441.545 1036.42 434.88C1036.56 428.548 1038.19 422.666 1041.31 417.233C1044.6 411.638 1049.2 407.239 1055.1 404.035C1061.18 400.668 1068.3 399.075 1076.47 399.256C1084.3 399.429 1091.26 401.166 1097.36 404.469C1103.45 407.771 1108.19 412.21 1111.56 417.786C1114.95 423.195 1116.56 429.316 1116.41 436.147C1116.24 443.979 1113.23 451.831 1107.39 459.704C1101.55 467.577 1093.95 475.661 1084.6 483.956C1077.45 490.3 1071.99 496.014 1068.21 501.098C1064.6 506.02 1062.73 511.646 1062.59 517.978C1062.5 522.144 1063.93 525.343 1066.88 527.575C1069.83 529.641 1073.39 530.72 1077.56 530.812C1081.89 530.908 1085.34 529.484 1087.91 526.54C1090.48 523.429 1091.81 519.458 1091.92 514.625C1091.96 512.626 1091.6 510.451 1090.81 508.099L1096.87 505.732C1097.66 507.584 1098.21 509.18 1098.51 510.52C1098.82 511.694 1098.95 513.197 1098.91 515.03C1098.76 522.028 1096.55 527.731 1092.28 532.138C1088.19 536.382 1083.23 538.439 1077.39 538.31ZM1077.11 585.315C1071.44 585.19 1066.81 583.254 1063.23 579.507C1059.65 575.761 1057.92 571.055 1058.04 565.389C1058.17 559.724 1060.1 555.099 1063.85 551.514C1067.6 547.929 1072.3 546.2 1077.97 546.325C1083.63 546.45 1088.26 548.386 1091.84 552.133C1095.43 555.88 1097.16 560.586 1097.03 566.251C1096.91 571.916 1094.97 576.541 1091.22 580.126C1087.48 583.711 1082.77 585.44 1077.11 585.315ZM1145.02 496.294C1144.65 490.618 1142.63 479.987 1138.97 464.403C1136.99 456.19 1135.48 449.072 1134.44 443.047C1133.41 436.856 1132.96 431.012 1133.08 425.513C1133.25 417.848 1135.3 411.892 1139.23 407.644C1143.16 403.397 1148.12 401.339 1154.12 401.472C1160.12 401.604 1164.98 403.879 1168.72 408.296C1172.46 412.713 1174.24 418.754 1174.07 426.419C1173.95 431.917 1173.24 437.736 1171.93 443.876C1170.64 449.849 1168.81 456.893 1166.47 465.01C1162.49 479.092 1160 489.623 1159.02 496.603L1154.22 532.756L1148.22 532.624L1145.02 496.294ZM1150.02 586.927C1144.35 586.801 1139.73 584.865 1136.14 581.119C1132.56 577.372 1130.83 572.666 1130.95 567.001C1131.08 561.335 1133.02 556.71 1136.76 553.125C1140.51 549.541 1145.22 547.811 1150.88 547.936C1156.55 548.061 1161.17 549.997 1164.76 553.744C1168.34 557.491 1170.07 562.197 1169.94 567.862C1169.82 573.527 1167.88 578.152 1164.14 581.737C1160.39 585.322 1155.68 587.052 1150.02 586.927Z" fill="black"/>
<path d="M136.633 859.254C131.505 863.72 125.838 865.739 119.63 865.311C113.422 864.883 108.085 862.105 103.619 856.977C99.153 851.849 97.134 846.181 97.5622 839.973C97.9904 833.766 100.768 828.429 105.896 823.963C111.024 819.497 116.692 817.478 122.9 817.906C129.107 818.334 134.444 821.112 138.91 826.24C143.376 831.368 145.395 837.035 144.967 843.243C144.539 849.451 141.761 854.788 136.633 859.254ZM204.018 936.623C198.89 941.089 193.223 943.108 187.015 942.68C180.807 942.252 175.47 939.474 171.004 934.346C166.538 929.218 164.519 923.551 164.947 917.343C165.375 911.135 168.153 905.798 173.281 901.332C178.409 896.866 184.077 894.847 190.285 895.275C196.492 895.703 201.829 898.481 206.295 903.609C210.761 908.737 212.78 914.405 212.352 920.612C211.924 926.82 209.146 932.157 204.018 936.623ZM193.252 809.942C188.124 814.408 182.456 816.427 176.248 815.999C170.04 815.571 164.703 812.793 160.237 807.665C155.771 802.537 153.752 796.869 154.181 790.661C154.609 784.454 157.387 779.117 162.515 774.651C167.642 770.185 173.31 768.166 179.518 768.594C185.726 769.022 191.063 771.8 195.529 776.928C199.995 782.056 202.014 787.723 201.586 793.931C201.157 800.139 198.379 805.476 193.252 809.942ZM271.466 939.941C277.946 928.197 281.162 916.511 281.113 904.884C281.347 893.276 278.311 883.852 272.006 876.613C271.087 875.557 269.922 874.981 268.511 874.884C267.119 874.504 265.82 874.84 264.614 875.891C263.407 876.941 262.123 879.121 260.761 882.429C259.228 886.151 257.255 889.063 254.842 891.164C250.619 894.842 245.601 896.693 239.787 896.718C234.125 896.611 229.06 893.993 224.594 888.865C219.34 882.833 217.228 876.45 218.26 869.716C219.16 862.832 222.174 857.157 227.302 852.691C234.692 846.255 242.666 843.686 251.223 844.985C259.8 846.002 267.438 850.356 274.137 858.048C284.908 870.415 290.549 884.2 291.06 899.404C291.722 914.475 288.085 929.18 280.15 943.517L271.466 939.941Z" fill="black"/>
<path d="M461.08 1222.26C456.258 1224.95 451.408 1225.59 446.53 1224.2C441.652 1222.81 437.939 1219.82 435.391 1215.24C432.039 1209.21 430.562 1202.3 430.961 1194.5C430.85 1183.51 428.514 1173.92 423.955 1165.72C422.748 1163.55 421.703 1162.24 420.818 1161.78C420.175 1161.19 419.25 1161.24 418.045 1161.91C416.839 1162.58 415.553 1164.24 414.188 1166.89C410.707 1174.83 408.527 1184.25 407.647 1195.15C406.393 1208.79 402.149 1217.63 394.915 1221.65C390.334 1224.2 385.484 1224.84 380.365 1223.58C375.353 1221.95 371.573 1218.84 369.025 1214.26C365.807 1208.48 365.43 1202.69 367.893 1196.9C370.597 1190.97 375.807 1185.87 383.523 1181.58C394.856 1175.27 402.638 1168.26 406.869 1160.54C407.217 1160.03 407.673 1159.15 408.235 1157.89C408.797 1156.63 408.81 1155.52 408.274 1154.55C407.737 1153.59 406.786 1153.01 405.419 1152.83C404.052 1152.64 403.061 1152.56 402.444 1152.59C393.654 1152.11 383.593 1155.02 372.26 1161.32C364.544 1165.61 357.456 1167.34 350.998 1166.52C344.78 1165.55 340.062 1162.18 336.844 1156.39C334.296 1151.81 333.718 1147.08 335.11 1142.2C336.608 1136.95 339.648 1133.05 344.23 1130.5C351.464 1126.48 361.205 1127.53 373.454 1133.67C383.184 1138.67 392.337 1141.79 400.913 1143.02C403.888 1143.26 405.978 1143.04 407.183 1142.37C408.389 1141.7 408.911 1140.94 408.75 1140.08C408.83 1139.09 408.267 1137.51 407.06 1135.34C402.501 1127.14 395.584 1120.1 386.31 1114.2C379.474 1110.43 374.381 1105.53 371.029 1099.5C368.481 1094.92 367.903 1090.19 369.294 1085.31C370.686 1080.43 373.793 1076.65 378.615 1073.97C383.438 1071.29 388.288 1070.64 393.166 1072.03C398.044 1073.43 401.757 1076.41 404.304 1080.99C407.657 1087.02 409.133 1093.94 408.734 1101.73C408.846 1112.72 411.182 1122.31 415.741 1130.51C416.947 1132.68 417.872 1134.06 418.516 1134.65C419.4 1135.11 420.445 1135 421.651 1134.33C422.857 1133.66 424.142 1132 425.508 1129.34C428.989 1121.41 431.169 1111.99 432.049 1101.08C433.303 1087.44 437.546 1078.61 444.78 1074.59C449.362 1072.04 454.158 1071.58 459.17 1073.21C464.289 1074.47 468.123 1077.39 470.67 1081.97C473.888 1087.76 474.145 1093.61 471.441 1099.54C468.978 1105.33 463.889 1110.37 456.172 1114.66C444.839 1120.96 437.057 1127.97 432.826 1135.69C432.478 1136.2 432.023 1137.08 431.461 1138.34C430.899 1139.6 430.886 1140.72 431.422 1141.68C431.958 1142.65 432.91 1143.22 434.277 1143.41C435.644 1143.6 436.635 1143.68 437.251 1143.65C446.041 1144.13 456.103 1141.22 467.436 1134.91C475.152 1130.62 482.119 1128.96 488.336 1129.92C494.795 1130.75 499.634 1134.06 502.852 1139.84C505.399 1144.42 505.924 1149.34 504.425 1154.59C503.034 1159.47 500.047 1163.19 495.466 1165.73C488.232 1169.76 478.491 1168.7 466.241 1162.57C456.512 1157.56 447.359 1154.44 438.783 1153.21C435.808 1152.97 433.718 1153.19 432.512 1153.86C431.307 1154.53 430.664 1155.36 430.584 1156.35C430.745 1157.21 431.429 1158.72 432.636 1160.89C437.195 1169.09 444.112 1176.14 453.386 1182.03C460.221 1185.81 465.315 1190.71 468.667 1196.74C471.215 1201.32 471.793 1206.05 470.401 1210.92C469.01 1215.8 465.903 1219.58 461.08 1222.26Z" fill="black"/>
<path d="M605.319 929.244C589.802 927.329 576.113 922.095 564.251 913.542C552.408 904.834 543.557 893.58 537.699 879.782C531.841 865.984 529.946 850.706 532.014 833.948C534.006 817.81 539.724 803.393 549.167 790.696C558.611 777.999 570.494 768.517 584.815 762.25C599.31 755.848 614.705 753.652 630.997 755.663C647.6 757.712 661.658 763.15 673.172 771.975C684.685 780.8 693.021 791.753 698.18 804.835C703.514 817.781 705.29 831.469 703.509 845.9C702.475 854.279 699.288 862.865 693.949 871.658C688.766 880.47 681.747 887.559 672.893 892.925C664.194 898.31 654.259 900.313 643.087 898.934C637.346 898.225 632.649 896.07 628.998 892.469C625.366 888.713 623.575 884.081 623.624 878.573L622.722 878.225C619.102 882.032 614.414 885.549 608.66 888.777C602.905 892.005 596.769 893.217 590.252 892.413C582.649 891.474 576.361 888.177 571.388 882.523C566.414 876.868 564.502 869.385 565.652 860.075C566.858 850.3 569.296 840.755 572.967 831.441C576.656 821.972 581.279 814.508 586.836 809.05C594.175 801.922 601.401 796.985 608.513 794.24C615.781 791.514 622.596 790.543 628.958 791.329C632.837 791.807 636.01 793.538 638.478 796.521C640.964 799.348 642.463 802.526 642.972 806.055L643.903 806.17L647.699 796.477L672.603 799.551L646.735 869.374C645.442 873.468 644.643 876.756 644.336 879.239C643.838 883.274 644.396 886.414 646.009 888.661C647.622 890.908 649.359 892.147 651.221 892.376C657.583 893.162 663.291 890.952 668.344 885.747C673.398 880.542 677.528 873.884 680.734 865.773C683.96 857.507 686.071 849.34 687.067 841.271C688.829 826.995 687.49 814.228 683.051 802.968C678.632 791.552 671.646 782.42 662.094 775.57C652.543 768.72 641.095 764.471 627.75 762.824C615.182 761.272 603.191 763.337 591.778 769.017C580.364 774.697 570.779 783.439 563.021 795.241C555.418 807.063 550.639 820.887 548.686 836.714C546.771 852.231 547.965 866.163 552.27 878.509C556.594 890.7 563.794 900.647 573.871 908.349C583.967 915.897 596.463 920.59 611.359 922.428C618.807 923.348 626.107 922.91 633.26 921.115C640.432 919.164 646.702 916.866 652.07 914.221L654.785 920.936C649.379 923.892 642.46 926.346 634.028 928.298C625.595 930.25 616.025 930.566 605.319 929.244ZM596.528 887.516C602.269 888.225 608.062 884.686 613.906 876.901C619.751 869.116 624.536 859.703 628.261 848.663C633.92 833.451 637.122 822.819 637.869 816.767C638.559 811.181 638.251 806.654 636.947 803.184C635.661 799.56 633.544 797.566 630.596 797.202C625.941 796.627 621.483 798.283 617.223 802.168C612.982 805.898 608.454 812.585 603.641 822.231C600.721 828.014 597.921 835.387 595.239 844.351C592.713 853.333 590.932 862.014 589.898 870.393C589.304 875.203 589.679 879.188 591.022 882.347C592.52 885.525 594.355 887.248 596.528 887.516Z" fill="black"/>
<path d="M-69.9587 691.828C-83.8476 689.571 -94.6762 684.565 -102.444 676.808C-110.187 668.897 -113.106 659.078 -111.2 647.349C-109.595 637.473 -104.464 628.803 -95.8068 621.339C-87.1244 613.721 -74.8819 606.128 -59.0795 598.558L-53.1535 595.72L-55.0604 591.371C-58.1739 584.212 -60.2678 578.091 -61.3423 573.006C-62.2625 567.946 -62.1333 561.789 -60.9547 554.536C-59.6758 546.666 -56.7977 540.164 -52.3205 535.031C-47.6639 529.769 -42.1652 526.148 -35.8246 524.169C-29.3045 522.06 -22.5722 521.57 -15.6278 522.699C-9.14628 523.752 -4.15012 526.148 -0.639299 529.886C3.05092 533.495 5.47089 537.611 6.6206 542.233C7.77031 546.855 7.98156 551.403 7.25434 555.879C5.92529 564.058 2.45695 570.78 -3.15068 576.046C-8.60397 581.338 -16.3451 586.574 -26.374 591.756L4.4365 659.487C9.96889 654.684 14.7277 649.28 18.7131 643.274C22.7235 637.115 25.0797 631.875 25.7819 627.554C26.2583 624.622 25.7732 622.246 24.3264 620.427C22.9047 618.454 20.9593 617.267 18.4901 616.865L9.69384 615.436L10.8975 608.029L59.7402 615.965L58.5365 623.373L56.6847 623.072C48.3513 621.718 40.6584 626.17 33.606 636.428C24.3043 649.806 15.7087 659.814 7.81906 666.452C11.1949 674.92 14.1897 681.346 16.8035 685.731C19.5717 690.141 22.8076 692.647 26.5113 693.248C29.5977 693.75 32.5115 692.877 35.2527 690.63C38.1481 688.408 41.0397 685.234 43.9274 681.11L48.1809 684.177C45.0173 689.999 40.1938 695.313 33.7104 700.121C27.2521 704.773 20.0878 706.46 12.2174 705.181C7.12478 704.354 2.14116 701.881 -2.73348 697.762C-7.42871 693.515 -11.1768 688.312 -13.9778 682.155C-20.44 685.857 -28.9999 688.822 -39.6577 691.05C-50.2905 693.123 -60.3908 693.383 -69.9587 691.828ZM-29.6437 584.096C-21.8467 579.978 -15.7597 575.661 -11.3828 571.145C-6.82645 566.5 -3.90885 560.242 -2.62995 552.372C-1.72719 546.816 -2.59527 541.923 -5.23418 537.693C-7.71877 533.488 -11.5074 530.971 -16.6 530.144C-21.3839 529.366 -25.8911 530.297 -30.1214 532.936C-34.1974 535.6 -36.6742 539.633 -37.5519 545.034C-38.6051 551.515 -38.634 557.055 -37.6386 561.651C-36.6182 566.094 -33.9532 573.576 -29.6437 584.096ZM-46.4055 681.4C-41.1586 682.252 -36.0698 682.129 -31.1393 681.029C-26.0293 679.801 -21.3592 677.867 -17.1288 675.228L-49.6147 603.185C-55.639 607.116 -60.4056 610.619 -63.9145 613.691C-67.269 616.789 -70.0043 620.463 -72.1205 624.713C-74.2366 628.963 -75.8087 634.251 -76.8368 640.578C-77.9903 647.677 -77.2312 654.215 -74.5595 660.193C-71.7084 666.042 -67.7308 670.807 -62.6266 674.487C-57.3681 678.193 -51.961 680.497 -46.4055 681.4Z" fill="black"/>
<path d="M202.688 316.016C197.174 314.885 192.236 312.116 187.874 307.709C183.696 303.181 180.719 297.463 178.945 290.555C177.355 283.525 177.409 275.875 179.106 267.605C180.803 259.334 183.767 252.282 187.997 246.446C192.38 240.643 197.384 236.482 203.008 233.966C208.784 231.48 214.43 230.803 219.943 231.935C225.457 233.066 230.379 235.912 234.71 240.472C239.041 245.031 242.079 250.842 243.822 257.903C245.565 264.964 245.587 272.63 243.89 280.9C242.193 289.17 239.153 296.207 234.77 302.011C230.418 307.662 225.353 311.73 219.577 314.215C213.984 316.579 208.355 317.179 202.688 316.016ZM175.03 401.793L309.538 250.322L321.025 252.679L186.516 404.15L175.03 401.793ZM203.631 311.421C207.46 312.207 210.706 310.001 213.369 304.801C216.185 299.634 219.007 290.158 221.836 276.374C224.665 262.59 225.818 252.692 225.297 246.68C224.775 240.667 222.676 237.284 219 236.529C215.325 235.775 212.14 238.074 209.445 243.426C206.782 248.626 204.02 258.194 201.16 272.131C198.3 286.068 197.07 295.95 197.47 301.778C197.902 307.453 199.955 310.667 203.631 311.421ZM276.205 422.078C270.692 420.946 265.754 418.177 261.391 413.77C257.213 409.242 254.237 403.524 252.462 396.616C250.873 389.587 250.926 381.937 252.623 373.666C254.321 365.396 257.284 358.343 261.514 352.508C265.897 346.704 270.901 342.544 276.525 340.027C282.302 337.542 287.947 336.865 293.461 337.996C298.974 339.128 303.896 341.973 308.228 346.533C312.559 351.093 315.596 356.903 317.339 363.964C319.082 371.025 319.105 378.691 317.407 386.961C315.71 395.232 312.67 402.269 308.287 408.073C303.935 413.723 298.871 417.791 293.094 420.277C287.501 422.64 281.872 423.241 276.205 422.078ZM277.148 417.483C280.977 418.269 284.223 416.062 286.886 410.863C289.702 405.695 292.525 396.219 295.353 382.435C298.182 368.652 299.336 358.753 298.814 352.741C298.292 346.729 296.193 343.345 292.518 342.591C288.842 341.837 285.657 344.136 282.962 349.488C280.299 354.687 277.538 364.255 274.678 378.192C271.817 392.129 270.587 402.012 270.987 407.84C271.419 413.514 273.472 416.729 277.148 417.483Z" fill="black"/>
<path d="M1166.82 1442.94L1170.13 1399.84L1143.71 1402L1142.49 1387.04L1171.24 1384.69L1175.03 1333.09L1139.74 1335.97L1138.51 1321.01L1176.15 1317.94L1179.41 1274.38L1194.84 1273.12L1191.57 1316.68L1230.37 1313.51L1233.64 1269.95L1249.07 1268.69L1245.8 1312.25L1272.68 1310.06L1273.9 1325.02L1244.69 1327.4L1240.9 1379.01L1275.96 1376.14L1277.18 1391.1L1239.78 1394.16L1236.48 1437.25L1221.05 1438.51L1224.12 1395.44L1185.55 1398.58L1182.25 1441.68L1166.82 1442.94ZM1186.67 1383.43L1225.47 1380.27L1229.26 1328.66L1190.46 1331.83L1186.67 1383.43Z" fill="black"/>
</g>
<defs>
<clipPath id="clip0_243_1477">
<rect width="1444" height="1555" fill="white"/>
</clipPath>
</defs>
</svg>
