<svg width="1455" height="886" viewBox="0 0 1455 886" fill="none" xmlns="http://www.w3.org/2000/svg">
<g clip-path="url(#clip0_289_119)">
<rect x="96.4354" y="311.032" width="164.285" height="144.551" transform="rotate(-15.502 96.4354 311.032)" fill="white" stroke="black" stroke-width="0.986694"/>
<rect x="89.0448" y="284.409" width="164.285" height="28.1208" transform="rotate(-15.502 89.0448 284.409)" fill="white" stroke="black" stroke-width="0.986694"/>
<rect x="134.818" y="450.009" width="164.285" height="28.1208" transform="rotate(-15.502 134.818 450.009)" fill="white" stroke="black" stroke-width="0.986694"/>
<rect x="285.297" y="259.162" width="144.057" height="31.5742" transform="rotate(74.498 285.297 259.162)" fill="white" stroke="black" stroke-width="0.986694"/>
<rect x="96.5549" y="311.509" width="144.057" height="31.0808" transform="rotate(74.498 96.5549 311.509)" fill="white" stroke="black" stroke-width="0.986694"/>
<rect x="361.502" y="286.565" width="164.285" height="144.551" transform="rotate(-0.12692 361.502 286.565)" fill="white" stroke="black" stroke-width="0.986694"/>
<rect x="361.448" y="258.938" width="164.285" height="28.1208" transform="rotate(-0.12692 361.448 258.938)" fill="white" stroke="black" stroke-width="0.986694"/>
<rect x="361.674" y="430.746" width="164.285" height="28.1208" transform="rotate(-0.12692 361.674 430.746)" fill="white" stroke="black" stroke-width="0.986694"/>
<rect x="557.359" y="286.623" width="144.057" height="31.5742" transform="rotate(89.8731 557.359 286.623)" fill="white" stroke="black" stroke-width="0.986694"/>
<rect x="361.5" y="287.057" width="144.057" height="31.0808" transform="rotate(89.8731 361.5 287.057)" fill="white" stroke="black" stroke-width="0.986694"/>
<rect x="616.049" y="236.89" width="164.285" height="144.551" transform="rotate(8.39612 616.049 236.89)" fill="white" stroke="black" stroke-width="0.986694"/>
<rect x="620.08" y="209.56" width="164.285" height="28.1208" transform="rotate(8.39612 620.08 209.56)" fill="white" stroke="black" stroke-width="0.986694"/>
<rect x="594.854" y="379.505" width="164.285" height="28.1208" transform="rotate(8.39612 594.854 379.505)" fill="white" stroke="black" stroke-width="0.986694"/>
<rect x="809.737" y="265.977" width="144.057" height="31.5742" transform="rotate(98.3961 809.737 265.977)" fill="white" stroke="black" stroke-width="0.986694"/>
<rect x="615.979" y="237.378" width="144.057" height="31.0808" transform="rotate(98.3961 615.979 237.378)" fill="white" stroke="black" stroke-width="0.986694"/>
<rect x="866.061" y="255.735" width="164.285" height="144.551" transform="rotate(5.50599 866.061 255.735)" fill="white" stroke="black" stroke-width="0.986694"/>
<rect x="868.717" y="228.235" width="164.285" height="28.1208" transform="rotate(5.50599 868.717 228.235)" fill="white" stroke="black" stroke-width="0.986694"/>
<rect x="852.084" y="399.236" width="164.285" height="28.1208" transform="rotate(5.50599 852.084 399.236)" fill="white" stroke="black" stroke-width="0.986694"/>
<rect x="1060.96" y="275.018" width="144.057" height="31.5742" transform="rotate(95.506 1060.96 275.018)" fill="white" stroke="black" stroke-width="0.986694"/>
<rect x="866.008" y="256.224" width="144.057" height="31.0808" transform="rotate(95.506 866.008 256.224)" fill="white" stroke="black" stroke-width="0.986694"/>
<rect x="0.607257" y="-0.343542" width="164.285" height="144.551" transform="matrix(0.963621 0.267272 0.267272 -0.963621 297.934 652.131)" fill="white" stroke="black" stroke-width="0.986694"/>
<rect x="0.607257" y="-0.343542" width="164.285" height="28.1208" transform="matrix(0.963621 0.267272 0.267272 -0.963621 290.544 678.753)" fill="white" stroke="black" stroke-width="0.986694"/>
<rect x="0.607257" y="-0.343542" width="164.285" height="28.1208" transform="matrix(0.963621 0.267272 0.267272 -0.963621 336.317 513.154)" fill="white" stroke="black" stroke-width="0.986694"/>
<rect x="-0.343542" y="-0.607257" width="144.057" height="31.5742" transform="matrix(0.267272 -0.963621 -0.963621 -0.267272 486.796 704.001)" fill="white" stroke="black" stroke-width="0.986694"/>
<rect x="-0.343542" y="-0.607257" width="144.057" height="31.0808" transform="matrix(0.267272 -0.963621 -0.963621 -0.267272 298.062 651.654)" fill="white" stroke="black" stroke-width="0.986694"/>
<rect x="0.494439" y="-0.492253" width="164.285" height="144.551" transform="matrix(0.999998 0.00221516 0.00221516 -0.999998 581.86 641.887)" fill="white" stroke="black" stroke-width="0.986694"/>
<rect x="0.494439" y="-0.492253" width="164.285" height="28.1208" transform="matrix(0.999998 0.00221516 0.00221516 -0.999998 581.806 669.514)" fill="white" stroke="black" stroke-width="0.986694"/>
<rect x="0.494439" y="-0.492253" width="164.285" height="28.1208" transform="matrix(0.999998 0.00221516 0.00221516 -0.999998 582.04 497.705)" fill="white" stroke="black" stroke-width="0.986694"/>
<rect x="-0.492253" y="-0.494438" width="144.057" height="31.5742" transform="matrix(0.00221512 -0.999998 -0.999998 -0.00221512 777.718 641.828)" fill="white" stroke="black" stroke-width="0.986694"/>
<rect x="-0.492253" y="-0.494438" width="144.057" height="31.0808" transform="matrix(0.00221512 -0.999998 -0.999998 -0.00221512 581.866 641.394)" fill="white" stroke="black" stroke-width="0.986694"/>
<rect x="0.416023" y="-0.560096" width="164.285" height="144.551" transform="matrix(0.989282 -0.146016 -0.146016 -0.989282 860.946 653.556)" fill="white" stroke="black" stroke-width="0.986694"/>
<rect x="0.416023" y="-0.560096" width="164.285" height="28.1208" transform="matrix(0.989282 -0.146016 -0.146016 -0.989282 864.985 680.886)" fill="white" stroke="black" stroke-width="0.986694"/>
<rect x="0.416023" y="-0.560096" width="164.285" height="28.1208" transform="matrix(0.989282 -0.146016 -0.146016 -0.989282 839.751 510.941)" fill="white" stroke="black" stroke-width="0.986694"/>
<rect x="-0.560096" y="-0.416023" width="144.057" height="31.5742" transform="matrix(-0.146016 -0.989282 -0.989282 0.146016 1054.63 624.47)" fill="white" stroke="black" stroke-width="0.986694"/>
<rect x="-0.560096" y="-0.416023" width="144.057" height="31.0808" transform="matrix(-0.146016 -0.989282 -0.989282 0.146016 860.876 653.069)" fill="white" stroke="black" stroke-width="0.986694"/>
<rect x="0.443734" y="-0.538407" width="164.285" height="144.551" transform="matrix(0.995386 -0.0959498 -0.0959498 -0.995386 1130.83 709.469)" fill="white" stroke="black" stroke-width="0.986694"/>
<rect x="0.443734" y="-0.538407" width="164.285" height="28.1208" transform="matrix(0.995386 -0.0959498 -0.0959498 -0.995386 1133.48 736.968)" fill="white" stroke="black" stroke-width="0.986694"/>
<rect x="0.443734" y="-0.538407" width="164.285" height="28.1208" transform="matrix(0.995386 -0.0959498 -0.0959498 -0.995386 1116.85 565.967)" fill="white" stroke="black" stroke-width="0.986694"/>
<rect x="-0.538407" y="-0.443734" width="144.057" height="31.5742" transform="matrix(-0.0959499 -0.995386 -0.995386 0.0959499 1325.73 690.186)" fill="white" stroke="black" stroke-width="0.986694"/>
<rect x="-0.538407" y="-0.443734" width="144.057" height="31.0808" transform="matrix(-0.0959499 -0.995386 -0.995386 0.0959499 1130.77 708.979)" fill="white" stroke="black" stroke-width="0.986694"/>
<path d="M844.971 801.301L876.366 872.78C890.348 865.611 902.892 877.098 907.415 883.738L1068.6 812.348C1063.3 793.709 1074.44 783.621 1080.67 780.907L1049.59 711.195C1029.73 715.179 1019.85 704.567 1017.39 698.763L857.058 770.793C862.496 788.385 851.266 798.462 844.971 801.301Z" fill="white" stroke="black" stroke-width="1.17949"/>
<path d="M867.039 782.849L902.704 864.649" stroke="black" stroke-width="2" stroke-dasharray="10 10"/>
<path d="M1019.4 715.375L1055.06 797.175" stroke="black" stroke-width="2" stroke-dasharray="10 10"/>
<path d="M166.444 18.8441L143.819 93.5632C159.104 97.2082 161.164 114.092 160.284 122.078L329.164 172.646C337.252 155.035 352.278 154.616 358.779 156.608L380.49 83.4325C362.815 73.549 362.209 59.0625 364.115 53.0548L195.464 3.52442C188.157 20.426 173.073 20.7799 166.444 18.8441Z" fill="white" stroke="black" stroke-width="1.17949"/>
<path d="M195.211 19.1738L169.119 104.511" stroke="black" stroke-width="2" stroke-dasharray="10 10"/>
<path d="M354.836 66.9785L328.744 152.316" stroke="black" stroke-width="2" stroke-dasharray="10 10"/>
<path d="M678.211 280.125C675.621 279.746 673.524 278.539 671.917 276.504C670.43 274.382 669.876 272.026 670.256 269.436C670.636 266.847 671.835 264.801 673.854 263.298C675.992 261.707 678.356 261.102 680.945 261.481C683.535 261.861 685.573 263.112 687.061 265.235C688.667 267.269 689.28 269.581 688.9 272.171C688.52 274.76 687.262 276.85 685.124 278.441C683.105 279.944 680.8 280.505 678.211 280.125ZM708.042 284.501C705.452 284.121 703.354 282.914 701.748 280.879C700.261 278.757 699.707 276.401 700.087 273.811C700.466 271.222 701.666 269.176 703.685 267.673C705.823 266.082 708.187 265.477 710.776 265.856C713.365 266.236 715.404 267.487 716.891 269.61C718.497 271.644 719.111 273.956 718.731 276.546C718.351 279.135 717.092 281.225 714.954 282.816C712.935 284.319 710.631 284.88 708.042 284.501ZM683.4 371.351C676.978 370.409 671.48 367.857 666.906 363.695C662.451 359.444 659.258 354.161 657.327 347.847C655.397 341.533 654.948 334.854 655.981 327.811C657.044 320.56 659.407 314.188 663.07 308.694C666.732 303.201 671.189 299.146 676.44 296.53C681.809 293.826 687.342 292.892 693.039 293.727C699.357 294.654 704.461 297.73 708.35 302.956C712.254 308.079 714.392 314.423 714.764 321.99C715.003 325.411 714.606 330.643 713.573 337.686L675.663 332.126C674.934 337.098 674.46 341.049 674.242 343.98C674.039 346.807 674.102 349.62 674.432 352.419C674.802 356.388 676.115 359.702 678.37 362.361C680.729 365.034 683.669 366.629 687.191 367.146C692.266 367.89 696.684 366.263 700.445 362.265C704.206 358.267 706.837 353.31 708.34 347.393L712.379 347.986C710.71 355.042 707.452 361.018 702.608 365.915C697.778 370.709 691.376 372.521 683.4 371.351ZM696.188 330.692C697.783 319.817 698.235 311.683 697.545 306.291C696.973 300.811 694.771 297.79 690.939 297.228C687.106 296.666 684.078 298.92 681.853 303.99C679.747 308.971 677.896 316.9 676.301 327.776L696.188 330.692Z" fill="black"/>
<path d="M973.167 331.856L968.787 331.473C968.833 330.952 968.605 329.355 968.103 326.684C967.705 324.022 966.879 320.85 965.625 317.167C964.466 313.598 962.65 310.339 960.176 307.39C957.806 304.451 955.056 302.844 951.928 302.57L947.391 302.173C946.452 302.091 945.756 302.241 945.303 302.621C944.962 302.907 944.751 303.519 944.669 304.457L939.496 363.589C939.268 366.196 939.8 367.924 941.091 368.773L941.561 368.814L947.505 369.334L947.45 369.959L952.456 370.397L950.986 398.012L946.606 397.628C946.565 396.889 946.294 395.184 945.792 392.513C945.29 389.842 944.571 387.257 943.634 384.758C942.266 381.17 940.588 378.134 938.598 375.648C936.6 373.266 933.776 371.916 930.126 371.596L912.136 370.022L912.464 366.268L918.409 366.788C919.347 366.87 919.987 366.768 920.327 366.483C920.781 366.102 921.048 365.443 921.131 364.504L926.523 302.87C926.605 301.931 926.451 301.287 926.062 300.938C925.785 300.493 925.178 300.23 924.239 300.148L918.295 299.628L918.623 295.873L974.939 300.8L973.167 331.856Z" fill="black"/>
<path d="M659.29 608.231H665.257C666.2 608.231 666.828 608.074 667.142 607.76C667.561 607.341 667.77 606.661 667.77 605.719V582.478C667.77 581.536 667.561 580.908 667.142 580.594C666.828 580.175 666.2 579.966 665.257 579.966H655.522C650.287 579.966 645.995 578.605 642.645 575.883C639.295 573.057 637.62 568.974 637.62 563.635V543.849C637.62 542.907 637.411 542.279 636.992 541.965C636.678 541.546 636.05 541.337 635.108 541.337H629.141V537.568H663.373V541.337H658.348C657.406 541.337 656.726 541.546 656.307 541.965C655.993 542.279 655.836 542.907 655.836 543.849V568.817C655.836 571.434 656.307 573.318 657.249 574.47C658.191 575.621 659.709 576.197 661.803 576.197H683.473C684.415 576.197 685.043 576.407 685.357 576.825C685.776 577.139 685.985 577.767 685.985 578.71V605.719C685.985 606.661 686.142 607.341 686.457 607.76C686.875 608.074 687.556 608.231 688.498 608.231H694.465V612H659.29V608.231Z" fill="black"/>
<path d="M1172.35 675.211C1166.64 675.953 1161.18 674.922 1155.95 672.118C1150.82 669.196 1146.52 664.952 1143.05 659.385C1139.59 653.819 1137.39 647.506 1136.47 640.447C1135.56 633.388 1136.06 626.724 1137.99 620.456C1139.92 614.187 1143 609.037 1147.22 605.003C1151.54 600.852 1156.55 598.406 1162.26 597.663C1167.97 596.92 1173.39 598.01 1178.52 600.932C1183.74 603.737 1188.09 607.922 1191.56 613.488C1195.03 619.054 1197.22 625.367 1198.14 632.426C1199.06 639.485 1198.55 646.149 1196.62 652.418C1194.69 658.686 1191.57 663.896 1187.25 668.046C1183.03 672.08 1178.06 674.468 1172.35 675.211ZM1253.83 700.241C1250.28 700.493 1246.89 699.614 1243.67 697.604C1240.45 695.594 1238.61 692.773 1238.14 689.14C1237.72 685.921 1237.92 681.778 1238.74 676.71L1240.21 667.334L1206.68 606.771C1204.9 603.624 1203.24 601.464 1201.72 600.29C1200.3 599.103 1198.24 598.684 1195.54 599.036L1193.51 599.299L1193.03 595.562L1231.33 590.579L1231.82 594.316L1227.46 594.883C1226.53 595.005 1225.69 595.483 1224.95 596.318C1224.32 597.139 1224.09 598.172 1224.25 599.418C1224.44 600.871 1224.94 602.284 1225.75 603.657L1244.88 638.698L1251.05 599.732C1251.76 595.418 1252.99 591.931 1254.76 589.274C1256.63 586.602 1259.64 584.997 1263.79 584.457C1267.53 583.971 1270.55 584.845 1272.84 587.08C1275.14 589.315 1276.48 591.938 1276.87 594.948C1277.29 598.166 1276.77 601.032 1275.3 603.545C1273.94 606.045 1271.75 607.491 1268.74 607.883C1266.35 608.193 1264.3 607.879 1262.6 606.94C1260.98 605.883 1260.05 604.368 1259.79 602.396C1259.48 600.008 1260.16 597.914 1261.82 596.114C1262.66 595.266 1263.21 594.614 1263.47 594.158C1263.71 593.598 1263.79 592.955 1263.69 592.229C1263.61 591.606 1263.34 591.166 1262.89 590.908C1262.42 590.547 1261.82 590.414 1261.09 590.508C1259.64 590.697 1258.39 591.599 1257.33 593.215C1256.38 594.817 1255.61 597.45 1255.03 601.115L1245 664.018L1243.84 672.088C1243.48 674.245 1243.4 676.05 1243.59 677.504C1243.9 679.891 1245.36 681.76 1247.96 683.111C1250.67 684.448 1254.12 685.372 1258.3 685.883L1253.83 700.241ZM1171.86 671.473C1176.22 670.906 1178.75 667.621 1179.45 661.619C1180.15 655.616 1179.73 646.75 1178.21 635.019C1176.68 623.288 1174.81 614.611 1172.6 608.986C1170.39 603.362 1167.11 600.833 1162.75 601.4C1158.39 601.967 1155.86 605.252 1155.16 611.255C1154.47 617.257 1154.88 626.124 1156.41 637.855C1157.93 649.585 1159.8 658.263 1162.01 663.887C1164.22 669.512 1167.5 672.04 1171.86 671.473Z" fill="black"/>
<path d="M951.337 843.115C947.724 844.779 944.229 844.948 940.852 843.621C937.57 842.251 935.185 839.949 933.697 836.716C932.34 833.768 932.152 830.858 933.135 827.985C934.168 824.974 936.016 822.855 938.679 821.629C941.247 820.447 943.499 820.332 945.435 821.285C947.328 822.142 948.647 823.379 949.391 824.995C950.179 826.707 950.232 828.7 949.55 830.973C949.389 831.623 949.275 832.252 949.208 832.859C949.193 833.327 949.317 833.846 949.58 834.417C949.93 835.177 950.383 835.66 950.938 835.866C951.545 835.932 952.134 835.834 952.704 835.571C954.606 834.695 955.556 832.126 955.552 827.864C955.6 823.462 953.979 817.063 950.69 808.666L943.622 790.311C941.156 783.955 939.223 779.255 937.822 776.212C937.078 774.596 936.179 773.396 935.127 772.613C934.17 771.785 932.883 771.744 931.267 772.488L925.989 774.918L924.413 771.495L974.336 748.51L975.913 751.933L970.492 754.429C969.636 754.823 969.106 755.297 968.901 755.853C968.747 756.269 968.867 756.906 969.261 757.761L980.819 782.866L994.512 776.561C1000.41 773.847 1006.12 773.351 1011.63 775.075C1017.15 776.798 1021.09 780.227 1023.46 785.362C1025.03 788.785 1025.58 792.339 1025.08 796.024C1024.64 799.57 1023.24 802.921 1020.89 806.077C1018.5 809.139 1015.35 811.567 1011.46 813.362L973.514 830.831L971.938 827.407L977.358 824.912C978.214 824.518 978.719 824.112 978.873 823.696C979.078 823.14 978.984 822.435 978.59 821.579L952.715 765.379C952.321 764.524 951.868 764.041 951.356 763.93C950.896 763.681 950.238 763.754 949.382 764.148L945.816 765.79C943.534 766.841 942.264 768.463 942.006 770.656C941.704 772.754 942.268 775.606 943.698 779.212L954.781 808.165C962.28 826.956 961.132 838.606 951.337 843.115ZM1003.89 812.697C1006.84 811.34 1008.41 808.884 1008.62 805.331C1008.93 801.734 1008.07 797.748 1006.06 793.374C1004.04 789 1001.64 785.784 998.849 783.727C996.058 781.67 993.141 781.342 990.098 782.743L982.395 786.289L995.136 813.961C995.53 814.817 995.957 815.369 996.417 815.618C996.929 815.728 997.613 815.586 998.469 815.192L1003.89 812.697Z" fill="black"/>
<path d="M185.323 409.355C181.233 407.268 176.6 403.867 171.423 399.151C166.347 394.407 162.409 390.205 159.608 386.547C153.79 378.857 149.267 371.501 146.039 364.478C142.811 357.456 140.195 350.476 138.19 343.536L156.594 338.218C158.105 343.448 160.056 348.877 162.445 354.507C164.835 360.137 167.214 364.789 169.584 368.463C176.591 379.514 183.251 387.288 189.563 391.785C191.312 385.395 192.331 377.418 192.619 367.855C189.961 363.937 186.859 358.295 183.314 350.929C179.74 343.462 177.069 337.423 175.301 332.812L193.705 327.494C198.042 339.862 202.955 350.266 208.445 358.705C211.377 363.197 214.619 367.436 218.168 371.423C221.717 375.41 225.235 378.534 228.722 380.796C230.165 372.969 229.623 364.681 227.094 355.931C223.694 344.164 218.096 333.087 210.3 322.699L231.42 316.596C232.07 317.716 232.801 319.303 233.613 321.356C234.525 323.381 235.155 324.997 235.504 326.204C241.578 347.224 238.78 370.916 227.111 397.28L224.697 397.978C220.578 395.79 215.742 392.066 210.19 386.805C204.638 381.544 200.029 376.719 196.364 372.33L195.76 372.504C195.544 377.035 194.706 382.998 193.247 390.393C191.86 397.659 190.274 403.675 188.491 408.44L185.323 409.355Z" fill="black"/>
<path d="M361.595 642.269L367.341 643.879C368.248 644.133 368.895 644.152 369.282 643.934C369.798 643.644 370.184 643.045 370.438 642.138L386.793 583.773C387.471 581.353 386.349 579.734 383.425 578.915C380.603 578.124 378.002 578.482 375.623 579.99C373.271 581.397 371.017 583.429 368.859 586.085C366.572 588.815 364.624 591.694 363.014 594.722C361.405 597.75 360.515 599.566 360.346 600.171L356.414 599.069L365.542 569.99L388.827 576.515L390.607 570.164C391.793 565.93 392.574 562.562 392.95 560.057C393.426 557.582 393.384 555.015 392.824 552.358C392.365 549.728 391.108 547.039 389.052 544.288L391.393 542.335C394.759 545.453 397.289 549.423 398.981 554.246C400.674 559.069 401.258 563.582 400.733 567.783C402.467 563.921 405.311 560.369 409.263 557.127C413.216 553.886 417.44 551.808 421.937 550.894L422.922 553.779C419.837 555.089 417.365 556.734 415.505 558.713C413.646 560.693 412.226 562.85 411.246 565.184C410.366 567.547 409.333 570.846 408.147 575.079L406.367 581.43L431.467 588.464L424.154 618.052L420.223 616.95C420.392 616.345 420.576 614.331 420.775 610.908C420.973 607.484 420.804 604.012 420.269 600.492C419.806 597.101 418.935 594.193 417.658 591.769C416.408 589.245 414.372 587.587 411.55 586.796L409.735 586.288C406.812 585.468 405.011 586.268 404.333 588.688L397.215 614.09L411.73 618.158C417.98 619.909 422.649 623.229 425.737 628.117C428.825 633.005 429.606 638.17 428.08 643.614C427.064 647.243 425.174 650.301 422.411 652.788C419.777 655.203 416.543 656.852 412.708 657.734C408.901 658.515 404.931 658.327 400.799 657.169L360.578 645.898L361.595 642.269ZM395.465 651.76C398.59 652.636 401.382 651.788 403.843 649.216C406.404 646.672 408.334 643.081 409.633 638.444C410.933 633.807 411.186 629.801 410.392 626.426C409.598 623.051 407.589 620.911 404.363 620.007L396.198 617.719L387.978 647.053C387.723 647.96 387.691 648.658 387.88 649.146C388.199 649.561 388.812 649.896 389.719 650.15L395.465 651.76Z" fill="black"/>
</g>
<defs>
<clipPath id="clip0_289_119">
<rect width="1455" height="886" fill="white"/>
</clipPath>
</defs>
</svg>
