<svg width="1443" height="537" viewBox="0 0 1443 537" fill="none" xmlns="http://www.w3.org/2000/svg">
<g clip-path="url(#clip0_268_87)">
<path d="M758.952 297.786L847.535 501.038C887.215 480.815 922.706 513.552 935.492 532.448L1392.85 331.267C1377.91 278.294 1409.56 249.755 1427.25 242.108L1339.53 43.8759C1283.22 54.998 1255.28 24.7742 1248.34 8.27193L793.394 211.275C808.707 261.278 776.813 289.784 758.952 297.786Z" fill="white" stroke="black" stroke-width="3"/>
<path d="M1272.73 59.5469L1373.85 268.362" stroke="black" stroke-width="4.92687" stroke-dasharray="15.68 15.68"/>
<path d="M831.172 268.964L932.292 477.779" stroke="black" stroke-width="4.92687" stroke-dasharray="15.68 15.68"/>
<path d="M919.456 433.277L932.547 426.938C934.293 426.093 935.327 425.207 935.648 424.282C935.909 423.232 935.647 421.897 934.862 420.276L880.523 308.065C879.678 306.319 878.793 305.286 877.868 304.964C876.942 304.643 875.607 304.905 873.861 305.75L860.77 312.089L857.872 306.105L963.35 255.026L989.661 305.545L983.677 308.443C983.194 307.445 980.94 304.381 976.916 299.249C972.892 294.118 968.886 289.978 964.899 286.83C959.564 282.487 953.686 279.408 947.265 277.591C940.97 275.715 935.079 276.105 929.593 278.761L910.517 287.999C908.896 288.784 907.863 289.669 907.416 290.655C907.095 291.58 907.357 292.916 908.202 294.661L933.198 346.278L942.736 341.659C946.102 340.029 948.555 337.148 950.095 333.017C951.634 328.885 952.248 324.432 951.937 319.657C951.69 314.698 950.691 310.41 948.94 306.794L954.925 303.896L983.271 362.433L977.287 365.331C975.475 361.591 972.731 358.148 969.053 355.004C965.44 351.674 961.536 349.333 957.34 347.978C953.144 346.624 949.363 346.762 945.996 348.392L936.458 353.011L962.541 406.872C963.326 408.493 964.211 409.527 965.197 409.973C966.247 410.234 967.582 409.972 969.203 409.187L986.222 400.946L989.12 406.93L922.354 439.262L919.456 433.277ZM1020.43 384.379L1033.52 378.04C1035.27 377.195 1036.3 376.309 1036.62 375.384C1036.88 374.334 1036.62 372.999 1035.84 371.378L981.499 259.167C980.654 257.421 979.768 256.388 978.843 256.066C977.918 255.745 976.582 256.007 974.837 256.852L961.746 263.191L958.847 257.207L1021.69 226.777L1024.58 232.762L1011.49 239.101C1009.87 239.886 1008.84 240.771 1008.39 241.757C1008.07 242.682 1008.33 244.018 1009.18 245.763L1063.52 357.974C1064.3 359.595 1065.19 360.629 1066.17 361.075C1067.22 361.336 1068.56 361.074 1070.18 360.289L1083.27 353.95L1086.17 359.934L1023.33 390.364L1020.43 384.379ZM1183.24 318.467C1175.26 322.331 1167.76 323.042 1160.72 320.598C1153.82 318.094 1148.13 312.229 1143.66 303.003L1132.43 279.813C1129.53 273.828 1125.59 269.503 1120.61 266.838C1115.75 264.112 1110.26 264.228 1104.15 267.187L1093.68 272.258L1121.57 329.86C1122.36 331.481 1123.24 332.515 1124.23 332.961C1125.28 333.222 1126.61 332.96 1128.23 332.175L1144.69 324.205L1147.59 330.19L1081.39 362.25L1078.49 356.265L1091.58 349.926C1093.32 349.081 1094.36 348.195 1094.68 347.27C1094.94 346.22 1094.68 344.885 1093.89 343.264L1039.55 231.053C1038.71 229.307 1037.82 228.274 1036.9 227.952C1035.97 227.631 1034.64 227.893 1032.89 228.738L1019.8 235.077L1016.9 229.093L1077.5 199.75C1090.96 193.229 1103.26 190.969 1114.39 192.968C1125.45 194.843 1133.43 200.83 1138.32 210.929C1142.49 219.532 1142.6 227.867 1138.66 235.933C1134.84 243.939 1128.05 251.071 1118.31 257.329L1118.94 258.638C1129.51 255.675 1138.69 255.543 1146.46 258.244C1154.17 260.82 1160.68 267.594 1166 278.565L1176.05 299.324C1178.58 304.561 1181.6 306.334 1185.09 304.643C1188.33 303.074 1189.4 299.246 1188.3 293.16C1187.2 287.074 1184.78 280.166 1181.04 272.436L1187.02 269.538C1192.88 281.632 1195.81 291.83 1195.83 300.133C1195.79 308.311 1191.59 314.422 1183.24 318.467ZM1103.31 260.206C1109.92 257.006 1113.35 252.341 1113.62 246.21C1113.88 240.08 1111.9 232.651 1107.67 223.924C1103.57 215.445 1099.18 209.721 1094.51 206.75C1089.84 203.778 1084.2 203.893 1077.59 207.093L1069.55 210.987C1067.93 211.772 1066.89 212.657 1066.45 213.643C1066.13 214.568 1066.39 215.904 1067.23 217.649L1090.78 266.274L1103.31 260.206ZM1170.67 195.032L1169.36 195.666L1206.95 273.279C1209.67 278.889 1213.59 282.223 1218.72 283.279C1223.91 284.15 1229.19 283.288 1234.55 280.692L1237.45 286.676L1191.07 309.136L1188.17 303.152C1193.53 300.556 1197.42 296.98 1199.83 292.426C1202.3 287.687 1202.18 282.512 1199.47 276.901L1151.11 177.033C1150.26 175.288 1149.38 174.254 1148.45 173.933C1147.52 173.611 1146.19 173.873 1144.44 174.719L1129.48 181.964L1126.58 175.979L1171.28 154.334L1250.06 229.774L1230.57 125.625L1278.07 102.622L1280.97 108.606L1267.88 114.946C1266.26 115.731 1265.22 116.616 1264.78 117.602C1264.45 118.527 1264.72 119.862 1265.56 121.608L1319.9 233.819C1320.68 235.44 1321.57 236.473 1322.56 236.919C1323.61 237.181 1324.94 236.919 1326.56 236.134L1339.65 229.794L1342.55 235.779L1279.71 266.209L1276.82 260.224L1289.91 253.884C1291.65 253.039 1292.69 252.154 1293.01 251.229C1293.27 250.179 1293.01 248.843 1292.22 247.222L1240.69 140.809L1265.84 275.698L1258.54 279.23L1170.67 195.032Z" fill="black"/>
</g>
<defs>
<clipPath id="clip0_268_87">
<rect width="1443" height="537" fill="white"/>
</clipPath>
</defs>
</svg>
